<svg width="186" height="114" viewBox="0 0 186 114" fill="none" xmlns="http://www.w3.org/2000/svg">
<path d="M1.26 64H6.921C8.199 64 9.168 63.646 9.828 62.938C10.488 62.23 10.818 61.3 10.818 60.148C10.818 59.494 10.656 58.9 10.332 58.366C10.014 57.832 9.543 57.433 8.919 57.169C9.321 56.929 9.636 56.59 9.864 56.152C10.098 55.708 10.215 55.192 10.215 54.604C10.215 54.022 10.077 53.458 9.801 52.912C9.531 52.366 9.114 51.919 8.55 51.571C7.992 51.217 7.275 51.04 6.399 51.04H1.26V64ZM3.456 56.215V53.065H6.372C6.888 53.065 7.29 53.215 7.578 53.515C7.866 53.815 8.01 54.19 8.01 54.64C8.01 55.156 7.851 55.549 7.533 55.819C7.221 56.083 6.834 56.215 6.372 56.215H3.456ZM3.456 61.957V58.24H6.714C7.32 58.24 7.791 58.417 8.127 58.771C8.463 59.125 8.631 59.563 8.631 60.085C8.631 60.661 8.442 61.117 8.064 61.453C7.692 61.789 7.221 61.957 6.651 61.957H3.456ZM25.0355 64.27C26.0675 64.27 26.9735 64.06 27.7535 63.64C28.5395 63.22 29.1515 62.629 29.5895 61.867C30.0335 61.105 30.2555 60.211 30.2555 59.185V51.04H28.0595V59.131C28.0595 59.773 27.9185 60.325 27.6365 60.787C27.3605 61.249 26.9915 61.606 26.5295 61.858C26.0735 62.104 25.5755 62.227 25.0355 62.227C24.5135 62.227 24.0215 62.104 23.5595 61.858C23.0975 61.612 22.7225 61.258 22.4345 60.796C22.1525 60.334 22.0115 59.779 22.0115 59.131V51.04L19.8155 51.058V59.185C19.8155 60.211 20.0345 61.105 20.4725 61.867C20.9165 62.629 21.5315 63.22 22.3175 63.64C23.1035 64.06 24.0095 64.27 25.0355 64.27ZM40.1505 64H42.3195V51.04H40.1505V64ZM52.3955 64H60.2885V61.966H54.5645V51.04H52.3955V64ZM70.3342 64H72.5032V53.074H76.6972V51.04H66.1402V53.074H70.3342V64ZM101.076 64.27C102.372 64.27 103.482 63.988 104.406 63.424C105.336 62.854 106.047 62.062 106.539 61.048C107.037 60.034 107.286 58.858 107.286 57.52C107.286 56.176 107.037 55 106.539 53.992C106.047 52.978 105.336 52.189 104.406 51.625C103.482 51.055 102.372 50.77 101.076 50.77C99.7858 50.77 98.6758 51.055 97.7458 51.625C96.8218 52.189 96.1108 52.978 95.6128 53.992C95.1208 55 94.8748 56.176 94.8748 57.52C94.8748 58.858 95.1208 60.034 95.6128 61.048C96.1108 62.062 96.8218 62.854 97.7458 63.424C98.6758 63.988 99.7858 64.27 101.076 64.27ZM101.076 62.227C99.7738 62.209 98.7958 61.774 98.1418 60.922C97.4878 60.07 97.1638 58.936 97.1698 57.52C97.1758 56.572 97.3228 55.744 97.6108 55.036C97.8988 54.328 98.3308 53.779 98.9068 53.389C99.4828 52.993 100.206 52.801 101.076 52.813C102.384 52.831 103.362 53.266 104.01 54.118C104.664 54.97 104.991 56.104 104.991 57.52C104.991 58.462 104.844 59.29 104.55 60.004C104.262 60.712 103.827 61.261 103.245 61.651C102.669 62.041 101.946 62.233 101.076 62.227ZM116.277 64H118.473V54.865L124.485 64H126.681V51.04H124.485V60.175L118.473 51.04H116.277V64Z" fill="white"/>
<g clip-path="url(#clip0_460_1284)">
<path d="M49.2218 18.7513C49.2129 18.7857 49.2122 18.8217 49.2198 18.8565C49.2273 18.8912 49.2429 18.9237 49.2653 18.9513C49.2877 18.9789 49.3162 19.0008 49.3486 19.0153C49.381 19.0298 49.4163 19.0365 49.4518 19.0348C50.0143 19.0348 51.1392 19.0348 51.6345 19.0348C51.7026 19.0421 51.7709 19.023 51.8255 18.9815C51.88 18.94 51.9167 18.8792 51.9281 18.8115C52.1929 17.4916 52.2133 16.1341 51.9882 14.8068C51.9666 14.6832 51.9001 14.5721 51.8014 14.4948C51.7027 14.4176 51.579 14.3797 51.454 14.3886H49.5473C49.2537 14.3886 49.1582 14.5375 49.1935 14.7891C49.3386 15.5758 49.5933 17.3691 49.2112 18.7406" fill="white"/>
<path d="M45.8895 8.25038H43.6325C43.5974 8.25038 43.5626 8.25736 43.5302 8.27094C43.4978 8.28452 43.4683 8.30442 43.4437 8.32947C43.419 8.35453 43.3995 8.38426 43.3864 8.41692C43.3733 8.44958 43.3667 8.48452 43.3672 8.51972V23.6314C43.3667 23.6666 43.3733 23.7015 43.3864 23.7342C43.3995 23.7668 43.419 23.7965 43.4437 23.8216C43.4683 23.8467 43.4978 23.8666 43.5302 23.8801C43.5626 23.8937 43.5974 23.9007 43.6325 23.9007H57.8925C57.9385 23.9007 57.9845 23.9007 57.9845 23.6314V9.80974C57.9849 9.77454 57.9784 9.73959 57.9653 9.70693C57.9522 9.67427 57.9327 9.64456 57.908 9.6195C57.8833 9.59444 57.8539 9.57454 57.8215 9.56096C57.7891 9.54739 57.7543 9.54039 57.7192 9.54039H46.8871C46.7071 9.52855 46.5366 9.45526 46.404 9.33273C46.2713 9.2102 46.1847 9.04583 46.1584 8.86703V8.51263C46.1584 8.4412 46.13 8.37269 46.0796 8.32217C46.0292 8.27166 45.9608 8.24329 45.8895 8.24329V8.25038ZM55.1969 12.0779H54.4044C54.5947 12.0739 54.7799 12.1393 54.9256 12.2619C55.0714 12.3844 55.1678 12.5558 55.1969 12.7442V20.7253C55.171 20.8963 55.0898 21.054 54.9659 21.1744C54.8419 21.2947 54.682 21.371 54.5106 21.3915H46.8447C46.672 21.3702 46.5111 21.2929 46.3865 21.1713C46.262 21.0497 46.1806 20.8905 46.1548 20.7182V12.7442C46.1854 12.5558 46.2827 12.3848 46.4289 12.2624C46.575 12.1401 46.7603 12.0746 46.9508 12.0779H55.1933H55.1969Z" fill="white"/>
<path d="M42.2741 6.60955H59.3818C59.4519 6.60863 59.5189 6.58033 59.5684 6.53068C59.618 6.48103 59.6462 6.41396 59.6472 6.34375V4.28113C59.6472 4.21031 59.6193 4.14233 59.5697 4.09192C59.52 4.04151 59.4525 4.01272 59.3818 4.01179H55.8902C55.4799 4.01179 55.4657 3.73889 55.4834 3.52271L55.7664 0.294128C55.7669 0.258926 55.7604 0.223986 55.7473 0.191327C55.7341 0.158669 55.7147 0.128943 55.69 0.103884C55.6653 0.078826 55.6359 0.05893 55.6035 0.0453512C55.571 0.0317725 55.5363 0.0247771 55.5011 0.0247803H53.1698C53.0992 0.0257122 53.0317 0.0545007 52.982 0.104912C52.9324 0.155323 52.9045 0.223303 52.9045 0.294128L52.5508 3.71055C52.5297 3.80014 52.4784 3.87971 52.4056 3.93587C52.3328 3.99203 52.2429 4.02134 52.151 4.01888H49.7809C49.677 4.02101 49.5764 3.98328 49.4994 3.91344C49.4225 3.8436 49.3751 3.74692 49.367 3.64322L49.045 0.294128C49.045 0.222694 49.0167 0.15418 48.9663 0.103668C48.9159 0.0531563 48.8475 0.0247803 48.7762 0.0247803H46.4485C46.3772 0.0247803 46.3088 0.0531563 46.2584 0.103668C46.2079 0.15418 46.1796 0.222694 46.1796 0.294128L46.4343 3.52981C46.452 3.74599 46.4343 4.01888 46.0275 4.01888H42.2741C42.239 4.01888 42.2042 4.02586 42.1718 4.03944C42.1394 4.05302 42.1099 4.07292 42.0853 4.09797C42.0606 4.12303 42.0411 4.15276 42.028 4.18542C42.0149 4.21807 42.0083 4.25301 42.0088 4.28822V6.36856C42.0088 6.43905 42.0368 6.50665 42.0865 6.5565C42.1363 6.60634 42.2038 6.63436 42.2741 6.63436" fill="white"/>
<path d="M33.5296 3.67514C34.2088 4.30597 36.1014 5.52156 38.1284 5.55346H39.6956C39.7662 5.55253 39.8337 5.52374 39.8834 5.47333C39.933 5.42291 39.9609 5.35493 39.9609 5.28411V3.09747C39.9609 3.02664 39.933 2.95866 39.8834 2.90825C39.8337 2.85784 39.7662 2.82905 39.6956 2.82812H38.2416C37.0601 2.82812 36.3384 2.33196 35.5071 1.60189L35.2807 1.3928C35.2003 1.31182 35.0934 1.26257 34.9797 1.25411C34.866 1.24565 34.7531 1.27853 34.6616 1.34673C34.6616 1.34673 33.6923 2.19728 33.2855 2.50561L32.9989 2.7218C32.968 2.74922 32.9434 2.78309 32.9269 2.82105C32.9103 2.85902 32.9024 2.90014 32.9034 2.94153C32.9036 3.02172 32.9339 3.0989 32.9883 3.15771C33.1581 3.33491 33.5154 3.67514 33.5154 3.67514" fill="white"/>
<path d="M60.8252 25.9386C57.6873 26.6864 53.0425 26.7998 49.4023 26.7998C45.0299 26.7998 42.2105 26.0485 39.0974 24.7053L38.9913 24.6557C38.4288 24.3686 38.3793 24.3438 38.305 24.1383C38.2745 24.0645 38.261 23.9848 38.2652 23.9051C38.2695 23.8254 38.2916 23.7476 38.3297 23.6776L38.3793 23.596L39.7165 20.9877C39.7599 20.8863 39.7965 20.7821 39.8261 20.6758C39.8504 20.5587 39.8681 20.4404 39.8792 20.3214V8.94512C39.8783 8.8743 39.8495 8.8067 39.7992 8.75695C39.7489 8.70721 39.681 8.67932 39.6103 8.67932H32.3265C32.2558 8.67932 32.1879 8.70721 32.1376 8.75695C32.0873 8.8067 32.0585 8.8743 32.0576 8.94512V10.9936C32.0576 11.065 32.0859 11.1335 32.1364 11.184C32.1868 11.2345 32.2552 11.2629 32.3265 11.2629L36.1364 11.2948C36.3725 11.2908 36.6021 11.3721 36.7833 11.5237C36.9645 11.6753 37.0852 11.8871 37.1234 12.1205V20.0875C37.1165 20.207 37.0987 20.3256 37.0704 20.4419C37.035 20.5491 36.9888 20.6524 36.9324 20.7502L35.9136 22.6781C35.8332 22.8738 35.69 23.0372 35.5068 23.1424C35.2952 23.2304 35.0615 23.2502 34.8382 23.1991C33.8547 23.0148 33.3418 22.8731 32.7757 22.7774C32.7018 22.7557 32.6233 22.7557 32.5493 22.7774C32.5172 22.8004 32.4917 22.8316 32.4756 22.8677C32.4594 22.9038 32.4531 22.9436 32.4574 22.9829V25.1093C32.4706 25.1897 32.5051 25.265 32.5574 25.3274C32.6097 25.3897 32.6778 25.4368 32.7545 25.4637C38.1741 27.1117 43.1408 29.5322 49.1972 29.5322C54.8184 29.5322 59.2969 29.1778 60.8712 28.7809C60.9348 28.7809 60.9738 28.7348 60.9738 28.6392V26.0343C60.9725 26.0174 60.9678 26.001 60.9598 25.9861C60.9518 25.9712 60.9408 25.9581 60.9275 25.9478C60.9141 25.9374 60.8987 25.93 60.8823 25.9259C60.8659 25.9219 60.8489 25.9214 60.8322 25.9245" fill="white"/>
<path d="M18.5867 6.03186H7.49286C7.42278 6.03278 7.35582 6.06108 7.30626 6.11073C7.2567 6.16038 7.22846 6.22745 7.22754 6.29766V8.39217C7.22846 8.46238 7.2567 8.52945 7.30626 8.5791C7.35582 8.62875 7.42278 8.65705 7.49286 8.65797H18.5867C18.6571 8.65797 18.7245 8.62997 18.7743 8.58012C18.8241 8.53027 18.852 8.46266 18.852 8.39217V6.29766C18.852 6.22717 18.8241 6.15956 18.7743 6.10971C18.7245 6.05986 18.6571 6.03186 18.5867 6.03186Z" fill="white"/>
<path d="M18.5867 11.1424H7.49286C7.34782 11.1424 7.22754 11.2097 7.22754 11.2948V22.6356C7.22754 22.7061 7.25549 22.7737 7.30525 22.8235C7.355 22.8734 7.42249 22.9014 7.49286 22.9014H18.5867C18.6218 22.9018 18.6567 22.8953 18.6893 22.8822C18.7219 22.869 18.7516 22.8495 18.7766 22.8248C18.8016 22.8001 18.8215 22.7706 18.835 22.7381C18.8486 22.7056 18.8555 22.6708 18.8555 22.6356V11.4082C18.8555 11.373 18.8486 11.3381 18.835 11.3056C18.8215 11.2731 18.8016 11.2437 18.7766 11.219C18.7516 11.1942 18.7219 11.1747 18.6893 11.1616C18.6567 11.1484 18.6218 11.1419 18.5867 11.1424ZM16.1387 19.6267C16.1167 19.7952 16.0388 19.9515 15.9176 20.0704C15.7963 20.1893 15.6387 20.2639 15.4701 20.2823H10.6378C10.46 20.2654 10.2931 20.1885 10.1646 20.0643C10.0361 19.94 9.95348 19.7758 9.93025 19.5984V14.4879C9.93672 14.2883 10.0219 14.0994 10.1671 13.9625C10.3123 13.8257 10.5057 13.7521 10.705 13.7578H15.3604C15.5427 13.755 15.7201 13.8173 15.8607 13.9335C16.0014 14.0498 16.0962 14.2124 16.1281 14.3922L16.1387 19.6267Z" fill="white"/>
<path d="M25.6224 0.602539H2.27442H0.452568C0.0988109 0.602539 0.00683594 0.829356 0.00683594 1.11288V28.7561C0.00776615 28.8269 0.0365024 28.8945 0.0868221 28.9443C0.137142 28.994 0.204993 29.0219 0.27569 29.0219H2.59988C2.64233 29.0219 2.7909 29.0219 2.7909 28.7561V4.22451C2.82316 4.00497 2.92898 3.80295 3.09097 3.65161C3.25297 3.50027 3.46152 3.4086 3.68237 3.39167H22.2228C22.4403 3.40913 22.6457 3.4988 22.8065 3.64645C22.9673 3.7941 23.0744 3.9913 23.1107 4.2068V22.2174C23.1107 23.1956 23.139 24.6699 21.6709 26.0201C21.3809 26.3072 19.6297 27.6823 19.6297 27.6823C19.6022 27.704 19.5792 27.731 19.5621 27.7618C19.545 27.7925 19.5342 27.8263 19.5302 27.8612C19.5263 27.8962 19.5293 27.9316 19.5391 27.9653C19.5489 27.9991 19.5653 28.0306 19.5873 28.0579L20.7406 29.9008C20.7654 29.9323 20.7972 29.9575 20.8334 29.9748C20.8696 29.992 20.9092 30.0006 20.9493 30.0001C21.0094 29.9998 21.0678 29.9799 21.1155 29.9434C21.1155 29.9434 22.8843 28.6746 23.5635 28.0402C24.1295 27.5228 25.8099 25.8288 25.8842 22.3273V0.868339C25.8842 0.797845 25.8562 0.730236 25.8065 0.680389C25.7567 0.630541 25.6892 0.602539 25.6189 0.602539" fill="white"/>
<path d="M92.3908 24.8081C91.5029 22.8519 89.4193 19.0491 86.0232 16.5683C83.0516 14.3959 81.1697 14.1761 80.9574 14.0698C80.8053 13.9918 80.7947 13.843 80.7982 13.602L80.8725 9.62562C80.9041 9.50315 80.9727 9.39348 81.069 9.31163C81.1653 9.22979 81.2845 9.17978 81.4102 9.16845H92.405C92.4841 9.16752 92.5597 9.13537 92.6153 9.07897C92.671 9.02258 92.7021 8.94649 92.7021 8.86721V6.81877C92.7012 6.7401 92.6696 6.66492 92.6141 6.60929C92.5586 6.55366 92.4835 6.522 92.405 6.52108H81.4845C81.3295 6.51444 81.1825 6.45072 81.0715 6.34216C80.9605 6.23359 80.8934 6.08782 80.8831 5.93277L80.7451 0.528164C80.7451 0.44921 80.7138 0.373492 80.6581 0.317663C80.6024 0.261834 80.5268 0.230469 80.448 0.230469H78.1804C78.1019 0.231389 78.0268 0.263049 77.9713 0.31868C77.9158 0.37431 77.8842 0.449496 77.8832 0.528164V6.02137C77.859 6.15143 77.7936 6.27024 77.6968 6.36022C77.6 6.4502 77.4768 6.5066 77.3455 6.52108H66.0253C65.9462 6.52107 65.8702 6.55231 65.8139 6.60804C65.7576 6.66377 65.7255 6.73949 65.7246 6.81877V8.86721C65.7246 8.90677 65.7324 8.94594 65.7475 8.98249C65.7626 9.01904 65.7848 9.05224 65.8127 9.08022C65.8406 9.10819 65.8738 9.13038 65.9102 9.14552C65.9467 9.16066 65.9858 9.16845 66.0253 9.16845H77.3738C77.5044 9.18492 77.6262 9.24311 77.7211 9.3344C77.8161 9.42569 77.8791 9.54522 77.9009 9.67524V13.3256C77.9014 13.3653 77.894 13.4046 77.879 13.4414C77.8641 13.4782 77.8419 13.5116 77.8139 13.5396C77.7859 13.5677 77.7526 13.5899 77.7159 13.6048C77.6792 13.6198 77.6399 13.6273 77.6002 13.6268C77.6002 13.6268 75.5697 13.5949 74.8834 13.6622C73.387 13.8146 71.1548 14.371 69.3931 15.9836C67.458 17.7556 66.6939 19.2759 66.2093 21.4272C65.9555 22.4727 65.9395 23.5621 66.1624 24.6147C66.3853 25.6673 66.8414 26.6563 67.4969 27.5087C69.0747 29.5358 74.0591 31.1023 77.0484 28.2742C80.1437 25.3468 80.7982 20.3214 80.7982 16.827C80.7982 16.6746 80.922 16.625 81.1024 16.6853C83.0729 17.3516 86.3416 19.9812 88.2023 23.1885C89.4936 25.237 90.4416 27.4201 90.6786 27.8347C90.7055 27.9016 90.749 27.9606 90.805 28.0058C90.8611 28.0511 90.9278 28.0812 90.9987 28.0933C91.0697 28.1054 91.1426 28.0991 91.2104 28.0749C91.2783 28.0507 91.3388 28.0095 91.3862 27.9552C91.7116 27.693 92.8932 26.7892 92.8932 26.7892C93.0983 26.6014 93.1479 26.4703 92.9639 26.1265C92.9179 26.045 92.4121 24.9038 92.3696 24.8081H92.3908ZM75.605 25.9351C74.2219 27.5441 71.4802 27.6788 69.9449 26.2612C68.4096 24.8436 68.0063 20.3037 71.5864 17.3799C73.9212 15.4732 77.7417 16.0793 77.7417 16.0793C77.9045 16.1076 77.9186 16.2175 77.9151 16.3699C77.9151 17.6563 77.9469 23.2311 75.6227 25.9387" fill="white"/>
<path d="M127.883 27.3669C127.059 26.5234 124.76 24.5635 123.245 22.1465C123.205 22.0805 123.183 22.0044 123.183 21.9268C123.183 21.8492 123.205 21.7731 123.245 21.7071C124.894 18.6096 126.649 14.6864 126.734 6.97465V4.69939C126.733 4.62858 126.704 4.56097 126.654 4.51123C126.603 4.46148 126.535 4.43359 126.465 4.43359H116.598C116.528 4.43359 116.46 4.46148 116.41 4.51123C116.359 4.56097 116.33 4.62858 116.33 4.69939V6.77972C116.33 6.81493 116.336 6.84979 116.35 6.88228C116.364 6.91476 116.383 6.94421 116.408 6.96894C116.433 6.99367 116.463 7.01318 116.496 7.02633C116.528 7.03947 116.563 7.04599 116.598 7.04552H123.716C123.978 7.04552 124.027 7.20855 124.01 7.48144C124.01 7.48144 124.01 7.8571 124.01 7.91026C124.01 8.66513 124.01 14.5943 121.689 19.1377C121.678 19.1709 121.658 19.2002 121.631 19.2216C121.603 19.2431 121.57 19.2559 121.535 19.2581C121.5 19.2604 121.466 19.2522 121.436 19.2345C121.406 19.2168 121.382 19.1905 121.367 19.1589C119.764 16.2635 119.404 13.8429 119.085 10.3344C119.085 10.221 119.039 9.99769 118.806 9.99769H116.616C116.383 9.99769 116.344 10.1324 116.351 10.1997C116.934 16.8624 118.141 18.7868 119.676 21.7C119.712 21.7617 119.732 21.8321 119.732 21.9038C119.732 21.9755 119.712 22.0458 119.676 22.1075C118.358 24.0602 116.761 25.8084 114.936 27.296C114.905 27.3227 114.88 27.3552 114.862 27.3918C114.844 27.4283 114.834 27.4681 114.832 27.5087C114.829 27.5493 114.835 27.59 114.849 27.6283C114.862 27.6667 114.884 27.7019 114.911 27.7319L116.305 29.068C116.366 29.129 116.448 29.1633 116.535 29.1633C116.621 29.1633 116.704 29.129 116.765 29.068C118.492 27.6926 120.028 26.0919 121.332 24.3084C121.343 24.2943 121.358 24.2829 121.374 24.2751C121.391 24.2673 121.409 24.2633 121.427 24.2633C121.445 24.2633 121.463 24.2673 121.48 24.2751C121.496 24.2829 121.511 24.2943 121.523 24.3084C122.87 26.0521 124.393 27.6519 126.068 29.0822C126.146 29.1534 126.247 29.1929 126.351 29.1929C126.456 29.1929 126.557 29.1534 126.634 29.0822C126.634 29.0822 127.784 28.0367 127.936 27.8807C127.97 27.8505 127.997 27.8134 128.016 27.7718C128.035 27.7303 128.044 27.6853 128.044 27.6397C128.044 27.5942 128.035 27.5492 128.016 27.5077C127.997 27.4661 127.97 27.429 127.936 27.3988" fill="white"/>
<path d="M114.685 19.2334C114.685 19.2334 113.323 16.8235 112.491 15.8985C112.353 15.7602 112.187 15.6537 112.004 15.5864C111.82 15.5191 111.625 15.4925 111.43 15.5087C110.292 15.6067 109.167 15.8277 108.076 16.1679V13.3326C108.092 13.1807 108.162 13.0396 108.273 12.9349C108.384 12.8302 108.529 12.7689 108.681 12.7621H114.013C114.083 12.7611 114.15 12.7328 114.199 12.6832C114.249 12.6335 114.277 12.5665 114.278 12.4963V10.4159C114.278 10.3454 114.25 10.2778 114.2 10.228C114.15 10.1781 114.083 10.1501 114.013 10.1501H108.706C108.553 10.1536 108.405 10.0994 108.29 9.99833C108.176 9.89722 108.103 9.75657 108.087 9.60435V7.31137C108.083 7.27673 108.086 7.24165 108.097 7.20829C108.107 7.17494 108.124 7.14402 108.146 7.11745C108.169 7.09089 108.196 7.06924 108.228 7.05383C108.259 7.03842 108.293 7.02958 108.328 7.02786H112.445C112.517 7.02786 112.585 6.99948 112.636 6.94897C112.686 6.89846 112.714 6.82995 112.714 6.75851V4.68173C112.714 4.61029 112.686 4.54178 112.636 4.49127C112.585 4.44076 112.517 4.41238 112.445 4.41238H108.331C108.294 4.41478 108.256 4.40884 108.221 4.395C108.186 4.38116 108.155 4.35976 108.129 4.33233C108.104 4.30489 108.084 4.27212 108.073 4.23633C108.061 4.20054 108.058 4.16263 108.062 4.12532V0.404113C108.062 0.333289 108.035 0.265308 107.985 0.214897C107.935 0.164486 107.868 0.135698 107.797 0.134766H105.505C105.356 0.134766 105.236 0.255262 105.236 0.577766L105.169 9.56537C105.163 9.71726 105.102 9.86185 104.998 9.97255C104.894 10.0832 104.754 10.1526 104.603 10.1678H98.8187C98.7835 10.1674 98.7486 10.1739 98.716 10.187C98.6834 10.2002 98.6538 10.2197 98.6288 10.2444C98.6038 10.2692 98.5839 10.2986 98.5703 10.3311C98.5568 10.3636 98.5498 10.3984 98.5498 10.4336V12.514C98.5507 12.5848 98.5795 12.6524 98.6298 12.7021C98.6801 12.7519 98.748 12.7798 98.8187 12.7798H104.677C104.803 12.7997 104.919 12.8603 105.008 12.9524C105.097 13.0445 105.153 13.163 105.169 13.2901V17.3941C102.943 18.517 100.864 19.9096 98.9779 21.5406C98.8986 21.6158 98.8443 21.7135 98.8221 21.8206C98.8 21.9276 98.8111 22.039 98.854 22.1395C99.0592 22.6569 99.3847 23.628 99.5969 24.1454C99.6219 24.1915 99.6568 24.2315 99.6991 24.2624C99.7414 24.2934 99.7901 24.3145 99.8415 24.3244C99.8929 24.3342 99.9459 24.3325 99.9966 24.3193C100.047 24.3061 100.094 24.2818 100.135 24.2482C101.631 22.7079 103.325 21.3732 105.172 20.2789V26.1442C105.173 26.2011 105.163 26.2576 105.141 26.3103C105.12 26.363 105.088 26.4108 105.048 26.4509C105.007 26.4909 104.959 26.5224 104.907 26.5434C104.854 26.5644 104.797 26.5745 104.741 26.573C104.295 26.6049 102.848 26.6404 102.848 26.6404C102.777 26.6404 102.708 26.6688 102.658 26.7193C102.607 26.7698 102.579 26.8383 102.579 26.9097L102.056 28.8873C102.055 28.9225 102.062 28.9574 102.075 28.9901C102.088 29.0227 102.107 29.0525 102.132 29.0775C102.157 29.1026 102.186 29.1225 102.219 29.1361C102.251 29.1496 102.286 29.1566 102.321 29.1566H105.788C106.432 29.1319 107.043 28.8678 107.503 28.4159C108.02 27.9339 108.069 27.1436 108.069 26.6829V18.9074C108.787 18.5369 109.546 18.2526 110.33 18.0603C110.469 18.0097 110.62 18.0026 110.764 18.04C110.907 18.0773 111.036 18.1573 111.133 18.2694C111.787 19.0775 112.902 21.2429 112.902 21.2429C112.964 21.3156 113.05 21.3632 113.144 21.3769C113.239 21.3906 113.335 21.3694 113.415 21.3173C113.415 21.3173 114.625 19.8997 114.642 19.8997C114.69 19.8576 114.728 19.8064 114.756 19.7491C114.783 19.6918 114.799 19.6296 114.802 19.5662C114.805 19.5028 114.795 19.4394 114.773 19.3798C114.751 19.3202 114.717 19.2656 114.674 19.2192" fill="white"/>
</g>
<path d="M64.0748 86.1023V105.936C64.0748 106.087 63.9625 106.238 63.7754 106.238H61.7169C60.7812 106.238 59.883 105.747 59.359 104.953L50.0772 90.4845L50.3766 97.7V105.973C50.3766 106.124 50.2643 106.276 50.0772 106.276H47.3824C47.2327 106.276 47.083 106.162 47.083 105.973V86.1023C47.083 85.9512 47.1953 85.8 47.3824 85.8H49.4035C50.3391 85.8 51.2374 86.2912 51.7614 87.0845L61.0432 101.516L60.7438 94.3V86.1023C60.7438 85.9512 60.8561 85.8 61.0432 85.8H63.738C63.9625 85.8 64.0748 85.9134 64.0748 86.1023Z" fill="white"/>
<path d="M91.6955 106.2H88.851C88.6639 106.2 88.5142 106.011 88.589 105.822L96.1493 86.0645C96.2241 85.9134 96.3738 85.8 96.5235 85.8H100.117C100.304 85.8 100.453 85.9134 100.491 86.0645L108.088 105.822C108.163 106.011 108.014 106.2 107.826 106.2H104.982C104.87 106.2 104.757 106.124 104.72 106.011L98.6194 89.7667C98.5446 89.54 98.1703 89.54 98.0955 89.7667L91.9949 106.011C91.92 106.124 91.8077 106.2 91.6955 106.2Z" fill="white"/>
<path d="M127.925 105.747L122.236 98.4178C125.455 97.8134 127.326 95.6223 127.326 92.26C127.326 88.4067 124.856 85.8 120.44 85.8H112.505C112.281 85.8 112.094 85.9889 112.094 86.2156C112.094 87.7267 113.291 88.9356 114.788 88.9356H120.141C122.798 88.9356 124.07 90.2956 124.07 92.2978C124.07 94.3 122.835 95.66 120.141 95.66H112.58C112.356 95.66 112.169 95.8489 112.169 96.0756V105.898C112.169 106.049 112.281 106.2 112.468 106.2H115.163C115.312 106.2 115.462 106.087 115.462 105.898V98.6067H118.569L123.509 105.104C124.033 105.822 124.856 106.2 125.755 106.2H127.813C127.963 106.2 128.075 105.936 127.925 105.747Z" fill="white"/>
<path d="M83.1623 85.8H70.6243C70.3997 85.8 70.25 85.9512 70.25 86.1778C70.25 87.6889 71.4851 88.9356 72.9822 88.9356H83.1623C83.312 88.9356 83.4617 88.8223 83.4617 88.6334V86.0645C83.4243 85.9134 83.312 85.8 83.1623 85.8ZM83.1623 103.064H73.8056C73.6558 103.064 73.5061 102.951 73.5061 102.762V97.6623C73.5061 97.5112 73.6184 97.36 73.8056 97.36H82.4512C82.6009 97.36 82.7506 97.2467 82.7506 97.0578V94.4889C82.7506 94.3378 82.6383 94.1867 82.4512 94.1867H70.6617C70.4371 94.1867 70.25 94.3756 70.25 94.6023V105.747C70.25 105.973 70.4371 106.162 70.6617 106.162H83.1623C83.312 106.162 83.4617 106.049 83.4617 105.86V103.291C83.4243 103.178 83.312 103.064 83.1623 103.064Z" fill="white"/>
<path d="M27.0222 80.7378L19.986 91.2778C19.4994 91.9956 20.4351 92.8644 21.1088 92.26L28.0327 86.1778C28.2199 86.0267 28.4819 86.14 28.4819 86.4044V105.407C28.4819 105.671 28.145 105.784 27.9953 105.596L7.03626 80.2844C6.36257 79.4533 5.38947 79 4.30409 79H3.55556C1.60936 79 0 80.6244 0 82.6267V109.373C0 111.376 1.60936 113 3.59298 113C4.82807 113 5.9883 112.358 6.66199 111.262L13.6982 100.722C14.1848 100.004 13.2491 99.1356 12.5754 99.74L5.65146 105.784C5.46433 105.936 5.20234 105.822 5.20234 105.558V86.5933C5.20234 86.3289 5.53918 86.2156 5.68889 86.4044L26.648 111.716C27.3216 112.547 28.3322 113 29.3801 113H30.1287C32.1123 113 33.7216 111.376 33.7216 109.373V82.6267C33.6842 80.6244 32.0749 79 30.0912 79C28.8561 79 27.6959 79.6422 27.0222 80.7378Z" fill="white"/>
<defs>
<clipPath id="clip0_460_1284">
<rect width="128" height="30" fill="white"/>
</clipPath>
</defs>
</svg>
