<svg width="133" height="35" viewBox="0 0 133 35" fill="none" xmlns="http://www.w3.org/2000/svg">
<path d="M66.5774 7.31111V27.7278C66.5774 27.8833 66.4607 28.0389 66.2663 28.0389H64.1274C63.1552 28.0389 62.2219 27.5333 61.6774 26.7167L52.033 11.8222L52.3441 19.25V27.7667C52.3441 27.9222 52.2274 28.0778 52.033 28.0778H49.233C49.0774 28.0778 48.9219 27.9611 48.9219 27.7667V7.31111C48.9219 7.15556 49.0385 7 49.233 7H51.333C52.3052 7 53.2385 7.50556 53.783 8.32222L63.4274 23.1778L63.1163 15.75V7.31111C63.1163 7.15556 63.233 7 63.4274 7H66.2274C66.4608 7 66.5774 7.11667 66.5774 7.31111Z" fill="white"/>
<path d="M95.2775 28H92.322C92.1275 28 91.972 27.8056 92.0498 27.6111L99.9053 7.27222C99.9831 7.11667 100.139 7 100.294 7H104.028C104.222 7 104.378 7.11667 104.416 7.27222L112.311 27.6111C112.389 27.8056 112.233 28 112.039 28H109.083C108.966 28 108.85 27.9222 108.811 27.8056L102.472 11.0833C102.394 10.85 102.005 10.85 101.928 11.0833L95.5886 27.8056C95.5109 27.9222 95.3942 28 95.2775 28Z" fill="white"/>
<path d="M132.922 27.5333L127.011 19.9889C130.355 19.3667 132.299 17.1111 132.299 13.65C132.299 9.68333 129.733 7 125.144 7H116.899C116.666 7 116.472 7.19444 116.472 7.42778C116.472 8.98333 117.716 10.2278 119.272 10.2278H124.833C127.594 10.2278 128.916 11.6278 128.916 13.6889C128.916 15.75 127.633 17.15 124.833 17.15H116.977C116.744 17.15 116.549 17.3444 116.549 17.5778V27.6889C116.549 27.8444 116.666 28 116.861 28H119.661C119.816 28 119.972 27.8833 119.972 27.6889V20.1833H123.199L128.333 26.8722C128.877 27.6111 129.733 28 130.666 28H132.805C132.961 28 133.077 27.7278 132.922 27.5333Z" fill="white"/>
<path d="M86.4108 7H73.383C73.1497 7 72.9941 7.15556 72.9941 7.38889C72.9941 8.94444 74.2775 10.2278 75.833 10.2278H86.4108C86.5663 10.2278 86.7219 10.1111 86.7219 9.91667V7.27222C86.683 7.11667 86.5663 7 86.4108 7ZM86.4108 24.7722H76.6886C76.533 24.7722 76.3775 24.6556 76.3775 24.4611V19.2111C76.3775 19.0556 76.4941 18.9 76.6886 18.9H85.6719C85.8275 18.9 85.983 18.7833 85.983 18.5889V15.9444C85.983 15.7889 85.8663 15.6333 85.6719 15.6333H73.4219C73.1886 15.6333 72.9941 15.8278 72.9941 16.0611V27.5333C72.9941 27.7667 73.1886 27.9611 73.4219 27.9611H86.4108C86.5663 27.9611 86.7219 27.8444 86.7219 27.65V25.0056C86.683 24.8889 86.5663 24.7722 86.4108 24.7722Z" fill="white"/>
<path d="M28.0778 1.78889L20.7667 12.6389C20.2611 13.3778 21.2333 14.2722 21.9333 13.65L29.1278 7.38889C29.3222 7.23333 29.5944 7.35 29.5944 7.62222V27.1833C29.5944 27.4556 29.2444 27.5722 29.0889 27.3778L7.31111 1.32222C6.61111 0.466667 5.6 0 4.47222 0H3.69444C1.67222 0 0 1.67222 0 3.73333V31.2667C0 33.3278 1.67222 35 3.73333 35C5.01667 35 6.22222 34.3389 6.92222 33.2111L14.2333 22.3611C14.7389 21.6222 13.7667 20.7278 13.0667 21.35L5.87222 27.5722C5.67778 27.7278 5.40556 27.6111 5.40556 27.3389V7.81667C5.40556 7.54444 5.75556 7.42778 5.91111 7.62222L27.6889 33.6778C28.3889 34.5333 29.4389 35 30.5278 35H31.3056C33.3667 35 35.0389 33.3278 35.0389 31.2667V3.73333C35 1.67222 33.3278 0 31.2667 0C29.9833 0 28.7778 0.661111 28.0778 1.78889Z" fill="white"/>
</svg>
