<svg width="236" height="27" viewBox="0 0 236 27" fill="none" xmlns="http://www.w3.org/2000/svg">
<g clip-path="url(#clip0_478_1305)">
<path d="M44.6776 16.8763C44.6695 16.9073 44.6688 16.9397 44.6757 16.971C44.6825 17.0022 44.6967 17.0314 44.717 17.0563C44.7373 17.0811 44.7632 17.1009 44.7926 17.1139C44.822 17.127 44.8541 17.133 44.8863 17.1315C45.3968 17.1315 46.4179 17.1315 46.8674 17.1315C46.9293 17.138 46.9913 17.1208 47.0408 17.0835C47.0903 17.0461 47.1237 16.9914 47.1339 16.9305C47.3743 15.7426 47.3928 14.5209 47.1885 13.3263C47.1689 13.215 47.1085 13.115 47.019 13.0455C46.9294 12.9759 46.8171 12.9419 46.7037 12.9499H44.973C44.7065 12.9499 44.6198 13.0838 44.6519 13.3103C44.7835 14.0184 45.0147 15.6323 44.6679 16.8667" fill="white"/>
<path d="M41.6527 7.42533H39.6041C39.5722 7.42533 39.5406 7.43161 39.5112 7.44383C39.4818 7.45606 39.4551 7.47396 39.4327 7.49651C39.4103 7.51907 39.3926 7.54582 39.3807 7.57521C39.3688 7.60461 39.3629 7.63605 39.3633 7.66773V21.2682C39.3629 21.2999 39.3688 21.3313 39.3807 21.3607C39.3926 21.3901 39.4103 21.4169 39.4327 21.4394C39.4551 21.462 39.4818 21.4799 39.5112 21.4921C39.5406 21.5043 39.5722 21.5106 39.6041 21.5106H52.5475C52.5892 21.5106 52.631 21.5106 52.631 21.2682V8.82875C52.6314 8.79707 52.6255 8.76562 52.6136 8.73622C52.6016 8.70683 52.584 8.68009 52.5616 8.65754C52.5392 8.63498 52.5125 8.61708 52.483 8.60486C52.4536 8.59263 52.422 8.58634 52.3901 8.58634H42.5582C42.3948 8.57568 42.24 8.50972 42.1197 8.39944C41.9993 8.28916 41.9206 8.14123 41.8967 7.98032V7.66136C41.8967 7.59707 41.871 7.53541 41.8253 7.48994C41.7795 7.44448 41.7174 7.41895 41.6527 7.41895V7.42533ZM50.1007 10.8701H49.3815C49.5541 10.8665 49.7223 10.9254 49.8545 11.0357C49.9868 11.1459 50.0743 11.3002 50.1007 11.4697V18.6527C50.0772 18.8066 50.0036 18.9486 49.8911 19.0569C49.7786 19.1652 49.6334 19.2339 49.4778 19.2524H42.5197C42.363 19.2332 42.2169 19.1636 42.1039 19.0541C41.9908 18.9447 41.9169 18.8015 41.8935 18.6464V11.4697C41.9213 11.3002 42.0096 11.1463 42.1423 11.0362C42.275 10.9261 42.4431 10.8671 42.616 10.8701H50.0975H50.1007Z" fill="white"/>
<path d="M38.3707 5.94851H53.8989C53.9625 5.94768 54.0233 5.92221 54.0682 5.87753C54.1132 5.83284 54.1389 5.77247 54.1397 5.70929V3.85293C54.1397 3.78919 54.1144 3.72801 54.0694 3.68264C54.0243 3.63727 53.963 3.61136 53.8989 3.61052H50.7297C50.3572 3.61052 50.3444 3.36492 50.3604 3.17035L50.6173 0.26463C50.6177 0.232948 50.6118 0.201502 50.5999 0.172109C50.588 0.142716 50.5703 0.115963 50.5479 0.0934105C50.5255 0.0708579 50.4988 0.0529516 50.4694 0.0407307C50.4399 0.0285098 50.4084 0.022214 50.3765 0.0222168H48.2604C48.1963 0.0230555 48.135 0.0489652 48.09 0.0943353C48.0449 0.139705 48.0196 0.200888 48.0196 0.26463L47.6985 3.33941C47.6794 3.42005 47.6328 3.49166 47.5668 3.5422C47.5007 3.59274 47.4191 3.61912 47.3357 3.61691H45.1844C45.0901 3.61882 44.9987 3.58487 44.9289 3.52201C44.859 3.45915 44.816 3.37215 44.8087 3.27881L44.5165 0.26463C44.5165 0.200339 44.4908 0.138677 44.445 0.0932159C44.3992 0.0477552 44.3372 0.0222168 44.2725 0.0222168H42.1596C42.0949 0.0222168 42.0329 0.0477552 41.9871 0.0932159C41.9413 0.138677 41.9156 0.200339 41.9156 0.26463L42.1468 3.17674C42.1629 3.37131 42.1468 3.61691 41.7775 3.61691H38.3707C38.3388 3.6169 38.3072 3.62319 38.2778 3.63541C38.2484 3.64763 38.2217 3.66554 38.1993 3.68809C38.1769 3.71064 38.1592 3.7374 38.1473 3.76679C38.1354 3.79618 38.1295 3.82763 38.1299 3.85931V5.73162C38.1299 5.79506 38.1553 5.8559 38.2004 5.90076C38.2456 5.94562 38.3069 5.97084 38.3707 5.97084" fill="white"/>
<path d="M30.4337 3.30754C31.0502 3.87529 32.768 4.96932 34.6079 4.99803H36.0303C36.0945 4.99719 36.1558 4.97128 36.2008 4.92591C36.2459 4.88054 36.2712 4.81936 36.2712 4.75561V2.78763C36.2712 2.72389 36.2459 2.66271 36.2008 2.61734C36.1558 2.57197 36.0945 2.54606 36.0303 2.54522H34.7106C33.6382 2.54522 32.9831 2.09868 32.2286 1.44162L32.0231 1.25343C31.9501 1.18055 31.8531 1.13623 31.7499 1.12862C31.6467 1.121 31.5442 1.1506 31.4612 1.21197C31.4612 1.21197 30.5814 1.97747 30.2121 2.25497L29.952 2.44954C29.9239 2.47421 29.9016 2.5047 29.8866 2.53886C29.8716 2.57303 29.8644 2.61004 29.8653 2.64729C29.8655 2.71946 29.893 2.78892 29.9424 2.84185C30.0965 3.00133 30.4208 3.30754 30.4208 3.30754" fill="white"/>
<path d="M55.2091 23.3446C52.361 24.0177 48.145 24.1197 44.8409 24.1197C40.8722 24.1197 38.3131 23.4435 35.4874 22.2347L35.3911 22.19C34.8806 21.9317 34.8356 21.9093 34.7682 21.7243C34.7406 21.6579 34.7282 21.5862 34.7321 21.5145C34.736 21.4427 34.756 21.3728 34.7907 21.3097L34.8356 21.2363L36.0494 18.8888C36.0888 18.7975 36.122 18.7037 36.1489 18.6081C36.1709 18.5027 36.187 18.3963 36.1971 18.2891V8.0505C36.1962 7.98676 36.1701 7.92592 36.1245 7.88115C36.0788 7.83638 36.0172 7.81127 35.953 7.81128H29.3417C29.2775 7.81127 29.2159 7.83638 29.1703 7.88115C29.1246 7.92592 29.0985 7.98676 29.0977 8.0505V9.89409C29.0977 9.95838 29.1234 10.02 29.1691 10.0655C29.2149 10.111 29.277 10.1365 29.3417 10.1365L32.7999 10.1652C33.0141 10.1616 33.2226 10.2348 33.387 10.3712C33.5515 10.5076 33.6611 10.6983 33.6957 10.9084V18.0786C33.6895 18.1862 33.6733 18.2929 33.6476 18.3976C33.6155 18.4941 33.5736 18.5871 33.5223 18.6751L32.5976 20.4102C32.5246 20.5863 32.3947 20.7333 32.2283 20.8281C32.0363 20.9072 31.8242 20.9251 31.6215 20.8791C30.7288 20.7132 30.2632 20.5856 29.7495 20.4995C29.6824 20.48 29.6111 20.48 29.544 20.4995C29.5148 20.5202 29.4917 20.5483 29.477 20.5808C29.4624 20.6133 29.4567 20.6491 29.4605 20.6845V22.5983C29.4725 22.6706 29.5039 22.7384 29.5513 22.7945C29.5988 22.8506 29.6606 22.893 29.7302 22.9172C34.6494 24.4004 39.1576 26.5789 44.6547 26.5789C49.7569 26.5789 53.822 26.26 55.2509 25.9027C55.3087 25.9027 55.344 25.8613 55.344 25.7751V23.4308C55.3429 23.4156 55.3386 23.4008 55.3313 23.3874C55.3241 23.374 55.3141 23.3622 55.302 23.3529C55.2898 23.3435 55.2759 23.3369 55.261 23.3332C55.2461 23.3296 55.2306 23.3292 55.2155 23.3319" fill="white"/>
<path d="M16.8699 5.42871H6.80039C6.73678 5.42954 6.67601 5.45501 6.63102 5.49969C6.58604 5.54438 6.5604 5.60474 6.55957 5.66793V7.55299C6.5604 7.61618 6.58604 7.67654 6.63102 7.72123C6.67601 7.76591 6.73678 7.79138 6.80039 7.79221H16.8699C16.9338 7.79221 16.9951 7.76701 17.0402 7.72214C17.0854 7.67728 17.1108 7.61643 17.1108 7.55299V5.66793C17.1108 5.60449 17.0854 5.54364 17.0402 5.49878C16.9951 5.45391 16.9338 5.42871 16.8699 5.42871Z" fill="white"/>
<path d="M16.8699 10.0281H6.80039C6.66874 10.0281 6.55957 10.0887 6.55957 10.1653V20.372C6.55957 20.4354 6.58494 20.4963 6.6301 20.5411C6.67527 20.586 6.73652 20.6112 6.80039 20.6112H16.8699C16.9018 20.6116 16.9335 20.6058 16.9631 20.5939C16.9927 20.5821 17.0196 20.5645 17.0423 20.5423C17.065 20.52 17.083 20.4935 17.0953 20.4643C17.1076 20.435 17.114 20.4037 17.114 20.372V10.2673C17.114 10.2356 17.1076 10.2043 17.0953 10.175C17.083 10.1458 17.065 10.1193 17.0423 10.097C17.0196 10.0748 16.9927 10.0572 16.9631 10.0454C16.9335 10.0336 16.9018 10.0277 16.8699 10.0281ZM14.648 17.664C14.628 17.8157 14.5573 17.9563 14.4473 18.0633C14.3372 18.1703 14.1942 18.2375 14.0411 18.2541H9.65493C9.49354 18.2388 9.34213 18.1697 9.22548 18.0578C9.10882 17.946 9.03382 17.7982 9.01274 17.6385V13.0391C9.01861 12.8594 9.09591 12.6894 9.22771 12.5663C9.35951 12.4431 9.53507 12.3769 9.71594 12.382H13.9416C14.107 12.3795 14.268 12.4356 14.3957 12.5402C14.5233 12.6448 14.6094 12.7911 14.6383 12.953L14.648 17.664Z" fill="white"/>
<path d="M23.2573 0.542236H2.06506H0.411414C0.0903189 0.542236 0.00683594 0.746372 0.00683594 1.00154V25.8805C0.00768026 25.9442 0.0337633 26.005 0.079437 26.0498C0.125111 26.0946 0.186698 26.1197 0.250866 26.1197H2.36046C2.39899 26.1197 2.53385 26.1197 2.53385 25.8805V3.80201C2.56313 3.60443 2.65918 3.42261 2.80622 3.2864C2.95325 3.15019 3.14255 3.06769 3.34301 3.05245H20.1716C20.369 3.06817 20.5554 3.14887 20.7014 3.28175C20.8474 3.41464 20.9446 3.59212 20.9775 3.78607V19.9956C20.9775 20.876 21.0032 22.2028 19.6707 23.4181C19.4074 23.6764 17.818 24.914 17.818 24.914C17.7929 24.9336 17.7721 24.9579 17.7566 24.9855C17.7411 25.0132 17.7312 25.0436 17.7276 25.0751C17.7241 25.1065 17.7268 25.1383 17.7357 25.1687C17.7446 25.1991 17.7594 25.2275 17.7794 25.2521L18.8262 26.9107C18.8488 26.939 18.8776 26.9617 18.9105 26.9772C18.9433 26.9927 18.9793 27.0005 19.0157 27C19.0702 26.9998 19.1232 26.9819 19.1666 26.949C19.1666 26.949 20.7721 25.8071 21.3886 25.2362C21.9023 24.7705 23.4275 23.2458 23.4949 20.0945V0.781457C23.4949 0.718011 23.4696 0.657163 23.4244 0.612301C23.3792 0.567438 23.318 0.542236 23.2541 0.542236" fill="white"/>
<path d="M83.8604 22.3272C83.0544 20.5665 81.1632 17.1441 78.0807 14.9114C75.3835 12.9561 73.6753 12.7584 73.4826 12.6627C73.3445 12.5925 73.3349 12.4585 73.3381 12.2416L73.4055 8.66291C73.4342 8.55269 73.4965 8.45399 73.5839 8.38032C73.6713 8.30666 73.7795 8.26165 73.8936 8.25146H83.8732C83.9451 8.25062 84.0137 8.22168 84.0642 8.17093C84.1146 8.12017 84.143 8.05169 84.143 7.98034V6.13675C84.1421 6.06595 84.1134 5.99828 84.063 5.94821C84.0126 5.89814 83.9445 5.86965 83.8732 5.86882H73.961C73.8204 5.86285 73.6869 5.8055 73.5861 5.70779C73.4854 5.61009 73.4245 5.47889 73.4152 5.33935L73.2899 0.475201C73.2899 0.404142 73.2615 0.335996 73.2109 0.28575C73.1604 0.235504 73.0918 0.207275 73.0202 0.207275H70.962C70.8907 0.208104 70.8226 0.236597 70.7722 0.286665C70.7218 0.336733 70.6931 0.404399 70.6923 0.475201V5.41909C70.6703 5.53614 70.6109 5.64306 70.523 5.72405C70.4352 5.80504 70.3234 5.85579 70.2042 5.86882H59.9292C59.8573 5.86882 59.7884 5.89694 59.7373 5.94709C59.6862 5.99725 59.6571 6.0654 59.6562 6.13675V7.98034C59.6562 8.01594 59.6633 8.0512 59.677 8.08409C59.6907 8.11698 59.7108 8.14687 59.7362 8.17205C59.7615 8.19722 59.7916 8.2172 59.8247 8.23082C59.8578 8.24444 59.8933 8.25146 59.9292 8.25146H70.2299C70.3484 8.26628 70.459 8.31865 70.5452 8.40081C70.6313 8.48298 70.6886 8.59055 70.7083 8.70757V11.9929C70.7088 12.0286 70.702 12.064 70.6884 12.0971C70.6749 12.1302 70.6548 12.1603 70.6294 12.1855C70.6039 12.2108 70.5737 12.2307 70.5404 12.2442C70.5071 12.2577 70.4714 12.2644 70.4354 12.264C70.4354 12.264 68.5923 12.2353 67.9694 12.2959C66.6112 12.433 64.5851 12.9338 62.986 14.3851C61.2296 15.9799 60.536 17.3482 60.0961 19.2843C59.8659 20.2253 59.8513 21.2057 60.0536 22.1531C60.2559 23.1004 60.6699 23.9905 61.2649 24.7577C62.697 26.5821 67.2212 27.9919 69.9345 25.4466C72.7441 22.812 73.3381 18.2891 73.3381 15.1442C73.3381 15.007 73.4505 14.9624 73.6143 15.0166C75.4028 15.6162 78.3697 17.9829 80.0586 20.8695C81.2306 22.7131 82.0912 24.6779 82.3063 25.0511C82.3306 25.1113 82.3701 25.1644 82.421 25.2051C82.4719 25.2459 82.5324 25.273 82.5968 25.2838C82.6613 25.2947 82.7274 25.289 82.789 25.2672C82.8505 25.2455 82.9055 25.2084 82.9485 25.1595C83.2439 24.9235 84.3163 24.1102 84.3163 24.1102C84.5026 23.9411 84.5475 23.8231 84.3806 23.5137C84.3388 23.4404 83.8797 22.4133 83.8411 22.3272H83.8604ZM68.6244 23.3415C67.3689 24.7896 64.8805 24.9107 63.4869 23.6349C62.0934 22.3591 61.7273 18.2732 64.9768 15.6418C67.096 13.9258 70.5638 14.4712 70.5638 14.4712C70.7116 14.4967 70.7244 14.5956 70.7212 14.7327C70.7212 15.8905 70.7501 20.9078 68.6405 23.3447" fill="white"/>
<path d="M116.076 24.6302C115.327 23.871 113.24 22.1072 111.866 19.9319C111.829 19.8724 111.81 19.804 111.81 19.7341C111.81 19.6643 111.829 19.5958 111.866 19.5364C113.362 16.7487 114.955 13.2178 115.032 6.27719V4.22945C115.031 4.16572 115.005 4.10488 114.959 4.0601C114.914 4.01533 114.852 3.99023 114.788 3.99023H105.833C105.768 3.99023 105.707 4.01533 105.661 4.0601C105.616 4.10488 105.589 4.16572 105.589 4.22945V6.10175C105.589 6.13344 105.595 6.16481 105.607 6.19405C105.62 6.22328 105.638 6.24979 105.66 6.27205C105.683 6.2943 105.71 6.31186 105.74 6.32369C105.769 6.33553 105.801 6.34139 105.833 6.34097H112.293C112.531 6.34097 112.576 6.4877 112.56 6.7333C112.56 6.7333 112.56 7.07139 112.56 7.11924C112.56 7.79862 112.56 13.1348 110.453 17.2239C110.444 17.2538 110.425 17.2801 110.4 17.2995C110.375 17.3188 110.345 17.3303 110.314 17.3323C110.282 17.3344 110.251 17.327 110.223 17.3111C110.196 17.2951 110.174 17.2714 110.161 17.243C108.706 14.6371 108.379 12.4586 108.09 9.30092C108.09 9.19886 108.048 8.99792 107.836 8.99792H105.849C105.637 8.99792 105.601 9.11912 105.608 9.17973C106.138 15.1762 107.233 16.9081 108.626 19.53C108.659 19.5855 108.677 19.6489 108.677 19.7134C108.677 19.7779 108.659 19.8412 108.626 19.8968C107.43 21.6542 105.98 23.2276 104.324 24.5664C104.296 24.5904 104.273 24.6197 104.257 24.6526C104.24 24.6855 104.231 24.7213 104.229 24.7578C104.227 24.7944 104.232 24.831 104.245 24.8655C104.257 24.9 104.276 24.9317 104.301 24.9587L105.566 26.1612C105.622 26.2161 105.697 26.247 105.775 26.247C105.853 26.247 105.928 26.2161 105.984 26.1612C107.551 24.9233 108.946 23.4827 110.129 21.8775C110.139 21.8648 110.153 21.8546 110.168 21.8476C110.183 21.8406 110.199 21.8369 110.216 21.8369C110.232 21.8369 110.249 21.8406 110.264 21.8476C110.279 21.8546 110.292 21.8648 110.302 21.8775C111.525 23.4469 112.908 24.8867 114.428 26.1739C114.498 26.238 114.59 26.2736 114.685 26.2736C114.78 26.2736 114.872 26.238 114.942 26.1739C114.942 26.1739 115.986 25.233 116.124 25.0927C116.155 25.0654 116.179 25.032 116.196 24.9946C116.213 24.9573 116.222 24.9167 116.222 24.8758C116.222 24.8348 116.213 24.7943 116.196 24.7569C116.179 24.7195 116.155 24.6861 116.124 24.6589" fill="white"/>
<path d="M104.095 17.3101C104.095 17.3101 102.859 15.1412 102.105 14.3087C101.979 14.1843 101.828 14.0884 101.662 14.0278C101.495 13.9672 101.318 13.9433 101.141 13.9578C100.108 14.0461 99.0875 14.245 98.0973 14.5511V11.9994C98.1118 11.8627 98.1751 11.7357 98.2759 11.6415C98.3767 11.5472 98.5081 11.492 98.6464 11.4859H103.485C103.549 11.4851 103.61 11.4596 103.655 11.4149C103.7 11.3702 103.725 11.3099 103.726 11.2467V9.37438C103.726 9.31094 103.701 9.25009 103.656 9.20523C103.61 9.16037 103.549 9.13516 103.485 9.13516H98.6688C98.5302 9.13832 98.3954 9.08955 98.2913 8.99855C98.1872 8.90755 98.1214 8.78096 98.1069 8.64396V6.58029C98.1034 6.5491 98.1063 6.51753 98.1155 6.48751C98.1247 6.4575 98.14 6.42967 98.1605 6.40576C98.181 6.38185 98.2061 6.36236 98.2345 6.34849C98.2628 6.33462 98.2937 6.32667 98.3253 6.32512H102.063C102.128 6.32512 102.19 6.29958 102.235 6.25412C102.281 6.20866 102.307 6.147 102.307 6.08271V4.21361C102.307 4.14931 102.281 4.08765 102.235 4.04219C102.19 3.99673 102.128 3.97119 102.063 3.97119H98.3285C98.2945 3.97335 98.2604 3.96801 98.2287 3.95555C98.197 3.94309 98.1685 3.92383 98.1452 3.89914C98.1218 3.87445 98.1043 3.84495 98.0938 3.81274C98.0833 3.78054 98.0801 3.74642 98.0844 3.71284V0.363751C98.0844 0.300009 98.0592 0.238826 98.0141 0.193456C97.969 0.148086 97.9078 0.122177 97.8436 0.121338H95.7629C95.6281 0.121338 95.5189 0.229784 95.5189 0.520038L95.4579 8.60888C95.4524 8.74558 95.3974 8.87572 95.303 8.97534C95.2086 9.07497 95.0812 9.13738 94.9441 9.15111H89.6942C89.6623 9.15069 89.6307 9.15656 89.6011 9.1684C89.5715 9.18023 89.5446 9.19779 89.5219 9.22004C89.4992 9.2423 89.4811 9.26881 89.4688 9.29804C89.4565 9.32727 89.4502 9.35864 89.4502 9.39033V11.2626C89.451 11.3264 89.4771 11.3872 89.5228 11.432C89.5685 11.4768 89.6301 11.5019 89.6942 11.5019H95.0116C95.1261 11.5198 95.2317 11.5743 95.3122 11.6572C95.3928 11.7401 95.4439 11.8468 95.4579 11.9612V15.6547C93.4381 16.6654 91.5509 17.9187 89.8387 19.3866C89.7668 19.4542 89.7175 19.5422 89.6974 19.6386C89.6773 19.7349 89.6874 19.8351 89.7263 19.9256C89.9126 20.3913 90.208 21.2652 90.4006 21.7309C90.4233 21.7724 90.455 21.8084 90.4934 21.8362C90.5318 21.8641 90.5759 21.8831 90.6226 21.892C90.6693 21.9008 90.7174 21.8993 90.7634 21.8874C90.8094 21.8756 90.8522 21.8537 90.8887 21.8234C92.2473 20.4372 93.7848 19.236 95.4611 18.2511V23.5299C95.462 23.581 95.4524 23.6319 95.433 23.6793C95.4136 23.7267 95.3847 23.7698 95.3481 23.8058C95.3115 23.8419 95.268 23.8702 95.2201 23.8891C95.1722 23.908 95.1209 23.9171 95.0694 23.9158C94.6648 23.9445 93.3515 23.9764 93.3515 23.9764C93.2868 23.9764 93.2247 24.0019 93.1789 24.0474C93.1332 24.0929 93.1075 24.1545 93.1075 24.2188L92.6323 25.9986C92.6318 26.0303 92.6377 26.0617 92.6497 26.0911C92.6616 26.1205 92.6792 26.1473 92.7016 26.1698C92.724 26.1924 92.7507 26.2103 92.7802 26.2225C92.8096 26.2347 92.8412 26.241 92.8731 26.241H96.0198C96.6043 26.2187 97.1594 25.9811 97.5771 25.5744C98.0459 25.1406 98.0909 24.4293 98.0909 24.0147V17.0167C98.7422 16.6833 99.4309 16.4274 100.143 16.2544C100.269 16.2088 100.406 16.2024 100.537 16.236C100.667 16.2696 100.783 16.3416 100.872 16.4425C101.466 17.1698 102.477 19.1186 102.477 19.1186C102.533 19.184 102.611 19.2269 102.697 19.2393C102.783 19.2516 102.87 19.2325 102.943 19.1856C102.943 19.1856 104.041 17.9098 104.057 17.9098C104.1 17.8719 104.135 17.8258 104.16 17.7743C104.185 17.7227 104.199 17.6667 104.202 17.6096C104.204 17.5525 104.195 17.4955 104.175 17.4418C104.156 17.3882 104.125 17.3391 104.086 17.2974" fill="white"/>
</g>
<g clip-path="url(#clip1_478_1305)">
<path d="M184.559 5.6399V21.3899C184.559 21.5099 184.469 21.6299 184.32 21.6299H182.675C181.927 21.6299 181.21 21.2399 180.791 20.6099L173.375 9.1199L173.614 14.8499V21.4199C173.614 21.5399 173.524 21.6599 173.375 21.6599H171.222C171.102 21.6599 170.982 21.5699 170.982 21.4199V5.6399C170.982 5.5199 171.072 5.3999 171.222 5.3999H172.836C173.584 5.3999 174.302 5.7899 174.72 6.4199L182.137 17.8799L181.897 12.1499V5.6399C181.897 5.5199 181.987 5.3999 182.137 5.3999H184.29C184.469 5.3999 184.559 5.4899 184.559 5.6399Z" fill="white"/>
<path d="M206.629 21.5999H204.356C204.206 21.5999 204.087 21.4499 204.147 21.2999L210.187 5.6099C210.247 5.4899 210.367 5.3999 210.486 5.3999H213.357C213.507 5.3999 213.626 5.4899 213.656 5.6099L219.727 21.2999C219.787 21.4499 219.667 21.5999 219.517 21.5999H217.245C217.155 21.5999 217.065 21.5399 217.035 21.4499L212.161 8.5499C212.101 8.3699 211.802 8.3699 211.742 8.5499L206.868 21.4499C206.808 21.5399 206.718 21.5999 206.629 21.5999Z" fill="white"/>
<path d="M235.575 21.2399L231.03 15.4199C233.602 14.9399 235.097 13.1999 235.097 10.5299C235.097 7.4699 233.123 5.3999 229.594 5.3999H223.255C223.075 5.3999 222.926 5.5499 222.926 5.7299C222.926 6.9299 223.883 7.8899 225.079 7.8899H229.355C231.478 7.8899 232.495 8.9699 232.495 10.5599C232.495 12.1499 231.508 13.2299 229.355 13.2299H223.315C223.135 13.2299 222.986 13.3799 222.986 13.5599V21.3599C222.986 21.4799 223.075 21.5999 223.225 21.5999H225.378C225.498 21.5999 225.617 21.5099 225.617 21.3599V15.5699H228.099L232.047 20.7299C232.465 21.2999 233.123 21.5999 233.841 21.5999H235.486C235.605 21.5999 235.695 21.3899 235.575 21.2399Z" fill="white"/>
<path d="M199.81 5.3999H189.792C189.613 5.3999 189.493 5.5199 189.493 5.6999C189.493 6.8999 190.48 7.8899 191.676 7.8899H199.81C199.93 7.8899 200.049 7.7999 200.049 7.6499V5.6099C200.019 5.4899 199.93 5.3999 199.81 5.3999ZM199.81 19.1099H192.334C192.214 19.1099 192.095 19.0199 192.095 18.8699V14.8199C192.095 14.6999 192.185 14.5799 192.334 14.5799H199.242C199.362 14.5799 199.481 14.4899 199.481 14.3399V12.2999C199.481 12.1799 199.391 12.0599 199.242 12.0599H189.822C189.643 12.0599 189.493 12.2099 189.493 12.3899V21.2399C189.493 21.4199 189.643 21.5699 189.822 21.5699H199.81C199.93 21.5699 200.049 21.4799 200.049 21.3299V19.2899C200.019 19.1999 199.93 19.1099 199.81 19.1099Z" fill="white"/>
<path d="M154.954 1.38L149.332 9.75C148.943 10.32 149.691 11.01 150.229 10.53L155.762 5.7C155.911 5.58 156.12 5.67 156.12 5.88V20.97C156.12 21.18 155.851 21.27 155.732 21.12L138.985 1.02C138.447 0.36 137.67 0 136.802 0H136.204C134.649 0 133.363 1.29 133.363 2.88V24.12C133.363 25.71 134.649 27 136.234 27C137.221 27 138.148 26.49 138.686 25.62L144.308 17.25C144.697 16.68 143.949 15.99 143.411 16.47L137.879 21.27C137.729 21.39 137.52 21.3 137.52 21.09V6.03C137.52 5.82 137.789 5.73 137.909 5.88L154.655 25.98C155.193 26.64 156.001 27 156.838 27H157.436C159.021 27 160.307 25.71 160.307 24.12V2.88C160.277 1.29 158.991 0 157.406 0C156.42 0 155.492 0.51 154.954 1.38Z" fill="white"/>
</g>
<defs>
<clipPath id="clip0_478_1305">
<rect width="116.182" height="27" fill="white"/>
</clipPath>
<clipPath id="clip1_478_1305">
<rect width="102.273" height="27" fill="white" transform="translate(133.363)"/>
</clipPath>
</defs>
</svg>
