<svg width="434" height="104" viewBox="0 0 434 104" fill="none" xmlns="http://www.w3.org/2000/svg">
<path d="M2.322 66.756H26.472L26.196 74.07H23.574L22.654 69.884H17.502V91.826L21.412 92.93V95H7.428V92.93L11.292 91.826V69.884H6.048L5.174 74.07H2.644L2.322 66.756ZM43.3109 66.756C46.7762 66.756 49.5669 67.3233 51.6829 68.458C53.8295 69.5927 55.3935 71.1873 56.3749 73.242C57.3562 75.266 57.8469 77.612 57.8469 80.28C57.8469 82.948 57.3869 85.4013 56.4669 87.64C55.5469 89.8787 54.0749 91.6727 52.0509 93.022C50.0575 94.3407 47.4355 95 44.1849 95H30.7529V92.93L34.6169 91.826V69.884L30.7069 68.826V66.756H43.3109ZM43.2649 69.608C42.6822 69.608 42.1915 69.6387 41.7929 69.7C41.4249 69.7613 41.1029 69.8227 40.8269 69.884V91.826C41.3482 91.9793 41.9155 92.1173 42.5289 92.24C43.1729 92.332 43.8015 92.378 44.4149 92.378C45.8562 92.378 47.0215 92.056 47.9109 91.412C48.8309 90.7373 49.5362 89.8327 50.0269 88.698C50.5175 87.5327 50.8549 86.2293 51.0389 84.788C51.2229 83.3467 51.3149 81.844 51.3149 80.28C51.3149 78.1947 50.9929 76.3547 50.3489 74.76C49.7049 73.1347 48.7695 71.8773 47.5429 70.988C46.3469 70.068 44.9209 69.608 43.2649 69.608ZM83.9875 92.746V95H64.3915V92.746L71.8435 91.458V70.712H64.6215V68.504L77.6395 66.526V91.504L83.9875 92.746ZM88.6687 95L87.5647 91.78L97.5927 81.522C98.6353 80.5407 99.4787 79.3753 100.123 78.026C100.797 76.6767 101.135 75.3887 101.135 74.162C101.135 72.966 100.736 71.9693 99.9387 71.172C99.1413 70.3747 97.838 69.976 96.0287 69.976C94.9553 69.976 93.928 70.16 92.9467 70.528C91.996 70.8653 90.984 71.2333 89.9107 71.632L88.5307 68.596C89.8493 67.952 91.306 67.3693 92.9007 66.848C94.4953 66.3267 96.2587 66.066 98.1907 66.066C100 66.066 101.625 66.296 103.067 66.756C104.508 67.216 105.643 67.998 106.471 69.102C107.329 70.1753 107.759 71.6473 107.759 73.518C107.759 75.5113 107.222 77.3207 106.149 78.946C105.106 80.5713 103.573 82.35 101.549 84.282L93.4527 91.55L104.263 90.952L106.103 87.272H108.817L108.173 95H88.6687Z" fill="#FFED19"/>
<path d="M154.983 87.548L154.615 95H135.065L134.237 93.482L148.313 69.884H139.297L138.193 73.472H135.525L135.065 66.756H155.121L155.351 68.274L141.505 91.826H150.659L152.407 87.548H154.983ZM173.889 66.112C177.231 66.112 179.915 66.7713 181.939 68.09C183.963 69.4087 185.419 71.172 186.309 73.38C187.229 75.588 187.689 78.026 187.689 80.694C187.689 83.362 187.229 85.8153 186.309 88.054C185.389 90.2927 183.917 92.0867 181.893 93.436C179.869 94.7547 177.201 95.414 173.889 95.414C170.638 95.414 167.985 94.7547 165.931 93.436C163.876 92.0867 162.358 90.2927 161.377 88.054C160.426 85.8153 159.951 83.362 159.951 80.694C159.951 78.026 160.426 75.588 161.377 73.38C162.327 71.172 163.815 69.4087 165.839 68.09C167.893 66.7713 170.577 66.112 173.889 66.112ZM181.019 80.694C181.019 79.5287 180.927 78.2867 180.743 76.968C180.559 75.6493 180.206 74.4227 179.685 73.288C179.194 72.1227 178.458 71.172 177.477 70.436C176.495 69.7 175.207 69.332 173.613 69.332C172.079 69.332 170.853 69.7 169.933 70.436C169.013 71.172 168.307 72.1227 167.817 73.288C167.357 74.4227 167.035 75.6493 166.851 76.968C166.697 78.2867 166.621 79.5287 166.621 80.694C166.621 81.9513 166.713 83.2547 166.897 84.604C167.081 85.9227 167.433 87.1647 167.955 88.33C168.476 89.4647 169.227 90.3847 170.209 91.09C171.19 91.7953 172.478 92.148 174.073 92.148C175.606 92.148 176.833 91.78 177.753 91.044C178.703 90.308 179.409 89.3727 179.869 88.238C180.329 87.0727 180.635 85.8307 180.789 84.512C180.942 83.1627 181.019 81.89 181.019 80.694ZM205.587 66.756C209.052 66.756 211.843 67.3233 213.959 68.458C216.105 69.5927 217.669 71.1873 218.651 73.242C219.632 75.266 220.123 77.612 220.123 80.28C220.123 82.948 219.663 85.4013 218.743 87.64C217.823 89.8787 216.351 91.6727 214.327 93.022C212.333 94.3407 209.711 95 206.461 95H193.029V92.93L196.893 91.826V69.884L192.983 68.826V66.756H205.587ZM205.541 69.608C204.958 69.608 204.467 69.6387 204.069 69.7C203.701 69.7613 203.379 69.8227 203.103 69.884V91.826C203.624 91.9793 204.191 92.1173 204.805 92.24C205.449 92.332 206.077 92.378 206.691 92.378C208.132 92.378 209.297 92.056 210.187 91.412C211.107 90.7373 211.812 89.8327 212.303 88.698C212.793 87.5327 213.131 86.2293 213.315 84.788C213.499 83.3467 213.591 81.844 213.591 80.28C213.591 78.1947 213.269 76.3547 212.625 74.76C211.981 73.1347 211.045 71.8773 209.819 70.988C208.623 70.068 207.197 69.608 205.541 69.608ZM225.471 95V92.93L229.335 91.826V69.884L225.425 68.826V66.756H239.455V68.826L235.545 69.884V91.826L239.455 92.93V95H225.471ZM249.897 91.872L253.025 92.93V95H242.905V92.976L246.171 91.826L254.865 66.756L258.453 66.158L267.883 91.826L271.149 92.93V95H258.361V92.93L261.351 92.01L260.017 87.962H251.185L249.897 91.872ZM255.417 75.542L252.059 85.478H259.097L255.417 75.542ZM296.806 94.034C295.487 94.494 294.168 94.8467 292.85 95.092C291.531 95.368 289.967 95.506 288.158 95.506C284.876 95.506 282.224 94.8313 280.2 93.482C278.176 92.1327 276.688 90.3387 275.738 88.1C274.818 85.8307 274.358 83.3467 274.358 80.648C274.358 77.98 274.818 75.542 275.738 73.334C276.658 71.126 278.13 69.3627 280.154 68.044C282.178 66.7253 284.846 66.066 288.158 66.066C290.151 66.066 291.807 66.204 293.126 66.48C294.444 66.756 295.671 67.0627 296.806 67.4L296.3 74.438H294L292.85 69.93C292.328 69.7153 291.7 69.562 290.964 69.47C290.258 69.378 289.614 69.332 289.032 69.332C287.345 69.332 285.965 69.654 284.892 70.298C283.818 70.9113 282.99 71.7547 282.408 72.828C281.825 73.9013 281.426 75.1127 281.212 76.462C280.997 77.8113 280.89 79.2067 280.89 80.648C280.89 82.028 281.012 83.3927 281.258 84.742C281.503 86.0913 281.917 87.3333 282.5 88.468C283.082 89.572 283.895 90.4613 284.938 91.136C285.98 91.78 287.284 92.102 288.848 92.102C290.136 92.102 291.47 91.9027 292.85 91.504L294 87.548H296.438L296.806 94.034ZM344.54 94.034C343.221 94.494 341.902 94.8467 340.584 95.092C339.265 95.368 337.701 95.506 335.892 95.506C332.61 95.506 329.958 94.8313 327.934 93.482C325.91 92.1327 324.422 90.3387 323.472 88.1C322.552 85.8307 322.092 83.3467 322.092 80.648C322.092 77.98 322.552 75.542 323.472 73.334C324.392 71.126 325.864 69.3627 327.888 68.044C329.912 66.7253 332.58 66.066 335.892 66.066C337.885 66.066 339.541 66.204 340.86 66.48C342.178 66.756 343.405 67.0627 344.54 67.4L344.034 74.438H341.734L340.584 69.93C340.062 69.7153 339.434 69.562 338.698 69.47C337.992 69.378 337.348 69.332 336.766 69.332C335.079 69.332 333.699 69.654 332.626 70.298C331.552 70.9113 330.724 71.7547 330.142 72.828C329.559 73.9013 329.16 75.1127 328.946 76.462C328.731 77.8113 328.624 79.2067 328.624 80.648C328.624 82.028 328.746 83.3927 328.992 84.742C329.237 86.0913 329.651 87.3333 330.234 88.468C330.816 89.572 331.629 90.4613 332.672 91.136C333.714 91.78 335.018 92.102 336.582 92.102C337.87 92.102 339.204 91.9027 340.584 91.504L341.734 87.548H344.172L344.54 94.034ZM370.569 95H349.823V92.93L353.687 91.826V69.884L349.823 68.826V66.756H363.807V68.826L359.897 69.884V91.826H366.797L367.993 87.548H370.569V95ZM399.421 84.144C399.421 84.8493 399.344 85.6927 399.191 86.674C399.037 87.6247 398.746 88.6213 398.317 89.664C397.887 90.676 397.274 91.6267 396.477 92.516C395.679 93.3747 394.637 94.08 393.349 94.632C392.061 95.1533 390.466 95.414 388.565 95.414C386.173 95.414 384.241 95.092 382.769 94.448C381.297 93.7733 380.162 92.8533 379.365 91.688C378.567 90.492 378.015 89.1427 377.709 87.64C377.433 86.1067 377.295 84.4967 377.295 82.81V69.884L373.385 68.826V66.756H387.415V68.826L383.505 69.884V82.81C383.505 84.558 383.627 86.1373 383.873 87.548C384.149 88.9587 384.716 90.078 385.575 90.906C386.433 91.7033 387.737 92.102 389.485 92.102C391.018 92.102 392.26 91.734 393.211 90.998C394.161 90.262 394.851 89.2653 395.281 88.008C395.741 86.7507 395.971 85.3247 395.971 83.73V69.884L392.061 68.826V66.756H403.331V68.826L399.421 69.884V84.144ZM423.485 80.096C426.03 80.4333 427.885 81.2613 429.051 82.58C430.216 83.868 430.799 85.4167 430.799 87.226C430.799 89.5567 429.879 91.4427 428.039 92.884C426.199 94.2947 423.393 95 419.621 95H407.477V92.93L411.341 91.826V69.884L407.431 68.826V66.756H420.035C423.684 66.756 426.26 67.4 427.763 68.688C429.296 69.9453 430.063 71.6013 430.063 73.656C430.063 75.4347 429.434 76.876 428.177 77.98C426.95 79.0533 425.386 79.7587 423.485 80.096ZM418.885 79.222C419.682 79.222 420.449 79.084 421.185 78.808C421.951 78.5013 422.58 77.9647 423.071 77.198C423.592 76.4007 423.853 75.2813 423.853 73.84C423.853 72.3373 423.485 71.2487 422.749 70.574C422.013 69.8993 421.031 69.562 419.805 69.562C419.161 69.562 418.624 69.6233 418.195 69.746C417.765 69.838 417.551 69.884 417.551 69.884V79.222H418.885ZM417.551 91.826C417.857 91.918 418.21 91.9947 418.609 92.056C419.007 92.0867 419.406 92.102 419.805 92.102C421.154 92.102 422.258 91.688 423.117 90.86C423.975 90.032 424.405 88.7287 424.405 86.95C424.405 85.1407 423.853 83.822 422.749 82.994C421.645 82.1353 420.326 81.706 418.793 81.706H417.551V91.826Z" fill="white"/>
<path d="M37.9774 0.150769C38.8498 0.150769 40.2971 0.894564 42.3194 2.38215C43.9055 3.5481 44.7085 4.13108 44.7283 4.13108C44.9464 4.3321 45.0554 4.55323 45.0554 4.79446V4.91508C45.0554 5.1362 44.8472 5.47795 44.4309 5.94031C44.2128 6.16144 44.1037 6.62379 44.1037 7.32738V43.6628C44.1037 44.8287 43.5784 46.055 42.5276 47.3415C41.6354 48.2864 40.7333 48.7588 39.8213 48.7588H39.5536C37.7891 48.7588 36.3516 47.9647 35.2414 46.3766C34.7457 45.6931 34.2401 45.1001 33.7246 44.5975C32.9118 43.8738 32.0791 43.4517 31.2265 43.3311C30.8696 43.2507 30.5227 43.2105 30.1856 43.2105V43.1803C31.3554 42.8989 32.2079 42.6275 32.7432 42.3662C33.3777 42.1249 34.0121 41.6827 34.6466 41.0394C35.4 40.175 35.7767 39.1899 35.7767 38.0843V19.4794C35.7767 17.3083 35.7668 14.303 35.7469 10.4634C35.7469 10.0814 35.6181 9.78995 35.3603 9.58892C35.0828 9.44821 34.7556 9.37785 34.3789 9.37785C19.9453 9.71959 12.2626 9.91056 11.3308 9.95077C11.0532 10.0111 10.845 10.1417 10.7062 10.3428C10.5675 10.6242 10.4981 10.976 10.4981 11.3982V42.2154C10.4981 42.5973 10.508 43.1502 10.5278 43.8738C10.5278 44.5372 10.3494 45.1403 9.99249 45.6831C9.21926 46.5274 8.59473 47.1104 8.1189 47.432C6.73105 48.4773 5.69017 49 4.99624 49C4.48076 49 3.71744 48.4974 2.7063 47.4923C2.50804 47.231 2.4089 46.8993 2.4089 46.4972C2.42873 35.7826 2.43864 26.6359 2.43864 19.0572V8.14154C2.43864 7.17662 2.11151 6.57354 1.45724 6.33231C1.17967 6.272 0.693923 6.18154 0 6.06092C0 5.69908 0.317222 5.08595 0.951666 4.22154C1.68524 3.33703 2.43864 2.53292 3.21187 1.80923C3.56875 1.5479 3.94545 1.41723 4.34197 1.41723H4.46093C4.95659 1.41723 5.47208 1.5881 6.00739 1.92985C6.10652 2.03036 6.58235 2.11077 7.43489 2.17108H7.70254C14.6021 2.17108 22.7309 2.03036 32.089 1.74892C33.7346 1.66851 34.5574 1.57805 34.5574 1.47754C35.8262 0.874462 36.6986 0.482462 37.1744 0.301538C37.5115 0.201026 37.7791 0.150769 37.9774 0.150769ZM11.4795 11.0966C12.5501 11.8605 13.8884 12.2425 15.4943 12.2425C17.2192 12.2425 22.4335 12.0314 31.1373 11.6092C32.0295 11.6092 32.9514 11.961 33.9031 12.6646C34.4582 13.127 34.7358 13.911 34.7358 15.0166C34.7358 16.5243 34.2401 17.9114 33.2488 19.1778C32.7135 19.7407 32.2773 20.0624 31.9403 20.1428C31.8213 20.2031 31.7222 20.2332 31.6429 20.2332C31.861 20.0121 31.97 19.7206 31.97 19.3588C31.9105 18.8562 31.7222 18.6049 31.405 18.6049C23.7322 18.9065 18.5377 19.1376 15.8214 19.2985C14.2948 19.2985 13.1845 18.4944 12.4906 16.8862C12.2725 16.4037 12.1635 15.5292 12.1635 14.2628C12.0842 13.0767 11.9652 12.2827 11.8066 11.8806C11.8066 11.7801 11.6976 11.5188 11.4795 11.0966ZM29.115 20.2634C29.6305 20.2634 30.255 20.5348 30.9886 21.0775C31.5636 21.4193 32.3665 22.0927 33.3975 23.0978C34.2699 23.9623 34.7061 24.7061 34.7061 25.3292C34.7061 25.7916 34.3591 26.3243 33.6652 26.9274C33.4074 27.3294 33.2786 27.7315 33.2786 28.1335C33.2786 29.6211 33.2686 32.8074 33.2488 37.6923C33.2488 38.3959 32.9217 39.2 32.2674 40.1046C31.633 40.8082 30.9787 41.16 30.3046 41.16H30.0072C29.115 41.16 27.9849 40.7378 26.6169 39.8935C26.2997 39.7126 26.0419 39.6121 25.8437 39.592C25.011 39.6322 23.177 39.6925 20.3419 39.7729C20.0445 40.0343 19.5389 40.3056 18.8251 40.5871C18.2303 40.8082 17.0606 41.0494 15.3159 41.3108H15.2564C14.84 41.3108 14.2056 40.959 13.3531 40.2554C13.1548 40.0142 13.0557 39.7126 13.0557 39.3508C13.0557 37.0189 13.0656 32.4958 13.0854 25.7815C13.0854 24.696 12.8772 23.9321 12.4609 23.4898C12.3617 23.4094 12.1932 23.3491 11.9553 23.3089C11.7372 23.329 11.529 23.3692 11.3308 23.4295V23.3994C11.648 22.6757 12.3221 22.0827 13.3531 21.6203C13.6306 21.4193 14.047 21.0675 14.6021 20.5649C14.8599 20.384 15.1672 20.2935 15.524 20.2935C15.9999 20.2935 17.0408 20.5046 18.6467 20.9268C19.4398 21.0474 19.9255 21.1982 20.1039 21.3791C20.1238 21.3791 20.2031 21.4494 20.3419 21.5902C24.4856 21.4293 26.5574 21.3087 26.5574 21.2283C27.7668 20.585 28.6194 20.2634 29.115 20.2634ZM20.9366 28.2843V30.9077C20.9366 31.4103 20.9267 32.0837 20.9069 32.928C20.9267 32.928 20.9366 32.9381 20.9366 32.9582C20.9565 32.9582 21.0259 32.9481 21.1448 32.928C21.3827 32.928 22.8201 32.8777 25.4571 32.7772C25.4174 29.8222 25.3678 28.3446 25.3084 28.3446C25.229 28.1838 25.0308 28.1034 24.7136 28.1034H24.4162C24.0593 28.1034 22.8995 28.1637 20.9366 28.2843Z" fill="white"/>
<path d="M86.943 0.964923C87.2404 1.14585 87.736 1.29662 88.4299 1.41723C89.3221 1.55795 91.0173 1.70872 93.5154 1.86954C94.0309 1.99015 94.4076 2.21128 94.6455 2.53292C94.8041 2.83446 94.8834 3.09579 94.8834 3.31692C94.8041 4.32205 94.2192 5.5081 93.1288 6.87508V6.90523C93.1288 6.90523 93.1585 6.89518 93.218 6.87508L97.3816 6.78462C98.0358 6.78462 98.7198 7.08615 99.4336 7.68923C99.9094 8.17169 100.147 8.92554 100.147 9.95077C100.147 11.2373 99.7607 12.4133 98.9875 13.4788C98.4918 13.9813 98.0854 14.2527 97.7682 14.2929V14.2628C97.9466 14.0416 98.0358 13.8105 98.0358 13.5692C98.0358 13.1873 97.8673 12.9561 97.5303 12.8757C95.6071 12.9561 91.7707 13.0667 86.021 13.2074C85.8624 13.8105 85.4956 14.5543 84.9207 15.4388H84.9504C88.4795 15.3584 90.2441 15.2779 90.2441 15.1975C91.3742 14.5342 92.0879 14.2025 92.3853 14.2025C92.425 14.1824 92.5241 14.1723 92.6827 14.1723C93.4361 14.1723 94.358 14.6447 95.4485 15.5895C96.1226 16.0921 96.8562 16.7253 97.6492 17.4892C98.125 18.0923 98.363 18.7054 98.363 19.3286C98.363 19.8513 98.135 20.2835 97.6789 20.6252C97.3419 20.9268 97.1734 21.4896 97.1734 22.3138V35.5212C97.1734 36.9686 96.6282 38.1145 95.5377 38.9588C95.1214 39.2603 94.6852 39.4111 94.2292 39.4111H93.7831C92.9702 39.4111 91.8401 39.1497 90.3928 38.6271C89.9962 38.5065 89.7385 38.4462 89.6195 38.4462C86.5068 38.5065 81.9963 38.5869 76.088 38.6874C75.4139 39.2101 74.6407 39.5618 73.7683 39.7428V39.7729C77.9715 40.4363 82.4622 40.768 87.2404 40.768H87.7459C93.7732 40.768 98.3431 40.2654 101.456 39.2603C100.841 39.8232 100.445 40.2755 100.266 40.6172C99.8499 41.361 99.612 42.0345 99.5525 42.6375C99.4336 43.0798 99.3245 44.1151 99.2254 45.7434C99.1064 46.4269 98.9875 46.8792 98.8685 47.1003C98.7892 47.3415 98.5315 47.6431 98.0953 48.0049C97.4014 48.5276 96.2316 48.7889 94.586 48.7889C88.2813 48.7889 82.0359 48.3366 75.8501 47.432C72.3607 46.8289 69.7139 46.1957 67.9097 45.5323C67.077 45.271 66.2442 44.9493 65.4115 44.5674C64.5788 44.1653 63.8353 43.7331 63.1811 43.2708C62.8044 43.9744 62.0212 44.9795 60.8316 46.2862C59.8602 47.231 59.2654 47.7034 59.0473 47.7034C58.4921 47.9848 57.9073 48.1255 57.2926 48.1255H57.0547C56.0436 48.1255 55.2307 47.7536 54.6161 47.0098C54.279 46.6078 53.8627 45.3815 53.367 43.3311C53.1093 42.4466 52.7821 41.8033 52.3856 41.4012L51.88 41.0997H52.1774C53.4067 41.0997 54.735 40.3257 56.1625 38.7778C56.1625 38.7577 56.2716 38.607 56.4897 38.3255C57.1043 37.4611 57.4909 36.7676 57.6495 36.2449C57.6495 36.2248 57.6396 36.1143 57.6198 35.9132L57.5008 21.7409C57.481 21.5399 57.4711 21.4193 57.4711 21.3791H54.9135C54.1006 21.3791 53.4364 20.585 52.9209 18.9969C52.7623 18.2933 52.683 17.5696 52.683 16.8258V16.3132C52.683 15.1875 52.8119 14.0215 53.0696 12.8154H53.0994C53.0994 12.9561 53.3373 13.137 53.8131 13.3582C54.4674 13.6999 55.5578 13.8708 57.0845 13.8708H62.5863C63.3199 13.8708 63.994 14.1723 64.6086 14.7754C65.0249 15.2578 65.2728 15.7705 65.3521 16.3132C65.3719 16.5545 65.3818 16.8359 65.3818 17.1575V36.9988C65.9568 37.5013 66.6507 37.8933 67.4636 38.1748C67.8403 38.3758 68.3954 38.5768 69.129 38.7778L69.0992 38.4462C69.1191 35.5715 69.129 33.8025 69.129 33.1391C69.129 30.5458 69.1191 25.9725 69.0992 19.4191C69.0992 18.8562 68.9406 18.3034 68.6234 17.7606C68.4648 17.5998 68.2665 17.5194 68.0286 17.5194C67.87 17.5194 67.6717 17.5395 67.4338 17.5797C67.7312 16.9163 68.3855 16.3434 69.3966 15.8609C69.6346 15.7001 70.0113 15.3785 70.5267 14.896C70.8241 14.7151 71.1215 14.6246 71.4189 14.6246C71.8353 14.6246 72.8464 14.8357 74.4524 15.2578C75.1066 15.3383 75.5329 15.4689 75.7312 15.6498C75.7312 15.6699 75.7411 15.68 75.7609 15.68H76.2367C76.435 15.68 76.7225 15.6699 77.0992 15.6498C77.5552 14.9664 77.922 14.2226 78.1995 13.4185C74.1153 13.519 71.1116 13.6094 69.1885 13.6898C67.8799 13.6898 66.9976 13.1973 66.5416 12.2123C66.4029 11.8706 66.3335 11.5087 66.3335 11.1268C66.4326 9.37785 66.4822 8.35262 66.4822 8.05108V7.47815C66.4822 7.11631 66.4326 6.79467 66.3335 6.51323C67.0472 7.17662 67.8403 7.50831 68.7126 7.50831C68.7325 7.50831 68.8415 7.51836 69.0398 7.53846C70.5862 7.49826 71.4982 7.47815 71.7758 7.47815C71.7163 7.33744 71.6767 7.16656 71.6568 6.96554C71.6568 6.60369 71.8948 5.94031 72.3706 4.97538C72.7275 3.72903 72.9059 2.744 72.9059 2.02031V1.59815C72.9059 1.47754 72.896 1.29662 72.8762 1.05538C73.3123 1.57805 73.5899 1.88964 73.7089 1.99015C74.145 2.25149 74.7597 2.38215 75.5527 2.38215H75.7609C76.0781 2.38215 76.9802 2.3319 78.4672 2.23138H78.9728C80.0632 2.23138 80.777 2.70379 81.114 3.64862C81.1933 3.95015 81.233 4.21149 81.233 4.43262C81.233 5.41764 80.6977 6.33231 79.627 7.17662C79.5874 7.23692 79.5477 7.26708 79.5081 7.26708V7.29723C79.8848 7.27713 81.7088 7.21682 84.9802 7.11631C85.5155 6.43282 85.9417 5.71918 86.259 4.97538C86.7348 3.72903 86.9727 2.59323 86.9727 1.568V1.41723C86.9727 1.31672 86.9628 1.16595 86.943 0.964923ZM54.3187 2.62338C55.2505 3.20636 55.9246 3.60841 56.341 3.82954C57.1935 4.25169 58.2047 4.46277 59.3744 4.46277H59.7908C60.3856 4.46277 61.0696 4.42256 61.8428 4.34215C62.9531 4.34215 63.8155 4.90503 64.4301 6.03077C64.6284 6.49313 64.7275 6.91528 64.7275 7.29723V7.56862C64.7275 8.53354 64.3508 9.43815 63.5974 10.2825C62.4078 11.3479 60.792 11.8806 58.7499 11.8806C57.4017 11.8806 56.2716 11.6193 55.3596 11.0966C54.9234 10.8554 54.626 10.4734 54.4674 9.95077C54.3286 9.52862 54.2592 9.11651 54.2592 8.71446V8.53354C54.2592 8.03097 54.398 7.24697 54.6756 6.18154C54.735 5.63877 54.7648 5.34728 54.7648 5.30708C54.7648 4.62359 54.6062 3.72903 54.2889 2.62338H54.3187ZM76.5044 20.4443V21.8917C83.5824 21.6304 87.9145 21.4595 89.5006 21.3791C89.5006 20.6956 89.3717 20.2835 89.114 20.1428C88.9157 20.0423 88.7174 19.992 88.5192 19.992C88.2218 19.992 84.2168 20.1428 76.5044 20.4443ZM89.3816 25.8117C85.7336 25.9122 81.4412 26.0831 76.5044 26.3243V27.8622C76.6035 27.8421 76.6531 27.832 76.6531 27.832C82.7993 27.6109 87.0917 27.44 89.5303 27.3194V25.7815C89.5105 25.7815 89.4609 25.7916 89.3816 25.8117ZM76.5044 32.2948V33.5009C76.8414 33.5009 81.1438 33.4205 89.4114 33.2597L89.5898 33.2295V31.7218C84.5737 31.9028 80.2119 32.0937 76.5044 32.2948Z" fill="white"/>
<path d="M129.128 1.11569C130.238 1.11569 131.715 1.57805 133.559 2.50277C134.035 2.80431 134.342 3.136 134.481 3.49785C134.62 3.79938 134.689 4.17128 134.689 4.61354V13.1169C134.689 13.2576 134.679 13.4687 134.659 13.7502H134.689C134.987 13.7502 140.052 13.5089 149.886 13.0265C150.877 13.0265 151.918 13.4084 153.009 14.1723C153.762 14.7352 154.139 15.68 154.139 17.0068C154.139 18.5346 153.663 20.0322 152.711 21.4997C152.275 22.0224 151.879 22.4043 151.522 22.6455C151.006 22.9471 150.669 23.0978 150.511 23.0978C150.768 22.8164 150.897 22.5048 150.897 22.1631V22.0425C150.897 21.56 150.669 21.2786 150.213 21.1982C147.636 21.3188 142.659 21.5399 135.284 21.8615C136.097 23.4496 137.108 25.1182 138.317 26.8671C139.071 27.9526 139.884 29.0382 140.756 30.1237C141.45 31.0082 142.441 32.1038 143.73 33.4105C145.415 35.0388 146.744 36.1243 147.715 36.6671C148.905 37.3707 149.936 37.7627 150.808 37.8431C151.661 38.0039 152.563 38.0843 153.514 38.0843C154.347 38.0843 155.17 38.0139 155.983 37.8732C155.17 39.0593 154.506 40.2051 153.99 41.3108C153.772 41.8937 153.554 43.2105 153.336 45.2609C153.058 46.4872 152.662 47.3315 152.146 47.7938C151.492 48.4572 150.64 48.7889 149.589 48.7889C148.379 48.7889 146.952 48.3768 145.306 47.5526C144.513 47.1104 143.234 46.0851 141.47 44.4769C139.923 42.9491 138.764 41.7329 137.99 40.8283C136.682 39.2804 135.532 37.7828 134.541 36.3354C133.192 34.3854 132.052 32.4958 131.12 30.6665V30.6363C131.041 30.7368 130.863 31.1188 130.585 31.7822C129.752 33.6115 128.642 35.6217 127.254 37.8129C126.322 39.1799 125.381 40.4062 124.429 41.4917C124.27 41.7128 123.814 42.2053 123.061 42.9692C121.396 44.6176 120.176 45.673 119.403 46.1354C118.511 46.7988 117.5 47.4119 116.37 47.9748C115.061 48.6583 113.961 49 113.069 49H112.95C111.938 49 111.036 48.5879 110.243 47.7637C110.045 47.442 109.787 46.648 109.47 45.3815C109.014 43.7532 108.578 42.5873 108.162 41.8837C107.547 40.7177 106.724 39.9538 105.693 39.592C105.654 39.592 105.634 39.5719 105.634 39.5317C106.883 39.3709 108.162 39.1196 109.47 38.7778C111.354 38.1748 112.89 37.5315 114.08 36.848C115.17 36.2248 116.31 35.4107 117.5 34.4055C118.65 33.32 119.423 32.5159 119.819 31.9932C122.099 29.199 123.715 25.9725 124.667 22.3138C119.988 22.535 116.102 22.7259 113.009 22.8868C111.78 22.8868 110.749 22.4043 109.916 21.4394C109.143 20.5549 108.756 19.2181 108.756 17.4289C108.756 15.68 108.509 14.3432 108.013 13.4185C107.993 13.4185 107.963 13.3783 107.924 13.2978C109.212 14.2226 110.759 14.6849 112.563 14.6849C113.911 14.6849 118.372 14.504 125.946 14.1422C125.966 13.7401 125.976 13.4486 125.976 13.2677V7.29723C125.976 5.97046 125.678 5.096 125.083 4.67385C124.845 4.55323 124.598 4.49292 124.34 4.49292C124.161 4.49292 123.904 4.52308 123.567 4.58338C123.765 4.12103 124.27 3.67877 125.083 3.25662C125.46 3.03549 126.134 2.55303 127.106 1.80923C127.72 1.34687 128.394 1.11569 129.128 1.11569Z" fill="white"/>
<path d="M172.413 0H172.592C173.662 0 175.12 0.442256 176.963 1.32677C177.717 1.78913 178.093 2.42236 178.093 3.22646V5.24677C178.093 5.488 178.103 5.86995 178.123 6.39262C179.273 6.19159 180.106 6.07097 180.621 6.03077C181.692 6.03077 182.753 6.43282 183.803 7.23692C184.359 7.73949 184.636 8.51344 184.636 9.55877V9.83015C184.636 11.0564 184.269 12.3128 183.536 13.5994C182.941 14.504 182.247 15.087 181.454 15.3483L181.305 15.3785C181.543 15.1372 181.662 14.8457 181.662 14.504V14.4738C181.603 13.911 181.395 13.6295 181.038 13.6295C180.403 13.6295 179.432 13.7301 178.123 13.9311V16.5846L183.387 16.3434C184.279 16.3434 185.241 16.6851 186.272 17.3686C186.807 17.7908 187.124 18.2732 187.224 18.816C187.323 19.2784 187.372 19.6804 187.372 20.0222C187.372 21.6706 186.827 23.1984 185.737 24.6055C185.122 25.2287 184.646 25.5705 184.309 25.6308C184.309 25.6509 184.21 25.681 184.012 25.7212C184.23 25.4599 184.339 25.1785 184.339 24.8769V24.7262C184.279 24.2236 184.091 23.9723 183.774 23.9723L176.934 24.2135V24.2437C177.707 24.4447 178.312 24.6558 178.748 24.8769C179.561 25.2388 179.967 25.8418 179.967 26.6862V30.2745C180.027 35.9434 180.056 39.1296 180.056 39.8332V41.6726C180.056 44.105 179.293 46.1253 177.766 47.7335C176.914 48.5778 176.081 49 175.268 49C173.96 49 172.78 48.3567 171.729 47.0702C171.035 46.1856 170.341 45.4016 169.647 44.7182C168.795 43.9543 167.704 43.4316 166.376 43.1502H166.317V43.12C167.209 42.9994 167.942 42.8687 168.517 42.728C169.449 42.4265 170.183 41.9541 170.718 41.3108C171.095 40.6876 171.283 40.2654 171.283 40.0443C171.402 39.7227 171.462 39.1397 171.462 38.2954V28.8572C171.462 27.9325 171.253 27.2892 170.837 26.9274C170.639 26.7867 170.411 26.7163 170.153 26.7163C169.895 26.7364 169.697 26.7465 169.558 26.7465C169.618 26.5655 169.846 26.3243 170.242 26.0228C171.571 25.1584 172.631 24.6055 173.424 24.3643V24.3342C173.424 24.3342 173.375 24.3442 173.276 24.3643C169.905 24.4648 167.03 24.5754 164.651 24.696H164.621H164.503C163.392 24.696 162.411 24.113 161.558 22.9471C160.944 21.9218 160.636 20.967 160.636 20.0825V19.9618C160.636 19.8613 160.666 19.1376 160.726 17.7908C160.726 16.9465 160.577 16.2931 160.28 15.8308V15.8006C161.37 16.6449 162.669 17.0671 164.175 17.0671C164.393 17.0671 166.029 17.0269 169.082 16.9465C169.102 15.7403 169.112 14.9262 169.112 14.504C169.112 13.137 169.122 10.3227 169.142 6.06092C169.142 5.25682 168.954 4.53313 168.577 3.88985C168.319 3.58831 167.972 3.43754 167.536 3.43754H167.447C167.248 3.43754 167.011 3.46769 166.733 3.528V3.49785C166.911 3.03549 167.516 2.53292 168.547 1.99015C170.213 0.763897 171.194 0.150769 171.491 0.150769C171.769 0.0502564 172.076 0 172.413 0ZM203.788 2.32185H203.848C204.522 2.32185 205.295 2.97518 206.168 4.28185C207.318 5.74933 208.101 6.82482 208.517 7.50831C208.775 8.05108 208.904 8.48328 208.904 8.80492C208.904 9.08636 208.735 9.408 208.398 9.76985C207.645 10.5337 207.268 11.2574 207.268 11.9409C206.455 16.8258 205.523 20.9971 204.472 24.4548C203.56 27.4903 202.549 30.3549 201.439 33.0486C201.677 33.4909 202.43 34.3553 203.699 35.6418C204.73 36.5867 205.612 37.2903 206.346 37.7526C207.476 38.5567 208.656 38.9588 209.885 38.9588H210.272H210.539C210.083 39.3206 209.736 39.6925 209.498 40.0745C209.003 40.8183 208.755 41.3309 208.755 41.6123C208.596 42.1149 208.438 43.2808 208.279 45.1102C208.2 45.6529 207.962 46.1957 207.565 46.7385C206.733 47.7436 205.801 48.2462 204.77 48.2462H204.532C202.668 48.2462 200.666 46.8189 198.525 43.9643C197.969 43.2205 197.494 42.5169 197.097 41.8535H197.067C196.433 42.9391 195.61 44.1352 194.599 45.4418C193.588 46.5676 192.924 47.2209 192.606 47.4018C191.794 48.0049 190.812 48.3065 189.662 48.3065H189.513C188.126 48.3065 187.075 47.824 186.361 46.8591C185.766 45.4921 185.201 44.105 184.666 42.6978C184.25 41.7329 183.665 41.0092 182.911 40.5268C183.288 40.5268 183.575 40.5268 183.774 40.5268H183.833C185.241 40.5268 186.341 40.2956 187.134 39.8332C189.216 38.7477 191.139 36.647 192.904 33.5311C190.743 28.4652 188.601 22.4747 186.48 15.5594H186.51L187.105 15.6197C187.898 15.6197 189.018 15.2679 190.465 14.5643C191.119 14.303 191.665 14.1723 192.101 14.1723H192.339C193.489 14.1723 194.302 14.9764 194.777 16.5846C195.392 18.233 196.076 20.2634 196.829 22.6757H196.859C197.137 21.5902 197.464 19.9417 197.841 17.7305C198.178 15.3785 198.346 13.529 198.346 12.1822C198.346 11.7801 198.158 11.5791 197.781 11.5791C197.622 11.559 197.523 11.5489 197.484 11.5489C197.285 11.5489 194.539 11.9208 189.246 12.6646C189.107 12.6646 188.988 12.6646 188.889 12.6646C187.6 12.6646 186.698 12.0816 186.183 10.9157C185.885 10.2925 185.737 9.24718 185.737 7.77969C185.737 7.69928 185.746 7.59877 185.766 7.47815C185.766 6.05087 185.429 4.71405 184.755 3.46769C185.29 3.90995 186.084 4.13108 187.134 4.13108C191.456 4.07077 194.569 3.97026 196.473 3.82954C197.325 3.82954 198.782 3.70892 200.844 3.46769C200.904 3.46769 201.538 3.16615 202.748 2.56308C203.144 2.40226 203.491 2.32185 203.788 2.32185ZM186.54 27.0782V27.1083C186.48 27.6109 186.45 28.0933 186.45 28.5557C186.45 30.7871 187.323 32.4053 189.067 33.4105C189.305 33.5311 189.593 33.5914 189.93 33.5914H190.079C190.455 33.5914 190.901 33.5411 191.417 33.4406C190.763 33.9834 190.316 34.496 190.079 34.9785C189.801 35.5212 189.513 36.255 189.216 37.1797C189.057 37.5415 188.75 37.9536 188.294 38.416C187.62 38.9387 187.015 39.2 186.48 39.2C186.48 39.2201 186.411 39.2302 186.272 39.2302C185.518 39.2302 184.725 38.8683 183.893 38.1446C183.199 37.3606 182.733 36.6068 182.495 35.8831C182.257 35.3202 182.049 34.5865 181.87 33.6818C181.573 31.9329 181.424 30.4755 181.424 29.3095C181.424 28.7668 181.811 28.2743 182.584 27.832C182.921 27.6913 183.219 27.6209 183.476 27.6209H184.398C185.449 27.6209 186.133 27.4601 186.45 27.1385L186.54 27.0782ZM167.239 27.9225C168.032 27.9225 168.646 28.2642 169.082 28.9477C169.241 29.1286 169.37 30.1438 169.469 31.9932C169.489 31.9932 169.499 32.2646 169.499 32.8074C169.499 36.0238 168.854 38.6673 167.566 40.7378C167.011 41.5017 166.406 41.9842 165.752 42.1852C165.335 42.3259 164.959 42.3963 164.621 42.3963C163.531 42.3963 162.748 41.9641 162.272 41.0997C161.757 39.5518 160.964 38.4663 159.893 37.8431C159.576 37.6823 159.417 37.5918 159.417 37.5717H159.566C160.815 37.5717 161.628 37.3104 162.004 36.7877C162.778 35.9836 163.363 34.7272 163.759 33.0185C163.957 32.134 164.056 31.3097 164.056 30.5458V30.2443C164.056 29.4804 163.947 28.7467 163.729 28.0431H163.759C164.096 28.224 164.443 28.3145 164.8 28.3145C165.038 28.3145 165.791 28.1838 167.06 27.9225H167.239Z" fill="white"/>
<path d="M252.635 0.633231C253.17 0.633231 253.835 0.914667 254.628 1.47754C255.441 1.96 256.422 2.7641 257.572 3.88985C258.781 5.03569 259.386 5.98051 259.386 6.72431V6.93538C259.386 7.37764 259.039 7.92041 258.345 8.56369C257.869 9.10646 257.631 9.66933 257.631 10.2523C257.611 14.5141 257.602 17.1173 257.602 18.0622C257.602 19.0673 257.175 20.1227 256.323 21.2283C255.748 21.8314 255.193 22.2033 254.657 22.344C254.419 22.4445 254.033 22.4948 253.498 22.4948C252.328 22.4948 250.861 22.1631 249.096 21.4997L248.501 21.3791C247.986 21.4193 246.687 21.4595 244.605 21.4997V21.5298C244.705 21.7912 244.754 22.1028 244.754 22.4646V23.6406L255.133 23.2486C255.926 23.2486 256.789 23.5401 257.721 24.1231C258.395 24.5854 258.732 25.3192 258.732 26.3243V26.5957C258.732 27.8421 258.236 29.0181 257.245 30.1237C256.571 30.7469 256.045 31.0585 255.669 31.0585C255.867 30.8373 255.966 30.6464 255.966 30.4855V30.3951C255.966 30.1538 255.778 30.0031 255.401 29.9428C253.319 30.0433 249.77 30.1739 244.754 30.3348V30.3951C244.754 31.1188 244.754 31.6716 244.754 32.0535V32.1742L255.133 31.8425C255.827 31.8425 256.61 32.1038 257.483 32.6265C258.276 33.0888 258.672 33.8829 258.672 35.0086V35.0689C258.672 36.3153 258.246 37.4712 257.393 38.5366C256.838 39.1397 256.273 39.5116 255.698 39.6523C255.659 39.6724 255.619 39.6825 255.579 39.6825C255.797 39.4613 255.906 39.2603 255.906 39.0794V39.0191C255.906 38.7577 255.728 38.607 255.371 38.5668C252.675 38.6673 249.136 38.7778 244.754 38.8985V40.5268C252.704 40.2855 257.364 40.1348 258.732 40.0745C259.584 40.0745 260.506 40.3861 261.497 41.0092C262.291 41.5118 262.687 42.326 262.687 43.4517V43.6929C262.687 44.8187 262.291 45.9344 261.497 47.04C260.923 47.6833 260.536 48.0451 260.338 48.1255C259.842 48.407 259.515 48.5477 259.356 48.5477C259.554 48.3467 259.673 48.1155 259.713 47.8542C259.713 47.5727 259.525 47.4018 259.148 47.3415C252.704 47.5426 241.284 47.8542 224.888 48.2763L220.041 48.4572C219.01 48.4572 218.098 48.0351 217.304 47.1908C216.848 46.6279 216.531 45.9846 216.353 45.2609C216.313 45.2609 216.254 44.3061 216.174 42.3963C216.055 41.5319 215.927 40.9087 215.788 40.5268C215.669 40.2654 215.57 40.0845 215.49 39.984V39.9538H215.52C216.69 40.7579 218.058 41.16 219.624 41.16H219.654C221.319 41.16 226.672 41.0293 235.713 40.768V39.1698C231.55 39.2905 227.386 39.4312 223.223 39.592C222.311 39.592 221.488 39.2101 220.754 38.4462C220.278 37.8632 219.981 37.2501 219.862 36.6068C219.803 36.6068 219.733 35.7022 219.654 33.8929C219.555 33.0888 219.426 32.5259 219.267 32.2043C218.97 31.7218 218.603 31.2695 218.167 30.8474C217.79 30.5458 217.394 30.3046 216.977 30.1237C216.581 30.0031 216.303 29.9327 216.145 29.9126C217.037 29.7317 217.671 29.5407 218.048 29.3397C219.872 28.1134 221.151 26.4349 221.884 24.304C222.162 23.2989 222.301 22.6958 222.301 22.4948C222.003 22.3339 221.646 22.0525 221.23 21.6505C221.072 21.3489 220.992 21.0172 220.992 20.6554C220.992 18.424 221.002 14.112 221.022 7.71938C221.022 6.53333 220.774 5.63877 220.278 5.03569C220.041 4.87487 219.813 4.79446 219.594 4.79446C219.535 4.79446 219.287 4.83467 218.851 4.91508V4.88492C219.228 4.02051 220.08 3.28677 221.409 2.68369C222.558 1.83938 223.153 1.41723 223.193 1.41723C223.589 1.1961 224.006 1.08554 224.442 1.08554H224.71C225.562 1.08554 226.9 1.48759 228.724 2.29169C228.843 2.3721 228.923 2.41231 228.962 2.41231C242.524 2.13087 249.304 1.92985 249.304 1.80923C250.811 1.02523 251.822 0.633231 252.338 0.633231H252.635ZM230.152 8.53354V9.89046C236.1 9.68944 242.196 9.46831 248.442 9.22708V9.016C248.442 8.33251 248.313 7.99077 248.055 7.99077C248.055 7.95056 247.817 7.92041 247.341 7.90031L230.152 8.53354ZM230.211 14.7754C230.172 14.7955 230.142 14.8055 230.122 14.8055V16.1926L248.531 15.8006V15.2277C248.531 14.9664 248.521 14.6146 248.501 14.1723C236.645 14.5744 230.549 14.7754 230.211 14.7754ZM228.873 21.7711L228.635 21.8012C229.032 22.3038 229.23 22.8265 229.23 23.3692C229.21 23.6105 229.18 23.8818 229.141 24.1834C229.617 24.1834 231.778 24.113 235.624 23.9723C235.505 23.4898 235.376 23.1582 235.237 22.9772C234.98 22.6556 234.613 22.4948 234.137 22.4948H234.107C233.869 22.4948 233.622 22.535 233.364 22.6154V22.5551C233.463 22.3339 233.721 22.0425 234.137 21.6806C231.024 21.7409 229.27 21.7711 228.873 21.7711ZM227.446 30.9982C227.307 30.9982 227.109 30.9781 226.851 30.9378C226.613 31.4203 226.187 32.0334 225.572 32.7772L235.743 32.4757V30.6665C232.333 30.767 229.567 30.8775 227.446 30.9982Z" fill="white"/>
<path d="M295.801 0.150769H295.95C296.941 0.150769 298.319 0.562872 300.084 1.38708C300.461 1.568 300.798 1.82933 301.095 2.17108C301.353 2.51282 301.482 3.10585 301.482 3.95015V5.096C306.637 4.95528 310.413 4.82462 312.812 4.704C314.775 4.7241 315.995 5.25682 316.47 6.30215C316.689 6.76451 316.798 7.29723 316.798 7.90031V8.05108C316.798 9.33764 316.421 10.584 315.667 11.7902C315.192 12.4937 314.587 12.9561 313.853 13.1772C314.052 12.9561 314.151 12.745 314.151 12.544C314.151 12.1822 313.952 11.9309 313.556 11.7902C313.536 11.7902 313.487 11.7801 313.407 11.76C308.054 12.0213 298.537 12.2626 284.857 12.4837C283.846 12.4837 283.341 12.544 283.341 12.6646C283.023 12.8656 282.865 13.3381 282.865 14.0818V16.4338C282.865 18.8059 282.875 21.8213 282.894 25.48C282.875 25.6006 282.865 25.7413 282.865 25.9022C283.301 25.6006 283.797 25.0779 284.352 24.3342C286.136 21.9419 287.028 18.4441 287.028 13.8406H287.058C287.316 14.0014 287.623 14.0818 287.98 14.0818H288.307C288.585 14.0818 289.586 13.9612 291.311 13.72H291.489C291.509 13.72 291.519 13.7099 291.519 13.6898L291.578 13.72H291.668C292.342 13.72 292.927 14.0316 293.422 14.6548C293.581 14.8759 293.66 15.2176 293.66 15.68V15.8911C293.66 17.64 293.462 19.4593 293.065 21.3489C293.68 21.7711 294.602 22.4445 295.831 23.3692V19.6603C295.831 19.2784 295.841 18.8261 295.861 18.3034C295.861 17.1374 295.603 16.3635 295.088 15.9815C294.83 15.9011 294.632 15.8609 294.493 15.8609C294.215 15.881 294.007 15.9212 293.868 15.9815V15.9212C294.027 15.5192 294.443 15.1573 295.117 14.8357L297.169 13.4486C297.705 13.1471 298.181 12.9963 298.597 12.9963H298.686C299.658 12.9963 300.927 13.3984 302.493 14.2025C303.048 14.5844 303.326 15.1071 303.326 15.7705V24.696C303.901 24.0929 304.406 23.4295 304.842 22.7058C306.389 20.3538 307.162 17.1977 307.162 13.2375V13.1471H307.192C307.449 13.328 307.777 13.4185 308.173 13.4185C308.391 13.4185 309.264 13.2978 310.79 13.0566C310.889 13.0365 311.048 13.0265 311.266 13.0265H311.296C311.891 13.0265 312.436 13.2777 312.931 13.7803C313.209 14.0014 313.348 14.4738 313.348 15.1975V15.3483C313.348 16.9766 313.13 18.8059 312.694 20.8363C314.121 22.1028 315.727 23.5703 317.511 25.2388C317.908 25.7815 318.106 26.2942 318.106 26.7766C318.106 27.641 317.67 28.2843 316.798 28.7065C315.291 29.2492 313.933 30.0734 312.723 31.1791C312.604 31.3198 312.545 31.4103 312.545 31.4505H312.485V31.4203C312.426 30.4554 311.801 28.9678 310.612 26.9575C310.572 26.9575 310.473 27.1485 310.314 27.5305C309.918 28.2743 309.442 29.0181 308.887 29.7618C308.114 30.7469 307.33 31.2394 306.537 31.2394H306.389C305.497 31.2394 304.713 30.8172 304.039 29.9729C303.901 29.8121 303.682 29.3899 303.385 28.7065H303.355V31.9631L310.909 31.6917C311.682 31.6917 312.515 32.0033 313.407 32.6265C313.943 33.0687 314.21 33.7924 314.21 34.7975V34.8277C314.21 36.2952 313.734 37.6421 312.783 38.8683C312.267 39.3709 311.841 39.6624 311.504 39.7428H311.385C311.583 39.5015 311.682 39.2704 311.682 39.0492V38.9588C311.682 38.5768 311.514 38.3456 311.177 38.2652C309.313 38.3456 306.706 38.416 303.355 38.4763V39.5618C303.355 40.0644 303.375 40.5167 303.415 40.9188C303.91 40.9188 307.39 40.8384 313.853 40.6775C314.428 40.6775 315.152 40.9188 316.024 41.4012C316.54 41.7832 316.847 42.1752 316.946 42.5772C317.045 42.9994 317.095 43.3713 317.095 43.6929V43.8437C317.095 45.0901 316.708 46.3063 315.935 47.4923C315.638 47.8542 315.321 48.1657 314.983 48.4271C314.785 48.5477 314.547 48.6482 314.27 48.7286V48.6985C314.448 48.4974 314.537 48.2763 314.537 48.0351V47.8843C314.498 47.4421 314.339 47.2209 314.062 47.2209C310.731 47.3214 302.404 47.5124 289.08 47.7938L285.452 47.9145C284.302 47.9145 283.4 47.4018 282.746 46.3766C282.448 45.8741 282.3 45.0297 282.3 43.8437C282.3 42.8989 282.181 41.9138 281.943 40.8886C281.864 40.6675 281.774 40.4564 281.675 40.2554H281.705C282.716 40.959 283.916 41.3108 285.303 41.3108L295.801 41.1298V38.7175C293.958 38.7577 291.459 38.8382 288.307 38.9588H288.277C287.207 38.9588 286.344 38.4763 285.69 37.5114C285.432 37.0691 285.284 36.6269 285.244 36.1846C285.224 36.1846 285.184 35.3604 285.125 33.712C285.046 32.8476 284.907 32.1541 284.709 31.6314C284.709 31.6314 284.649 31.5309 284.53 31.3298V31.2997H284.56C285.571 32.0033 286.761 32.3551 288.129 32.3551C288.763 32.3551 291.321 32.2948 295.801 32.1742C295.821 31.752 295.831 31.4404 295.831 31.2394V29.1286H295.801C295.266 29.3698 294.523 29.9327 293.571 30.8172C293.274 31.1188 293.026 31.4002 292.827 31.6615C292.728 30.6564 292.134 29.2291 291.043 27.3797H291.013C290.637 28.224 290.121 29.1286 289.467 30.0935C288.912 30.8373 288.416 31.3399 287.98 31.6012C287.623 31.8224 287.227 31.9329 286.79 31.9329C285.799 31.9329 285.006 31.2796 284.411 29.9729C284.332 29.6915 284.114 29.3095 283.757 28.8271C283.4 28.425 283.093 28.1134 282.835 27.8923C282.835 28.616 282.686 30.5257 282.389 33.6215C281.992 36.7977 281.566 39.1598 281.11 40.7077C280.694 42.3963 280.228 43.7834 279.712 44.8689C279.355 45.5725 278.939 46.2359 278.463 46.8591C277.75 47.6632 277.224 48.1155 276.887 48.216C276.074 48.7387 275.271 49 274.478 49H274.359C273.229 49 272.496 48.3969 272.159 47.1908C272.159 46.9696 271.841 46.1756 271.207 44.8086C270.85 44.1653 270.424 43.5522 269.928 42.9692C269.313 42.3461 268.798 42.0345 268.382 42.0345V42.0043C268.897 41.9641 269.502 41.6324 270.196 41.0092C270.87 40.3257 271.316 39.7629 271.534 39.3206C272.069 38.4562 272.605 37.1998 273.14 35.5514C274.33 31.6314 274.924 26.6258 274.924 20.5348V11.4283C274.924 10.3026 274.766 9.63918 274.448 9.43815C274.27 9.27733 273.784 9.08636 272.991 8.86523C272.733 8.72451 272.575 8.624 272.515 8.56369C272.575 8.32246 273.15 7.62892 274.24 6.48308C274.359 6.36246 274.904 5.78954 275.876 4.76431C276.134 4.62359 276.411 4.55323 276.709 4.55323H276.887C277.462 4.55323 278.285 4.77436 279.355 5.21662C279.375 5.31713 280.743 5.37744 283.46 5.39754H283.935C286.969 5.39754 289.655 5.36738 291.995 5.30708C291.757 4.18133 291.261 3.61846 290.508 3.61846H290.359C290.141 3.61846 289.903 3.64862 289.645 3.70892C289.824 3.22646 290.359 2.75405 291.251 2.29169C293.274 0.86441 294.79 0.150769 295.801 0.150769Z" fill="white"/>
<path d="M345.213 0.0904615C345.729 0.532718 346.423 0.844308 347.295 1.02523C349.079 1.48759 350.229 1.78913 350.745 1.92985C351.716 2.29169 352.351 2.77415 352.648 3.37723C352.886 3.75918 353.005 4.16123 353.005 4.58338C353.005 5.91015 351.904 7.19672 349.704 8.44308C348.911 8.76472 348.365 8.92554 348.068 8.92554V8.95569H348.157C350.893 8.85518 352.4 8.80492 352.678 8.80492C354.026 7.31733 355.037 5.10605 355.711 2.17108C355.87 1.20615 355.949 0.532718 355.949 0.150769C356.425 0.593026 357.228 0.914667 358.358 1.11569C358.933 1.23631 359.984 1.36697 361.51 1.50769C362.046 1.64841 362.472 1.92985 362.789 2.352C363.047 2.71385 363.176 3.09579 363.176 3.49785V3.58831C363.116 4.59344 362.373 6.23179 360.945 8.50338C360.985 8.48328 361.015 8.47323 361.035 8.47323C361.352 8.47323 361.897 8.45313 362.67 8.41292C363.939 7.40779 364.792 6.90523 365.228 6.90523H365.555C366.269 6.90523 367.419 7.57867 369.005 8.92554C369.917 9.89046 370.442 10.5538 370.581 10.9157C371.017 11.6997 371.235 12.3832 371.235 12.9662C371.235 13.4285 370.958 13.8306 370.402 14.1723C370.026 14.5543 369.818 14.896 369.778 15.1975C369.381 16.5042 369.015 17.4993 368.678 18.1828C368.004 19.6503 366.982 20.384 365.614 20.384C365.039 20.384 364.296 20.2131 363.384 19.8714C362.789 19.7106 362.224 19.5799 361.689 19.4794V19.5095C362.066 20.1528 362.254 20.6956 362.254 21.1378V21.2886C362.254 21.8113 361.947 22.2133 361.332 22.4948C360.618 22.937 360.073 23.3089 359.696 23.6105C359.22 24.3945 358.368 25.4498 357.139 26.7766C357.139 26.7967 356.812 27.1385 356.157 27.8018H356.187C357.436 27.7616 361.124 27.641 367.25 27.44C368.222 27.44 369.272 27.8119 370.402 28.5557C370.878 28.9376 371.186 29.4201 371.324 30.0031C371.424 30.4453 371.473 30.8373 371.473 31.1791C371.473 32.8074 370.859 34.2849 369.629 35.6117C368.916 36.1947 368.321 36.5163 367.845 36.5766C368.083 36.3354 368.202 36.0539 368.202 35.7323V35.5514C368.202 35.1694 368.023 34.9182 367.666 34.7975H367.607C362.75 34.9383 358.12 35.0689 353.719 35.1895L353.748 35.2498C353.788 36.1143 353.808 36.8178 353.808 37.3606V38.3255C353.808 40.1147 353.669 42.0043 353.391 43.9945C353.173 44.7182 352.876 45.2911 352.499 45.7132C352.182 46.1555 351.756 46.5776 351.22 46.9797C349.595 48.1054 347.969 48.6683 346.343 48.6683H346.046C344.717 48.6683 343.677 48.2059 342.923 47.2812C342.527 46.4771 342.229 45.9746 342.031 45.7735C341.634 45.271 341.198 44.8388 340.722 44.4769C339.513 43.6125 338.095 42.929 336.47 42.4265V42.3963H336.589C338.908 42.3963 340.891 41.8837 342.537 40.8585C343.27 40.3358 343.756 39.6925 343.994 38.9286C344.093 38.6472 344.142 37.6823 344.142 36.0338V35.4609C338.333 35.6217 333.248 35.7826 328.886 35.9434H328.797C327.429 35.9434 326.338 35.4107 325.526 34.3452C325.228 33.9231 325.02 33.4205 324.901 32.8375C324.841 32.8375 324.762 31.8023 324.663 29.7317C324.504 28.4652 324.257 27.641 323.92 27.2591H323.949C325.218 28.1436 326.755 28.5858 328.559 28.5858C331.731 28.5255 336.668 28.3949 343.369 28.1938C343.191 27.6511 342.854 26.9575 342.358 26.1132C342.18 25.872 342.09 25.6308 342.09 25.3895V25.2388C342.09 24.8367 342.517 24.5955 343.369 24.5151H343.637C344.589 24.5151 345.729 24.6859 347.057 25.0277C347.592 25.2287 348.227 25.5504 348.96 25.9926C349.793 25.0679 350.229 24.4246 350.269 24.0628C350.289 24.0628 350.328 23.9321 350.388 23.6708C350.388 23.4898 350.14 23.3994 349.644 23.3994H349.525C349.406 23.3994 347.176 23.5703 342.834 23.912C340.256 24.113 338.462 24.2135 337.451 24.2135H336.945C335.399 24.2135 334.378 23.7311 333.882 22.7662C333.605 22.0626 333.466 21.2283 333.466 20.2634H333.436C332.941 21.6907 331.949 22.4043 330.462 22.4043C329.372 22.4043 328.371 22.1028 327.459 21.4997C327.181 21.2384 326.814 20.7961 326.358 20.1729C325.526 19.208 324.812 18.5044 324.217 18.0622C323.701 17.7204 323.404 17.5495 323.325 17.5495V17.4892L323.384 17.5194H323.83C325 17.5194 325.843 16.9465 326.358 15.8006C326.854 14.4135 327.102 12.8154 327.102 11.0062C327.102 9.71959 326.923 8.6441 326.566 7.77969C327.161 8.10133 327.875 8.26215 328.708 8.26215C329.322 8.26215 330.264 8.10133 331.533 7.77969C331.81 7.75959 332.038 7.74954 332.217 7.74954H332.306C333.119 7.74954 333.664 8.08123 333.942 8.74462C333.981 8.80492 334.061 9.0361 334.18 9.43815L337.005 9.34769C335.696 9.34769 334.745 8.86523 334.15 7.90031C333.952 7.47815 333.853 7.08615 333.853 6.72431C333.853 6.30215 334.12 5.61867 334.656 4.67385C335.072 3.64862 335.28 2.59323 335.28 1.50769C335.28 1.30667 335.25 0.944821 335.191 0.422154C335.548 0.784 336.192 1.08554 337.124 1.32677C338.968 1.76903 340.276 2.12082 341.05 2.38215C341.902 2.744 342.477 3.27672 342.774 3.98031C342.913 4.34215 342.983 4.65374 342.983 4.91508C342.983 6.10113 342.051 7.29723 340.187 8.50338C339.196 9.02605 338.432 9.28738 337.897 9.28738V9.31754H338.046C339.275 9.27733 342.16 9.17682 346.7 9.016V8.98585C346.026 8.98585 345.342 8.72451 344.648 8.20185C344.133 7.69928 343.875 7.08615 343.875 6.36246C343.875 5.96041 344.162 5.25682 344.737 4.25169C345.094 3.24656 345.273 2.21128 345.273 1.14585C345.273 0.884513 345.253 0.532718 345.213 0.0904615ZM337.689 9.31754V9.34769H337.838V9.31754H337.689ZM359.458 14.9262L334.269 15.9212H334.209V15.9514C334.209 16.0318 334.18 16.464 334.12 17.248C334.953 17.3887 335.855 17.4591 336.827 17.4591C339.206 17.4591 344.569 17.2178 352.916 16.7354C354.561 16.5947 355.384 16.464 355.384 16.3434C356.256 15.7403 356.891 15.4388 357.287 15.4388H357.436C357.991 15.4388 358.864 16.1223 360.053 17.4892C360.311 17.7707 360.45 17.9114 360.469 17.9114C360.945 17.2279 361.183 16.5947 361.183 16.0117C361.203 16.0117 361.213 15.9916 361.213 15.9514C361.213 15.489 360.955 15.1774 360.44 15.0166C360.162 14.9563 359.944 14.9262 359.785 14.9262H359.637C359.597 14.9262 359.577 14.9161 359.577 14.896C359.518 14.9161 359.478 14.9262 359.458 14.9262Z" fill="white"/>
<path d="M409.316 0.301538C409.97 0.301538 411.031 0.593026 412.498 1.176C413.133 1.37703 413.638 1.60821 414.015 1.86954C414.53 2.19118 414.788 2.75405 414.788 3.55815V4.46277C414.788 4.78441 414.778 5.24677 414.758 5.84985C416.781 5.76944 417.941 5.72923 418.238 5.72923C418.357 5.72923 418.605 5.57846 418.981 5.27692C419.775 4.69395 420.439 4.40246 420.974 4.40246H421.212C421.886 4.40246 422.758 4.91508 423.829 5.94031C425.276 7.20677 426 8.28226 426 9.16677C426 9.52862 425.812 9.96082 425.435 10.4634C425.316 10.584 425.058 11.2172 424.662 12.3631C423.809 14.2929 423.274 15.3182 423.056 15.4388C422.758 15.8609 422.273 16.1625 421.599 16.3434C421.361 16.3836 421.182 16.4037 421.063 16.4037H421.004C420.568 16.4037 420.131 16.3233 419.695 16.1625H419.665C420.696 16.7052 421.212 17.6903 421.212 19.1175C421.212 20.5448 420.746 21.8213 419.814 22.9471C419.2 23.4898 418.753 23.7612 418.476 23.7612C418.635 23.5803 418.714 23.3994 418.714 23.2185C418.615 22.8767 418.327 22.7058 417.851 22.7058L407.651 23.4597C405.688 23.6004 404.141 23.6708 403.011 23.6708C401.128 23.6708 399.938 23.1783 399.443 22.1932C399.244 21.8314 399.096 21.168 398.996 20.2031C398.996 19.9819 398.977 19.4894 398.937 18.7255C398.679 18.7255 398.312 18.5044 397.837 18.0622C397.48 17.5797 397.192 16.9565 396.974 16.1926C396.459 14.9262 395.755 14.0517 394.863 13.5692H394.803L392.602 19.9015V19.9317C393.633 21.3188 394.466 22.8767 395.101 24.6055C395.775 26.5957 396.112 28.5155 396.112 30.3649V30.7871C396.112 33.9633 395.517 36.1042 394.327 37.2098C393.733 37.7928 393.029 38.215 392.216 38.4763C391.72 38.6371 391.304 38.7376 390.967 38.7778C390.808 38.6572 389.311 37.5918 386.476 35.5815V42.5169C386.476 44.1452 386.218 45.1906 385.703 45.6529C384.89 46.457 384.196 47.0199 383.621 47.3415C382.392 48.1255 381.529 48.5175 381.034 48.5175C380.558 48.5175 379.963 48.015 379.249 47.0098C379.111 46.7284 379.041 46.3967 379.041 46.0148C379.061 42.9592 379.071 40.5871 379.071 38.8985V8.71446C379.071 7.85005 378.902 7.32738 378.565 7.14646L377.435 6.90523C377.197 6.74441 377.059 6.664 377.019 6.664V6.63385C377.019 6.31221 377.941 5.03569 379.785 2.80431C380.062 2.42236 380.409 2.23138 380.826 2.23138H381.064C381.52 2.23138 382.005 2.43241 382.521 2.83446C382.858 3.07569 383.78 3.19631 385.287 3.19631C385.782 3.23651 386.407 3.25662 387.16 3.25662H389.42C389.698 3.25662 390.243 2.84451 391.056 2.02031C391.373 1.83938 391.7 1.74892 392.037 1.74892H392.097C392.553 1.74892 393.058 2.01026 393.614 2.53292C393.633 2.53292 394.843 3.4878 397.242 5.39754L397.063 4.88492C397.579 5.22667 398.164 5.39754 398.818 5.39754C399.195 5.39754 399.918 5.28697 400.989 5.06585L401.554 5.00554C402.486 5.00554 403.101 5.38749 403.398 6.15138L403.428 6.272C405.232 6.23179 406.134 6.20164 406.134 6.18154C406.134 4.77436 405.946 3.98031 405.569 3.79938C405.391 3.67877 405.182 3.61846 404.944 3.61846C404.706 3.61846 404.29 3.70892 403.695 3.88985C403.973 3.12595 404.974 2.28164 406.699 1.35692C407.71 0.673436 408.444 0.331692 408.9 0.331692C408.9 0.331692 409.039 0.321641 409.316 0.301538ZM397.539 7.23692C396.607 9.02605 396.062 10.1015 395.904 10.4634C395.289 12.2324 394.962 13.1571 394.922 13.2375H394.952C395.329 13.2375 395.775 13.0667 396.29 12.7249C396.588 12.4435 396.865 11.9007 397.123 11.0966C397.42 10.1518 397.569 9.19692 397.569 8.232V7.74954C397.569 7.62892 397.559 7.45805 397.539 7.23692ZM386.476 10.2825V19.6302H386.506L388.915 10.2825H386.476ZM403.487 13.2074C403.467 13.2275 403.447 13.2375 403.428 13.2375C403.428 13.6396 403.289 14.4839 403.011 15.7705L402.744 16.5243H402.773C404.32 16.5243 408.86 16.2328 416.394 15.6498C416.87 15.4086 417.247 15.1372 417.524 14.8357C417.762 14.6347 417.881 14.1924 417.881 13.5089C417.881 13.0868 417.544 12.8154 416.87 12.6948C416.791 12.6948 416.682 12.6847 416.543 12.6646C408.097 13.0265 403.745 13.2074 403.487 13.2074ZM386.476 20.8062V31.7822L386.625 31.752C387.596 31.752 388.439 31.4304 389.153 30.7871C389.391 30.5257 389.51 30.2745 389.51 30.0332V29.8825C389.51 28.5557 389.063 26.5756 388.171 23.9422C387.656 22.5752 387.14 21.5801 386.625 20.9569C386.625 20.9569 386.575 20.9067 386.476 20.8062ZM396.112 25.2689H396.141C396.954 25.9323 398.263 26.264 400.067 26.264C402.327 26.264 409.187 25.9524 420.647 25.3292H420.706C421.876 25.3292 422.867 25.6911 423.68 26.4148C424.235 26.9977 424.513 27.8018 424.513 28.8271C424.513 30.2745 424.047 31.551 423.115 32.6566C422.58 33.1592 422.124 33.4306 421.747 33.4708C421.926 33.2898 422.015 33.129 422.015 32.9883V32.928C421.916 32.6064 421.638 32.4455 421.182 32.4455C420.905 32.4455 419.695 32.5058 417.554 32.6265V34.2246C417.554 34.687 417.544 35.672 417.524 37.1797C417.524 38.9889 417.891 40.2051 418.625 40.8283C418.882 41.0494 419.348 41.16 420.022 41.16C420.895 41.16 421.509 40.7077 421.866 39.8031C422.084 39.4211 422.322 38.4462 422.58 36.8782C422.719 35.8931 422.877 35.0488 423.056 34.3452H423.086C423.086 37.9235 423.611 40.2353 424.662 41.2806C425.237 41.944 425.574 42.5169 425.673 42.9994C425.772 43.4416 425.822 43.7633 425.822 43.9643C425.822 45.854 424.929 47.2511 423.145 48.1557C422.431 48.4572 421.509 48.608 420.379 48.608C420.379 48.6281 420.121 48.6482 419.606 48.6683C417.048 48.6683 415.264 48.4371 414.253 47.9748C412.806 47.4119 411.745 46.5073 411.071 45.2609C410.496 44.0749 410.208 42.6777 410.208 41.0695V40.4062C410.208 40.1649 410.258 38.8382 410.357 36.4258C410.377 36.0439 410.387 35.5313 410.387 34.888C410.387 34.104 410.367 33.4909 410.327 33.0486C410.129 33.0486 409.405 33.0788 408.156 33.1391V33.4406C408.156 35.9132 407.77 38.6271 406.996 41.5822C406.441 43.3512 405.847 44.7383 405.212 45.7434C404.895 46.2862 404.36 46.9495 403.606 47.7335C403.547 47.7536 403.348 47.9044 403.011 48.1858C402.278 48.7286 401.564 49 400.87 49H400.751C399.72 49 398.838 48.6281 398.104 47.8843C397.886 47.6833 397.599 47.1405 397.242 46.256C396.726 45.2107 396.34 44.3563 396.082 43.6929C395.309 42.4466 394.674 41.8234 394.179 41.8234V41.7932C394.972 41.6525 395.586 41.4917 396.023 41.3108C398.203 40.4062 399.879 38.6974 401.049 36.1846C401.623 34.6769 401.911 33.7422 401.911 33.3803C401.812 33.3803 401.604 33.3904 401.286 33.4105C399.403 33.4105 398.213 33.0486 397.718 32.3249C397.42 32.0033 397.212 31.551 397.093 30.968C397.014 30.5257 396.925 29.4905 396.826 27.8622C396.687 26.8369 396.488 26.0328 396.231 25.4498C396.211 25.4498 396.171 25.3895 396.112 25.2689Z" fill="white"/>
</svg>
