<svg width="509" height="597" viewBox="0 0 509 597" fill="none" xmlns="http://www.w3.org/2000/svg">
<mask id="mask0_435_4695" style="mask-type:alpha" maskUnits="userSpaceOnUse" x="0" y="111" width="323" height="323">
<circle cx="161.5" cy="272.5" r="161.5" fill="#C4C4C4"/>
</mask>
<g mask="url(#mask0_435_4695)">
<circle cx="161.5" cy="272.5" r="161.5" fill="#A6D836"/>
<g clip-path="url(#clip0_435_4695)">
<path d="M199.914 416.354C198.784 418.894 193.417 421.716 192.005 424.256C184.944 435.826 188.898 434.133 176.753 425.384C176.47 425.384 176.47 425.102 176.188 424.82C173.645 421.434 167.996 423.127 168.279 417.765C168.279 416.636 169.409 416.072 168.279 415.79C150.484 411.839 129.018 405.066 112.918 394.907C111.788 394.061 110.375 394.625 109.811 395.754L102.467 413.25C102.184 413.814 102.184 414.379 102.467 414.943C103.032 416.354 102.749 416.354 104.444 418.894C110.658 427.36 121.109 437.519 135.514 449.936C135.796 450.218 136.079 450.218 136.361 450.5L154.156 455.58C154.439 455.58 155.003 455.58 155.286 455.58C155.568 455.58 155.851 455.297 156.416 455.297C156.416 455.297 156.698 455.297 156.698 455.015C171.951 450.5 186.921 447.114 201.609 444.856C202.738 444.574 200.479 445.138 201.609 444.856C203.303 437.801 204.151 427.924 204.433 419.741C204.433 419.176 204.151 418.33 203.586 418.047L199.914 416.354Z" fill="#DE5C58"/>
<path d="M135.796 450.218C121.391 437.801 110.658 427.36 104.444 418.894C96.5347 433.568 90.0383 442.316 85.2365 447.678C70.5489 450.218 72.526 456.426 74.2208 463.481C80.9997 477.591 97.0997 481.26 104.726 472.794C114.047 466.303 127.605 459.813 135.796 450.218Z" fill="white"/>
<path d="M197.936 427.36C199.348 424.82 203.585 415.508 204.715 412.968C210.364 398.576 212.059 375.153 205.845 363.301L65.1821 324.64C47.9523 346.369 68.2891 367.252 115.177 388.135L122.238 366.123L115.177 388.135L112.917 394.907C129.582 405.349 147.094 412.404 165.454 416.354C166.301 409.299 169.126 400.269 174.492 389.546C169.408 400.269 166.301 409.017 165.454 416.354C164.889 422.845 162.629 429.9 167.431 434.979C180.989 445.703 190.875 439.212 197.936 427.36Z" fill="white"/>
<path d="M65.7475 324.076C64.0527 326.333 62.9229 327.744 62.358 328.873C61.7931 330.002 71.1141 351.167 98.2299 362.172C131.842 376 161.782 375.718 184.379 372.331C206.975 369.227 213.754 360.761 213.754 360.761L118.849 350.884L65.7475 324.076Z" fill="#E3E2E2"/>
<path d="M105.291 203.295C105.291 203.295 102.466 166.045 114.047 160.401C125.628 154.757 130.147 188.621 130.147 188.621L105.291 203.295Z" fill="#DCDCDD"/>
<path d="M225.052 209.786C225.052 209.786 231.831 173.1 220.815 166.327C209.799 159.555 201.891 192.572 201.891 192.572L225.052 209.786Z" fill="#DCDCDD"/>
<path d="M81.5648 240.827C80.435 241.392 16.0352 267.072 16.0352 267.072C16.0352 267.072 39.479 313.352 85.2367 280.617C116.589 257.759 81.5648 240.827 81.5648 240.827Z" fill="white"/>
<path d="M81.5648 240.827C80.435 241.392 16.0352 267.072 16.0352 267.072C16.0352 267.072 39.479 313.352 85.2367 280.617C116.589 257.759 81.5648 240.827 81.5648 240.827Z" fill="white"/>
<path d="M69.1364 244.778C66.5943 246.754 64.8996 249.858 63.4873 252.68C58.4031 262.557 55.861 273.28 54.1662 284.286C53.8838 286.543 53.8838 291.905 53.8838 291.905C58.6855 292.752 60.9452 292.47 64.6171 292.752C65.182 282.875 68.0066 273.28 69.7013 263.403C70.5487 258.042 71.1136 252.68 72.8083 247.6C73.0908 246.754 73.3732 245.625 72.8083 244.778C72.2434 244.214 71.6785 244.214 70.8311 244.214C70.2662 244.496 69.4188 244.778 68.8539 245.343" fill="#E3E2E2"/>
<path d="M244.824 249.575C245.672 250.14 306.964 282.875 306.964 282.875C306.964 282.875 278.436 326.333 236.633 288.801C207.823 262.839 244.824 249.575 244.824 249.575Z" fill="white"/>
<path d="M244.824 249.575C245.672 250.14 306.964 282.875 306.964 282.875C306.964 282.875 278.436 326.333 236.633 288.801C207.823 262.839 244.824 249.575 244.824 249.575Z" fill="white"/>
<path d="M244.824 249.575C245.672 250.14 306.964 282.875 306.964 282.875C306.964 282.875 278.436 326.333 236.633 288.801C207.823 262.839 244.824 249.575 244.824 249.575Z" fill="white"/>
<path d="M256.97 254.655C259.512 258.324 261.489 263.121 262.901 267.636C266.008 276.666 266.008 286.543 266.008 296.138C266.008 298.678 266.008 302.346 265.443 304.04C263.466 303.757 260.924 303.757 260.359 302.064C260.077 301.5 260.077 300.089 260.077 299.242C260.077 287.954 257.534 276.666 255.275 265.661C254.71 262.274 254.145 258.324 256.122 255.502" fill="#E3E2E2"/>
<path d="M260.924 274.409C251.32 214.583 170.538 200.473 166.301 200.473C161.782 200.191 79.0226 205.835 62.9226 263.685C49.6472 311.095 66.0296 336.492 85.8015 350.32C103.879 363.019 134.949 368.381 156.415 369.792C178.164 370.92 209.517 368.945 228.724 358.222C249.626 346.369 268.833 322.947 260.924 274.409Z" fill="white"/>
<path d="M260.924 274.409C251.32 214.583 170.538 200.473 166.301 200.473C161.782 200.191 79.0226 205.835 62.9226 263.685C49.6472 311.095 66.0296 336.492 85.8015 350.32C103.879 363.019 134.949 368.381 156.415 369.792C178.164 370.92 209.517 368.945 228.724 358.222C249.626 346.369 268.833 322.947 260.924 274.409Z" fill="white"/>
<path d="M258.382 241.674C252.167 212.043 217.143 180.719 167.713 177.897C118.284 175.075 75.6329 202.166 68.5715 231.233C68.5715 231.233 66.5943 237.441 66.5943 240.827C65.7469 257.477 79.3048 271.587 97.0995 272.433C114.894 273.28 129.864 260.863 130.994 244.214C131.277 240.827 131.277 240.827 130.994 244.214C130.147 260.863 143.705 274.973 161.499 275.82C179.294 276.666 194.264 264.25 195.394 247.6C195.676 244.214 195.676 244.214 195.394 247.6C194.547 264.25 208.104 278.36 225.899 279.206C243.694 280.053 258.664 267.636 259.794 250.986C259.511 247.882 258.382 241.674 258.382 241.674Z" fill="#EC6968"/>
<path d="M91.168 200.755C85.2364 205.835 103.314 214.583 106.421 215.994C131.277 228.411 161.782 224.178 187.485 216.841C199.348 213.454 214.319 208.375 223.357 200.191C222.51 199.344 217.426 199.062 216.296 199.344C195.959 203.86 175.057 206.399 153.873 206.964C143.14 207.246 132.406 206.964 121.673 204.988C111.505 203.013 101.336 199.627 91.168 200.473C91.7329 199.909 92.0153 199.627 92.5803 199.062" fill="#C63F3E"/>
<path d="M243.695 216.841C245.672 222.485 242.847 228.975 237.198 230.951C231.549 232.926 225.053 230.104 223.075 224.46C221.098 218.816 223.923 212.326 229.572 210.35C235.221 208.093 241.435 211.197 243.695 216.841Z" fill="#C63F3E"/>
<path d="M158.393 326.333C157.263 326.051 156.698 325.204 156.698 324.076L157.828 302.629C157.828 301.5 158.958 300.653 160.088 300.653C161.218 300.653 162.065 301.782 162.065 302.911L160.935 324.358C160.653 325.487 159.805 326.615 158.393 326.333C158.675 326.333 158.393 326.333 158.393 326.333Z" fill="#070204"/>
<path d="M186.356 315.328C186.356 315.328 188.333 326.615 185.508 337.339C178.447 331.977 169.126 328.591 158.675 328.026C148.789 327.462 139.468 329.72 131.842 333.67C130.429 322.947 133.536 312.223 133.536 312.223L186.356 315.328Z" fill="#C13533"/>
<path d="M158.675 328.026C169.126 328.591 178.447 331.977 185.508 337.339C182.684 347.78 175.34 357.657 156.698 356.528C138.903 355.682 132.972 344.394 131.842 333.67C139.186 329.437 148.507 327.462 158.675 328.026Z" fill="#EC7273"/>
<path d="M161.217 302.911C160.087 302.911 159.522 301.782 159.522 300.653C159.522 299.525 160.652 298.678 161.782 298.678C168.561 298.96 171.103 292.47 171.103 292.187C171.386 291.059 172.515 290.494 173.645 291.059C174.775 291.341 175.34 292.752 174.775 293.598C173.645 296.985 169.408 303.193 161.217 302.911C161.5 302.911 161.217 302.911 161.217 302.911Z" fill="#070204"/>
<path d="M158.393 302.629C150.484 301.5 146.812 295.574 145.965 292.187C145.682 291.059 146.247 289.93 147.377 289.648C148.507 289.365 149.636 289.93 149.919 291.059C149.919 291.341 152.179 298.678 160.935 298.678C162.065 298.678 162.912 299.525 162.912 300.653C162.912 301.782 162.065 302.629 160.935 302.629C160.087 302.911 159.24 302.629 158.393 302.629Z" fill="#070204"/>
<path d="M106.421 310.812C106.138 316.738 99.0767 321.254 90.8855 320.689C82.6943 320.125 76.1979 315.045 76.7628 309.119C77.0452 303.193 84.1066 298.678 92.2978 299.242C100.489 299.807 106.703 304.886 106.421 310.812Z" fill="#F19596"/>
<path d="M241.716 318.15C241.434 324.076 234.373 328.591 226.181 328.026C217.99 327.462 211.494 322.382 212.059 316.456C212.341 310.53 219.403 306.015 227.594 306.579C235.785 307.144 242.281 312.223 241.716 318.15Z" fill="#F19596"/>
<path d="M111.788 301.782C110.658 301.782 110.093 300.653 110.093 299.807C110.093 299.525 110.093 291.341 114.895 287.108C117.154 285.132 119.979 284.004 123.368 284.286C126.758 284.568 129.3 285.697 131.277 287.954C135.231 293.034 134.101 300.935 134.101 301.218C133.819 302.346 132.972 303.193 131.842 302.911C130.712 302.629 129.865 301.782 130.147 300.653C130.147 300.653 130.994 294.163 128.17 290.494C127.04 289.083 125.345 288.237 123.368 288.237C121.109 288.237 119.414 288.801 118.002 289.93C114.612 293.034 114.33 299.807 114.33 299.807C114.33 300.935 113.2 301.782 111.788 301.782C112.07 301.782 112.07 301.782 111.788 301.782Z" fill="#070204"/>
<path d="M186.639 305.733C185.791 305.733 184.944 304.886 184.944 303.758C184.944 303.475 184.661 295.292 189.181 290.777C191.44 288.801 193.982 287.672 197.372 287.955C200.761 288.237 203.304 289.366 205.281 291.623C209.518 296.703 208.67 304.604 208.67 304.886C208.67 306.015 207.54 306.862 206.411 306.58C205.281 306.58 204.433 305.451 204.716 304.322C204.716 304.322 205.281 297.831 202.174 294.163C201.044 292.752 199.349 291.905 197.089 291.905C194.83 291.905 193.135 292.47 192.005 293.598C189.181 296.42 188.898 301.5 188.898 303.475C188.898 304.604 188.051 305.451 186.921 305.733C186.921 305.733 186.921 305.733 186.639 305.733Z" fill="#070204"/>
<path d="M174.493 389.546C174.493 389.546 173.363 385.595 166.584 401.116C162.63 410.428 162.63 415.79 162.63 415.79L165.454 416.354C165.454 416.354 166.302 410.71 168.844 403.091C171.386 394.625 174.493 389.546 174.493 389.546Z" fill="#E3E2E2"/>
<path d="M95.6875 190.596C96.8173 184.106 115.459 152.217 134.384 137.825C153.308 123.433 204.715 137.825 215.731 146.573C227.029 155.322 227.877 169.996 230.984 178.18C236.068 192.289 240.305 214.301 231.549 211.761C222.792 209.221 213.189 178.462 210.647 182.13C208.105 185.799 199.631 195.111 199.631 195.111L152.461 204.706L95.6875 190.596Z" fill="#DC3F3E"/>
<path d="M180.99 157.297C181.837 156.733 211.495 181.848 211.495 181.848C211.495 181.848 209.518 192.007 199.349 194.265C189.181 196.522 208.953 192.572 209.235 188.903C209.518 185.235 175.905 160.119 180.99 157.297Z" fill="#AF1F24"/>
<path d="M89.474 200.191C86.9319 206.399 121.391 224.178 164.325 217.405C207.258 210.632 219.403 204.424 220.816 199.344C222.228 194.265 211.495 181.848 211.495 181.848C211.495 181.848 192.57 192.289 157.263 197.087C142.576 199.062 108.116 191.161 101.62 184.952C95.1231 178.462 91.4512 195.676 89.474 200.191Z" fill="white"/>
<path d="M244.542 214.301C246.519 219.663 243.695 225.589 238.328 227.564C232.962 229.54 227.03 226.718 225.053 221.356C223.076 215.994 225.9 210.068 231.267 208.093C236.633 206.117 242.565 208.939 244.542 214.301Z" fill="white"/>
<path d="M177.035 154.475C182.402 157.579 205.563 179.308 210.082 185.799C214.602 192.29 224.77 209.221 228.442 208.657C232.114 208.093 230.984 188.903 230.702 189.185C230.137 189.185 186.639 144.598 186.639 144.598L177.035 154.475Z" fill="#DC3F3E"/>
<g clip-path="url(#clip1_435_4695)">
<path d="M145.914 305.322C145.914 297.466 152.495 291.09 160.603 291.09C168.71 291.09 175.292 297.466 175.292 305.322" fill="url(#paint0_linear_435_4695)"/>
<path d="M145.914 305.322C145.914 297.466 152.495 291.09 160.603 291.09C168.71 291.09 175.292 297.466 175.292 305.322" stroke="url(#paint1_linear_435_4695)" stroke-miterlimit="10"/>
<path d="M193.796 319.091C204.332 319.091 212.873 310.816 212.873 300.608C212.873 290.4 204.332 282.125 193.796 282.125C183.261 282.125 174.72 290.4 174.72 300.608C174.72 310.816 183.261 319.091 193.796 319.091Z" fill="url(#paint2_linear_435_4695)" stroke="url(#paint3_linear_435_4695)" stroke-miterlimit="10"/>
<path d="M127.219 319.091C137.755 319.091 146.296 310.816 146.296 300.608C146.296 290.4 137.755 282.125 127.219 282.125C116.683 282.125 108.143 290.4 108.143 300.608C108.143 310.816 116.683 319.091 127.219 319.091Z" fill="url(#paint4_linear_435_4695)" stroke="url(#paint5_linear_435_4695)" stroke-miterlimit="10"/>
<path d="M211.919 301.902L243.491 290.35" stroke="url(#paint6_linear_435_4695)" stroke-miterlimit="10" stroke-linecap="round" stroke-linejoin="round"/>
</g>
</g>
</g>
<mask id="mask1_435_4695" style="mask-type:alpha" maskUnits="userSpaceOnUse" x="204" y="0" width="136" height="136">
<circle cx="272" cy="68" r="68" fill="#C4C4C4"/>
</mask>
<g mask="url(#mask1_435_4695)">
<circle cx="272" cy="68.0002" r="68" fill="#F5B842"/>
<g clip-path="url(#clip2_435_4695)">
<path d="M257.126 10.1196C250.741 10.3404 249.312 15.5566 249.52 21.0897L251.474 77.8081C251.609 82.2023 255.363 85.6574 259.757 85.5235C264.15 85.3895 267.633 81.699 267.498 77.3048L265.544 20.5863C265.306 14.9895 263.511 9.8988 257.126 10.1196Z" fill="#939293"/>
<path d="M256.811 10.1134C250.738 10.4984 249.343 15.6205 249.52 21.0898L251.474 77.8082C251.619 81.7287 254.62 84.9161 258.37 85.4013C262.578 85.0425 265.776 81.4095 265.638 77.1732L263.684 20.4547C263.497 15.4592 261.948 10.7209 256.811 10.1134Z" fill="#B5B6B6"/>
<path d="M281.369 9.30561C274.984 9.52639 273.555 14.7426 273.763 20.2757L275.717 76.9941C275.852 81.3884 279.606 84.8435 284 84.7095C288.393 84.5756 291.877 80.885 291.741 76.4908L289.788 19.7724C289.55 14.1755 287.754 9.08483 281.369 9.30561Z" fill="#939293"/>
<path d="M281.054 9.29924C274.982 9.6842 273.586 14.8063 273.764 20.2756L275.718 76.994C275.862 80.9145 278.863 84.1019 282.613 84.5871C286.821 84.2283 290.019 80.5953 289.881 76.3589L287.927 19.6405C287.71 14.5812 286.191 9.90672 281.054 9.29924Z" fill="#B5B6B6"/>
<path d="M260.664 50.4406C260.706 51.5156 259.835 52.4777 258.76 52.5196C257.685 52.5614 256.723 51.6893 256.681 50.6143L255.667 21.6857C255.625 20.6106 256.497 19.6485 257.572 19.6067C258.647 19.5648 259.609 20.437 259.651 21.512L260.664 50.4406Z" fill="white"/>
<path d="M284.592 49.6204C284.634 50.6954 283.762 51.6575 282.688 51.6994C281.613 51.7412 280.651 50.8691 280.609 49.794L279.565 20.8016C279.523 19.7266 280.394 18.7645 281.469 18.7226C282.544 18.6808 283.506 19.5529 283.548 20.628L284.592 49.6204Z" fill="white"/>
<path d="M315.216 77.8413C318.209 97.6154 308.755 115.879 272.911 117.126C240.069 118.275 226.67 102.433 227.977 80.8486C229.232 60.3058 246.228 42.4451 270.313 41.6278C294.368 40.7468 312.081 57.2746 315.216 77.8413Z" fill="#B5B6B6"/>
<path d="M294.248 124.342C293.839 122.66 293.111 121.129 292.859 119.449C292.662 118.213 292.684 117.108 292.01 116.02C291.306 114.869 290.733 113.499 289.549 112.654C288.614 112.004 286.777 112.251 285.803 112.011C285.111 111.871 284.24 111.19 283.551 110.892C281.483 109.998 279.31 109.702 277.039 109.531C271.015 109.032 264.767 110.361 259.343 113.097C256.876 119.746 253.72 132.51 254.685 152.623C255.883 154.322 256.957 155.923 258.445 157.405C259.498 158.469 260.457 159.499 261.704 160.314C263.076 161.225 264.679 161.636 266.148 162.424C268.774 163.835 270.829 165.36 273.902 164.916C278.747 164.254 281.688 160.9 284.913 157.489C289.107 152.991 292.643 148.259 294.09 142.095C295.407 136.15 295.743 130.28 294.248 124.342Z" fill="#B5B6B6"/>
<path d="M291.859 115.701C293.603 118.548 300.107 126.797 303.586 136.249C305.597 141.628 305.814 146.688 302.406 149.716C297.969 153.704 293.046 150.257 293.046 150.257" fill="#B5B6B6"/>
<path d="M255.522 127.586C255.522 127.586 252.54 147.62 254.879 162.074C256.99 175.227 258.495 179.048 267.588 177.617C274.21 176.58 272.368 165.801 272.368 165.801L276.351 165.628C276.351 165.628 276.008 176.742 282.444 177.122C291.564 177.556 292.753 173.315 294.041 160.734C295.369 147.744 291.017 126.426 291.017 126.426" fill="#B5B6B6"/>
<path d="M247.05 95.6341C247.08 97.3408 245.789 98.7369 244.083 98.7662C242.377 98.7955 240.981 97.504 240.951 95.7974L240.5 83.3404C240.47 81.6337 241.761 80.2376 243.467 80.2083C245.173 80.179 246.57 81.4704 246.663 83.1468L247.05 95.6341Z" fill="black"/>
<path d="M303.377 93.7193C303.47 95.3956 302.116 96.8221 300.409 96.8514C298.703 96.8807 297.307 95.5892 297.277 93.8826L296.826 81.4256C296.796 79.7189 298.087 78.3228 299.793 78.2935C301.5 78.2642 302.896 79.5557 302.989 81.232L303.377 93.7193Z" fill="black"/>
<path d="M292.101 90.3992C292.405 99.0936 283.637 106.471 272.543 106.819C261.449 107.167 252.231 100.444 251.927 91.7501C251.624 83.0558 260.391 75.6788 271.485 75.3304C282.579 74.9819 291.861 81.6745 292.101 90.3992Z" fill="white"/>
<path d="M265.963 84.762L278.16 97.4205" stroke="black" stroke-width="2.8541" stroke-miterlimit="10" stroke-linecap="round"/>
<path d="M277.721 84.3321L266.371 97.7869" stroke="black" stroke-width="2.8541" stroke-miterlimit="10" stroke-linecap="round"/>
<path d="M235.79 59.2987C235.498 59.672 235.27 60.015 235.043 60.3581C235.073 60.4218 235.137 60.3915 235.167 60.4553L235.79 59.2987Z" fill="#A7A5A6"/>
<path d="M299.585 55.0046C304.259 58.2568 305.277 56.2866 305.277 56.2866C297.153 46.9314 284.916 41.0964 270.313 41.6279C255.393 42.1532 243.253 49.1788 235.82 59.3625C235.82 59.3625 236.982 61.3128 240.611 58.257C240.772 58.1023 240.869 57.9778 241.061 57.8868L241.124 57.8565C241.383 57.5773 241.607 57.3922 241.799 57.3012C246.967 53.0438 255.88 47.9446 269.546 46.9205C269.61 46.8902 269.673 46.8598 269.704 46.9236L269.767 46.8933C269.831 46.863 269.925 46.8964 269.989 46.8661C270.147 46.8692 270.211 46.8389 270.369 46.8421C270.432 46.8117 270.526 46.8452 270.526 46.8452C270.621 46.8786 270.684 46.8483 270.778 46.8818C284.778 46.5594 294.164 51.1689 299.585 55.0046Z" fill="#939293"/>
<path d="M291.051 126.332C291.051 126.332 293.612 139.116 294.203 150.88C294.61 151.078 295.175 151.279 295.773 151.385C293.133 128.08 291.051 126.332 291.051 126.332Z" fill="#939293"/>
<path d="M291.125 114.486C286.297 115.844 280.562 116.772 273.955 117.02C273.576 117.045 273.26 117.038 272.88 117.062C267.506 117.272 262.585 116.953 258.207 116.297C258.104 116.737 257.937 117.208 257.77 117.679C262.336 118.401 267.384 118.659 272.852 118.483C273.232 118.459 273.611 118.435 273.927 118.442C277.057 118.283 280.063 118.026 282.851 117.639C291.974 116.272 291.125 114.486 291.125 114.486Z" fill="#939293"/>
<path d="M266.262 113.013C266.262 113.013 260.44 136.119 249.615 132.429C237.63 128.273 248.022 112.145 252.951 107.22C257.88 102.294 261.518 102.051 263.518 103.133C266.581 104.805 267.7 108.966 266.262 113.013Z" fill="#B5B6B6"/>
<path d="M252.952 107.22C256.238 103.936 259.01 102.696 261.096 102.642C262.077 102.567 262.893 102.805 263.613 103.166C266.675 104.838 267.7 108.966 266.357 113.047C266.357 113.047 262.42 128.607 255.023 132.125C255.023 132.125 259.158 132.271 264.137 123.176C266.343 118.607 267.568 114.113 267.738 113.485C269.346 108.809 267.893 103.946 264.299 101.979C263.361 101.487 262.229 101.243 261.06 101.252C259.226 101.342 257.772 101.408 255.652 103.198C250.431 108.497 248.025 113.63 248.025 113.63C249.656 110.977 251.533 108.677 252.952 107.22Z" fill="#939293"/>
<path d="M264.205 101.946C263.267 101.453 262.134 101.21 260.966 101.218C259.669 101.287 258.594 101.329 257.286 102.03C257.783 102.419 258.281 102.808 258.749 103.133C259.544 102.833 260.337 102.691 261.001 102.609C261.982 102.534 262.799 102.771 263.518 103.133C264.769 103.79 265.664 104.85 266.237 106.22C266.772 106.357 267.276 106.43 267.874 106.537C267.249 104.565 265.987 102.897 264.205 101.946Z" fill="#E2E2E1"/>
<path d="M306.505 53.2779L306.474 53.2141C306.383 53.0228 303.831 49.4652 298.088 45.939C292.876 42.7077 283.855 38.8637 270.681 38.9497C270.587 38.9163 270.493 38.8828 270.429 38.9131C270.271 38.91 270.113 38.9069 269.986 38.9675C269.892 38.9341 269.764 38.9947 269.67 38.9613C269.606 38.9916 269.576 38.9278 269.512 38.9581C269.418 38.9247 269.354 38.955 269.196 38.9519C269.133 38.9822 269.038 38.9487 268.975 38.979C255.783 40.0125 247.131 44.6746 242.227 48.337C236.809 52.3998 234.619 56.1792 234.552 56.3675L234.518 56.4616C234.485 56.5557 234.218 57.3086 234.582 58.0741C234.855 58.6482 235.383 59.101 236.136 59.3687L236.23 59.4022C236.23 59.4022 236.23 59.4022 236.324 59.4357C236.482 59.4388 236.576 59.4723 236.734 59.4754C237.271 59.4545 237.845 59.1815 238.392 58.6869L238.455 58.6565C242.68 54.2225 252.243 46.5454 269.452 45.2441C269.516 45.2138 269.58 45.1835 269.61 45.2473L269.674 45.2169C269.738 45.1866 269.832 45.2201 269.896 45.1897C270.053 45.1929 270.117 45.1626 270.275 45.1657C270.339 45.1354 270.433 45.1688 270.433 45.1688C270.527 45.2023 270.591 45.172 270.685 45.2054C287.399 45.0001 297.567 51.584 302.165 55.4981C303.003 56.273 303.786 56.6045 304.482 56.5867C304.639 56.5898 304.703 56.5595 304.831 56.4989C304.895 56.4685 304.894 56.4685 304.958 56.4382L305.213 56.3169C305.915 55.9833 306.461 55.4886 306.662 54.9239C306.899 54.1072 306.535 53.3417 306.505 53.2779Z" fill="#249953"/>
<path d="M306.143 53.9975C306.501 53.4359 306.258 52.9256 306.073 52.7008C306.043 52.637 305.949 52.6035 305.888 52.4759C304.838 51.2545 302.331 48.614 298.088 45.9391C292.876 42.7078 283.854 38.8638 270.68 38.9498C270.586 38.9164 270.492 38.8829 270.428 38.9132C270.271 38.9101 270.113 38.907 269.985 38.9676C269.891 38.9342 269.764 38.9948 269.669 38.9614C269.606 38.9917 269.575 38.9279 269.512 38.9582C269.417 38.9248 269.354 38.9551 269.196 38.952C269.132 38.9823 269.038 38.9488 268.974 38.9792C255.782 40.0126 247.131 44.6748 242.226 48.3371C236.808 52.3999 234.618 56.1793 234.551 56.3676L234.518 56.4617C234.484 56.5558 234.384 56.8382 234.405 57.3757C234.745 57.7615 235.118 58.0533 235.683 58.2541L235.777 58.2875C235.777 58.2875 235.777 58.2875 235.871 58.321C236.029 58.3241 236.123 58.3576 236.281 58.3607C236.819 58.3398 237.392 58.0669 237.939 57.5722L238.003 57.5419C242.228 53.1078 251.791 45.4307 269 44.1295C269.063 44.0992 269.127 44.0688 269.158 44.1326L269.221 44.1023C269.285 44.072 269.379 44.1054 269.443 44.0751C269.601 44.0782 269.665 44.0479 269.822 44.051C269.886 44.0207 269.98 44.0542 269.98 44.0542C270.074 44.0876 270.138 44.0573 270.232 44.0908C286.946 43.8855 297.534 50.0353 302.068 53.9798C302.906 54.7547 303.689 55.0862 304.384 55.0684C304.542 55.0715 304.606 55.0412 304.734 54.9805C304.797 54.9502 304.797 54.9502 304.861 54.9199L305.116 54.7986C305.532 54.5225 305.821 54.3071 306.143 53.9975Z" fill="#4DB457"/>
<path d="M244.962 47.3487C244.962 47.3487 237.357 38.92 236.406 21.3033C236.098 16.0526 231.544 16.3413 229.109 18.1254C224.593 21.29 224.53 35.7904 239.91 48.8912C239.91 48.8912 242.993 51.1009 244.308 50.0844C246.009 48.728 245.299 47.8924 244.962 47.3487Z" fill="#BD6E2F"/>
<path d="M244.279 50.0206C244.728 49.6504 245.05 49.3408 245.214 49.0281C241.734 50.9179 235.601 43.1188 235.601 43.1188C229.449 36.2671 228.434 30.023 228.434 30.023C226.16 20.3101 231.593 17.1005 231.721 17.0399C231.499 17.0671 231.277 17.0943 231.086 17.1853C231.022 17.2156 231.022 17.2156 230.958 17.2459C230.767 17.3369 230.609 17.3338 230.418 17.4247C230.354 17.4551 230.29 17.4854 230.29 17.4854C230.163 17.5461 229.972 17.637 229.844 17.6977C229.78 17.728 229.717 17.7584 229.717 17.7584C229.525 17.8493 229.364 18.0041 229.173 18.0951C224.593 21.29 224.531 35.7904 239.91 48.8912C239.91 48.8912 242.964 51.0371 244.279 50.0206Z" fill="#A25624"/>
<path d="M229.507 28.4962C229.507 28.4962 225.117 26.8294 223.457 24.4901C221.828 22.2146 216.574 25.9647 222.563 29.8433C228.582 33.7857 233.447 30.5333 229.507 28.4962Z" fill="#BD6E2F"/>
<path d="M233.21 36.1207C233.21 36.1207 228.523 36.7859 225.988 35.5666C223.453 34.3473 220.685 40.2004 227.814 40.7211C235.006 41.2114 237.604 35.9868 233.21 36.1207Z" fill="#BD6E2F"/>
<path d="M228.812 31.6419L228.637 30.9434C224.246 30.9194 222.164 29.172 220.881 26.9665C219.564 24.8552 221.574 23.8209 221.574 23.8209C219.764 24.2905 218.321 27.0105 222.626 29.813C225.057 31.4726 227.261 31.8323 228.812 31.6419Z" fill="#A25624"/>
<path d="M232.642 39.3636C232.642 39.3636 228.616 40.1051 225.629 39.414C222.641 38.7228 223.762 36.3123 223.826 36.282C222.787 37.7147 223.178 40.3447 227.908 40.7546C230.085 40.8926 231.797 40.5474 233.073 39.9409L232.642 39.3636Z" fill="#A25624"/>
<path d="M295.103 45.09C295.103 45.09 301.883 35.9991 301.312 18.3584C301.132 13.047 305.744 13.0438 308.242 14.5151C313.02 17.327 314.411 31.7615 300.201 46.1074C300.201 46.1074 297.373 48.5472 295.937 47.6657C294.253 46.5896 294.839 45.685 295.103 45.09Z" fill="#BD6E2F"/>
<path d="M296.031 47.6991C295.564 47.3739 295.191 47.0821 295.069 46.827C298.703 48.384 304.11 40.0242 304.11 40.0242C309.623 32.709 310.126 26.3686 310.126 26.3686C311.456 16.5061 305.856 13.7726 305.667 13.7057C305.919 13.7423 306.077 13.7454 306.329 13.782L306.423 13.8155C306.612 13.8824 306.77 13.8856 306.958 13.9525C307.052 13.9859 307.052 13.9859 307.146 14.0194C307.334 14.0863 307.428 14.1198 307.616 14.1867C307.711 14.2202 307.711 14.2202 307.805 14.2536C307.993 14.3206 308.211 14.4513 308.4 14.5182C313.177 17.3301 314.569 31.7646 300.358 46.1105C300.295 46.1409 297.467 48.5807 296.031 47.6991Z" fill="#A25624"/>
<path d="M308.827 24.9527C308.827 24.9527 313.07 22.857 314.506 20.4528C315.913 17.9848 321.471 21.2861 315.856 25.7557C310.274 30.1313 305.18 27.3131 308.827 24.9527Z" fill="#BD6E2F"/>
<path d="M305.862 32.8555C305.862 32.8555 310.595 33.1074 312.96 31.6695C315.39 30.2012 318.661 35.7635 311.626 36.9192C304.527 38.1052 301.465 33.1473 305.862 32.8555Z" fill="#BD6E2F"/>
<path d="M309.81 28.0052L309.95 27.3129C314.286 26.8935 316.251 24.9421 317.338 22.6257C318.456 20.3731 316.356 19.5732 316.356 19.5732C318.15 19.8932 319.837 22.4542 315.889 25.6616C313.578 27.5429 311.355 28.1307 309.81 28.0052Z" fill="#A25624"/>
<path d="M306.683 36.0628C306.683 36.0628 310.782 36.4601 313.675 35.4749C316.569 34.4898 315.255 32.2205 315.225 32.1567C316.399 33.4754 316.283 36.1902 311.562 36.9495C309.439 37.2549 307.642 37.0928 306.325 36.6244L306.683 36.0628Z" fill="#A25624"/>
</g>
</g>
<mask id="mask2_435_4695" style="mask-type:alpha" maskUnits="userSpaceOnUse" x="137" y="447" width="112" height="112">
<circle cx="193" cy="503" r="56" fill="#C4C4C4"/>
</mask>
<g mask="url(#mask2_435_4695)">
<circle cx="200.605" cy="498.969" r="63.6049" fill="#D8DEEF"/>
<g clip-path="url(#clip3_435_4695)">
<path d="M164.445 559.316L163.396 559.505C163.396 560.169 165.493 561.308 165.969 561.687C169.114 563.775 172.448 564.913 176.069 565.862C177.022 566.146 177.975 566.431 178.928 566.621C179.595 566.81 180.262 567 180.262 567C181.596 566.905 183.406 566.051 184.454 565.292C183.692 564.628 182.739 564.533 181.786 564.344C179.309 563.964 176.832 563.68 174.449 562.921C173.02 562.446 171.591 561.782 170.257 561.023C168.923 560.359 167.589 559.6 166.35 558.746C166.064 558.557 165.874 558.462 165.588 558.367C165.207 558.272 164.73 558.462 164.54 558.746" fill="#E2E1E1"/>
<path d="M170.066 490.631C167.303 487.974 168.351 480.48 170.828 478.772C173.306 477.064 173.877 484.749 176.26 485.792C178.642 486.836 172.639 493.192 170.066 490.631Z" fill="#FCD008"/>
<path d="M208.275 488.733C209.8 488.069 212.087 484.938 213.611 482.851C215.136 480.859 219.233 483.8 214.278 495.659" fill="#FCD008"/>
<path d="M158.156 553.434C153.201 547.172 151.391 540.437 152.439 530.475C153.582 520.609 155.012 514.253 156.345 509.225C159.776 496.512 169.114 484.369 187.884 483.42C206.655 482.567 216.374 493.571 220.757 500.592C225.045 507.422 226.665 518.427 227.999 522.222C230.858 530.76 232.858 550.113 219.709 559.41C207.704 567.949 195.793 567.854 187.313 567.095C178.832 566.526 165.874 563.3 158.156 553.434Z" fill="white"/>
<path d="M160.157 534.08C162.634 535.409 164.254 538.065 164.635 540.816C165.016 543.567 164.445 546.793 162.92 549.07C162.539 549.734 162.063 550.303 161.396 550.777C160.252 551.631 158.728 552.675 157.775 553.054L156.917 551.916C155.679 552.011 156.536 551.536 156.536 551.441C157.108 546.698 159.681 542.239 159.871 537.496C159.966 536.357 159.871 535.124 160.157 534.08Z" fill="#E2E1E1"/>
<path d="M223.426 523.171C229.524 520.135 230.477 512.545 233.716 507.422C235.241 504.956 237.433 505.62 238.862 506.379C239.338 506.663 239.624 507.138 239.91 507.612C242.197 511.692 241.053 519.471 239.338 523.835C237.242 529.337 231.239 535.219 227.809 535.883" fill="white"/>
<path d="M233.621 510.173C233.335 510.268 233.049 510.079 232.859 509.794C232.668 509.509 232.668 508.181 232.668 507.897C232.668 507.043 233.049 507.327 233.621 506.758C234.193 506.189 235.145 505.999 235.908 506.284C236.67 506.568 237.146 507.138 237.623 507.802C237.909 508.276 238.194 508.75 238.385 509.225C238.48 509.794 238.29 509.32 238.099 509.794C237.813 510.268 237.527 511.691 237.051 511.691C236.67 511.691 236.289 511.502 236.003 511.217C235.908 511.122 235.717 510.932 235.622 510.838C235.431 510.743 235.241 510.648 235.05 510.553C234.383 510.458 233.907 510.268 233.621 510.173Z" fill="#E2E1E1"/>
<path d="M157.394 522.412C154.821 523.645 145.293 528.958 147.103 534.839C148.914 540.721 154.345 542.903 152.344 545.655C150.247 548.406 150.629 553.244 155.393 552.959C160.157 552.675 168.066 544.137 160.729 534.365" fill="white"/>
<path d="M195.222 524.024C183.311 524.499 173.973 534.365 174.164 544.706C174.355 555.995 184.741 561.877 196.651 561.403C208.561 560.928 219.138 553.244 218.471 544.706C217.899 530.665 207.132 523.55 195.222 524.024Z" fill="#FCD008"/>
<path d="M180.929 507.707C180.929 508.561 179.691 509.13 178.166 509.13C176.641 509.035 175.498 508.371 175.498 507.517C175.498 506.663 176.737 506.094 178.261 506.094C179.786 506.094 180.929 506.853 180.929 507.707Z" fill="#F3B0BD"/>
<path d="M213.421 509.13C213.421 509.984 212.183 510.553 210.658 510.553C209.134 510.458 207.99 509.794 207.99 508.94C207.99 508.086 209.229 507.517 210.753 507.517C212.278 507.517 213.421 508.276 213.421 509.13Z" fill="#F3B0BD"/>
<path d="M187.218 502.489C187.122 504.007 185.884 505.145 184.264 505.051C182.739 504.956 181.501 503.722 181.596 502.204C181.691 500.687 183.025 499.548 184.55 499.643C186.074 499.738 187.218 501.066 187.218 502.489Z" fill="#221613"/>
<path d="M192.363 508.466C192.268 508.94 192.459 511.976 195.413 512.166C198.081 512.26 198.652 510.648 198.843 508.845C198.938 506.948 192.363 508.466 192.363 508.466Z" fill="#DB6D79"/>
<path d="M194.364 509.414C198.366 509.604 199.223 509.604 200.272 508.655C201.51 507.422 201.32 505.335 200.653 504.197C199.795 502.963 198.175 502.584 194.745 502.489C191.22 502.299 189.6 502.489 188.647 503.722C187.885 504.766 187.408 506.853 188.552 508.181C189.505 509.13 190.362 509.225 194.364 509.414Z" fill="#FCD008"/>
<path d="M194.555 506.758C193.507 506.663 191.506 506.094 192.268 505.05C192.745 504.386 191.506 503.722 191.03 504.386C189.505 506.379 191.983 507.802 194.555 507.991C197.033 508.086 199.701 506.853 198.367 504.766C197.89 504.102 196.651 504.576 197.033 505.335C197.604 506.284 195.603 506.758 194.555 506.758Z" fill="white"/>
<path d="M207.037 500.781C205.418 501.446 203.798 503.343 203.321 504.292C205.036 504.292 206.752 504.387 208.276 505.051" stroke="#040101" stroke-width="1.5" stroke-miterlimit="10" stroke-linecap="round" stroke-linejoin="round"/>
<path d="M178.451 484.749C177.117 485.318 175.783 485.507 177.403 487.5C179.023 489.492 182.167 493.287 190.743 493.951C201.7 494.805 206.274 492.812 207.894 491.674C209.418 490.536 208.656 488.354 208.37 488.354C206.274 487.974 178.451 484.749 178.451 484.749Z" fill="#E2E1E1"/>
<path d="M207.417 485.887L196.65 457.237L179.213 482.472C178.356 483.136 177.784 483.895 177.689 484.654C177.308 487.974 183.787 491.484 192.267 492.528C200.748 493.571 207.989 491.674 208.37 488.354C208.466 487.595 208.18 486.741 207.417 485.887Z" fill="#DC3F3D"/>
<path d="M189.651 470.139C188.842 469.949 188.033 469.664 187.224 469.19L188.033 466.534C188.64 466.913 189.247 467.103 189.921 467.198C193.562 467.862 196.934 464.257 197.338 459.229L199.361 459.608C198.754 466.249 194.439 470.993 189.651 470.139Z" fill="#6EC1A3"/>
<path d="M186.886 477.349C185.605 477.159 184.392 476.78 183.178 476.21L183.785 473.554C184.864 474.028 185.942 474.408 187.089 474.598C193.36 475.641 198.889 471.941 199.361 466.154L201.384 466.534C200.777 473.744 194.237 478.582 186.886 477.349Z" fill="#6EC1A3"/>
<path d="M186.617 484.843C185.067 484.559 183.583 484.085 182.167 483.515L182.774 480.764C184.055 481.333 185.471 481.713 186.887 481.997C194.709 483.42 201.52 479.151 202.059 472.51L204.082 472.89C203.745 476.969 201.655 480.479 198.283 482.661C194.979 484.843 190.866 485.602 186.617 484.843Z" fill="#6EC1A3"/>
<path d="M207.512 485.887C204.844 487.69 199.318 488.449 193.124 487.69C186.645 487.026 181.404 484.844 179.308 482.377C178.355 483.041 177.688 483.8 177.593 484.749C177.212 488.069 183.691 491.579 192.172 492.623C200.652 493.666 207.893 491.769 208.275 488.449C208.465 487.595 208.179 486.741 207.512 485.887Z" fill="#6EC1A3"/>
<path d="M200.461 457.711C200.271 459.703 198.365 461.126 196.364 460.936C194.363 460.652 192.839 458.849 193.124 456.857C193.41 454.865 195.221 453.347 197.222 453.632C199.318 453.821 200.747 455.624 200.461 457.711Z" fill="#6EC1A3"/>
<path d="M231.239 489.492C227.523 493.856 227.809 505.999 230.191 508.086C232.573 510.173 243.245 511.976 246.484 511.881C249.629 511.786 253.726 502.963 254.202 495.469C254.488 491.958 234.097 486.171 231.239 489.492Z" fill="#DC3F3D"/>
<path d="M243.912 489.966C243.626 489.966 243.34 489.966 243.15 489.871C242.483 489.777 239.433 489.397 238.004 487.405C237.147 486.266 237.051 484.749 237.623 483.515C238.099 482.567 238.766 482.092 239.624 481.997C240.196 481.997 240.958 482.187 241.625 483.136C242.673 484.654 242.959 486.077 243.245 487.12C243.245 487.31 243.34 487.5 243.34 487.689C244.579 486.077 246.961 483.8 248.771 483.8C249.534 483.8 250.105 484.084 250.486 484.654C250.868 485.223 250.963 485.887 250.582 486.456C249.724 488.543 245.436 489.966 243.912 489.966ZM248.867 485.413C247.723 485.413 245.722 487.12 244.674 488.543C246.389 488.164 248.962 487.025 249.438 486.077C249.534 485.887 249.534 485.792 249.438 485.697C249.248 485.413 249.152 485.318 248.867 485.413ZM239.624 483.515C239.338 483.515 239.052 483.8 238.862 484.179C238.576 484.749 238.481 485.697 239.148 486.551C239.815 487.405 240.958 487.879 242.006 488.164C241.911 487.974 241.911 487.689 241.816 487.5C241.625 486.551 241.339 485.318 240.482 484.084C240.196 483.705 239.91 483.515 239.624 483.515Z" fill="#6EC1A3"/>
<path d="M253.059 505.43C248.39 503.153 230.762 499.453 227.522 499.169L227.618 496.987C230.286 497.176 248.675 500.876 254.011 503.438L253.059 505.43Z" fill="#6EC1A3"/>
<path d="M238.957 512.355L236.86 511.786C238.671 505.335 240.767 495.753 241.72 491.105C242.101 489.207 242.292 488.353 242.387 488.069L244.483 488.638C244.388 488.828 244.197 490.061 243.816 491.484C242.768 496.228 240.767 505.809 238.957 512.355Z" fill="#6EC1A3"/>
<path d="M210.563 528.863C211.039 533.132 213.04 539.678 211.611 544.99C206.752 563.3 212.278 556.754 220.568 556.09C223.998 555.805 222.759 554.098 222.664 551.726C222.283 545.844 225.523 543.757 224.57 534.46C224.093 529.432 223.14 526.681 222.759 524.499C222.188 521.842 209.991 523.929 210.563 528.863Z" fill="#DC3F3D"/>
<path d="M157.395 507.327C157.395 507.043 156.346 504.576 155.679 506.568C155.012 508.466 158.633 511.976 156.442 514.727C154.345 517.384 153.393 522.032 153.393 522.696C154.25 524.024 164.255 535.504 187.028 536.927C213.136 538.634 226.952 530.191 228.762 521.368C229.239 517.858 227.619 516.909 227.333 515.391C226.761 512.735 226.189 510.743 224.379 510.268C224.189 513.304 219.71 523.74 191.887 523.55C166.161 523.455 159.491 512.355 158.157 506.948C158.157 506.758 157.013 508.656 157.395 507.327Z" fill="#E2E1E1"/>
<path d="M158.252 503.438C158.252 503.153 156.346 503.438 155.679 505.43C155.012 507.327 155.012 511.502 152.82 514.253C150.724 516.909 152.153 519.186 153.583 521.368C154.536 522.696 164.35 534.365 187.123 535.883C213.23 537.591 227.047 529.147 228.857 520.324C229.333 516.814 227.714 515.866 227.428 514.348C226.856 511.691 226.284 509.699 224.474 509.225C224.283 512.261 219.805 522.696 191.982 522.506C166.065 522.317 159.395 511.217 158.061 505.809C158.061 505.62 157.871 504.766 158.252 503.438Z" fill="#DC3F3D"/>
<path d="M213.926 539.678C213.296 539.678 212.667 539.678 212.107 539.583L212.317 536.832C216.024 537.401 219.94 535.693 222.737 532.278L224.136 534.27C221.339 537.685 217.702 539.583 213.926 539.678Z" fill="#4FB192"/>
<path d="M215.115 546.983C213.786 546.983 212.457 546.888 211.269 546.698L211.478 543.947C213.716 544.231 216.094 544.516 218.192 543.662C218.891 543.378 219.591 542.998 220.36 542.619C221.828 541.765 223.367 540.911 225.045 541.006L224.975 543.852C223.717 543.757 222.458 544.516 221.129 545.275C220.36 545.749 219.591 546.129 218.751 546.413C217.563 546.888 216.374 546.983 215.115 546.983Z" fill="#4FB192"/>
<path d="M212.387 554.952C211.548 554.952 210.639 554.762 209.8 554.098L210.919 551.821C211.478 552.295 212.387 552.295 213.157 552.2C214.905 552.011 216.583 551.442 218.262 550.588C218.611 550.398 218.891 550.208 219.241 550.019C220.849 549.165 222.458 548.311 224.276 548.501L224.066 551.252C222.737 551.062 221.409 551.821 220.01 552.58C219.66 552.77 219.311 552.959 218.961 553.149C217.143 554.098 215.255 554.667 213.366 554.857C213.017 554.952 212.737 554.952 212.387 554.952Z" fill="#4FB192"/>
<path d="M233.24 510.268C233.24 509.414 233.431 506.853 234.669 506.948C235.718 507.043 236.48 507.802 236.766 508.75C237.147 509.794 236.956 510.743 236.766 511.786" fill="white"/>
</g>
</g>
<mask id="mask3_435_4695" style="mask-type:alpha" maskUnits="userSpaceOnUse" x="323" y="297" width="77" height="77">
<circle cx="361.5" cy="335.5" r="38.5" fill="#C4C4C4"/>
</mask>
<g mask="url(#mask3_435_4695)">
<circle cx="361.5" cy="335.5" r="38.5" fill="#D05555"/>
<g clip-path="url(#clip4_435_4695)">
<path d="M348.805 309.105C342.675 308.06 341.013 315.792 340.805 316.419C339.039 315.583 333.325 313.389 330.623 318.3C327.403 324.048 337.481 333.139 346.831 328.959C355.766 324.257 355.247 310.254 348.805 309.105Z" fill="#A9212A"/>
<path d="M394 348.291C394 365.951 379.766 380.163 362.311 380.163C344.753 380.163 330.623 365.847 330.623 348.291C330.623 330.631 344.857 316.419 362.311 316.419C379.87 316.419 394 330.736 394 348.291Z" fill="#FFED1A"/>
<path d="M351.402 351.321C352.753 351.321 353.792 349.336 353.792 346.933C353.792 344.529 352.649 342.544 351.402 342.544C350.051 342.544 349.012 344.529 349.012 346.933C348.909 349.441 350.051 351.321 351.402 351.321Z" fill="black"/>
<path d="M371.559 346.933C371.559 349.336 372.701 351.321 373.948 351.321C375.299 351.321 376.338 349.336 376.338 346.933C376.338 344.529 375.299 342.544 373.948 342.544C372.598 342.544 371.559 344.529 371.559 346.933Z" fill="black"/>
<path d="M351.817 338.991C351.921 338.991 351.921 338.991 352.025 338.991C355.038 337.841 355.038 335.125 355.038 335.02C355.038 334.707 354.726 334.393 354.415 334.393C354.103 334.393 353.791 334.707 353.791 335.02C353.791 335.125 353.688 337.006 351.61 337.841C351.298 337.946 351.09 338.364 351.194 338.677C351.402 338.782 351.61 338.991 351.817 338.991Z" fill="black"/>
<path d="M373.22 338.886C373.324 338.886 373.324 338.886 373.428 338.886C373.636 338.886 373.947 338.782 374.051 338.468C374.155 338.155 374.051 337.737 373.636 337.632C371.454 336.797 371.454 334.916 371.454 334.811C371.454 334.498 371.142 334.184 370.83 334.184C370.519 334.184 370.207 334.498 370.207 334.811C370.207 335.02 370.207 337.737 373.22 338.886Z" fill="black"/>
<path d="M369.688 347.142C369.792 347.56 369.896 348.082 369.688 348.5C369.584 348.709 369.48 348.918 369.169 348.918H356.182C355.87 348.918 355.662 348.709 355.662 348.396C355.662 347.978 355.662 347.56 355.87 347.142" fill="#C35D1C"/>
<path d="M369.688 347.142C369.792 347.56 369.896 348.082 369.688 348.5C369.584 348.709 369.48 348.918 369.169 348.918H356.182C355.87 348.918 355.662 348.709 355.662 348.396C355.662 347.978 355.662 347.56 355.87 347.142" fill="#F0831F"/>
<path d="M369.688 347.142C369.792 347.56 369.896 348.082 369.688 348.5C369.584 348.709 369.48 348.918 369.169 348.918H356.182C355.87 348.918 355.662 348.709 355.662 348.396C355.662 347.978 355.662 347.56 355.87 347.142" stroke="#E77113" stroke-miterlimit="10"/>
<path d="M369.688 347.351C368.857 344.947 366.571 342.753 362.727 342.753C358.883 342.753 356.493 344.947 355.766 347.351" fill="#F0831F"/>
<path d="M369.688 347.351C368.857 344.947 366.571 342.753 362.727 342.753C358.883 342.753 356.493 344.947 355.766 347.351" fill="#F0831F"/>
<path d="M369.688 347.351C368.857 344.947 366.571 342.753 362.727 342.753C358.883 342.753 356.493 344.947 355.766 347.351" stroke="#E77113" stroke-miterlimit="10"/>
<path d="M362.727 351.321C365.948 351.321 369.169 350.172 369.688 348.396H355.662C355.87 350.694 359.402 351.321 362.727 351.321Z" fill="#F0831F"/>
<path d="M355.662 348.396C355.87 350.694 359.402 351.321 362.727 351.321C365.948 351.321 369.48 350.067 369.688 348.396H355.662Z" fill="#F0831F" stroke="#E77113" stroke-miterlimit="10"/>
<path d="M378.831 365.742C378.207 365.324 377.48 365.324 376.856 365.742L371.038 370.027C370.415 370.445 369.688 370.445 369.064 370.027L363.246 365.742C362.623 365.324 361.895 365.324 361.272 365.742L355.454 370.027C354.831 370.445 354.103 370.445 353.48 370.027L347.662 365.742C347.038 365.324 346.311 365.324 345.688 365.742L339.869 370.027C339.662 370.131 339.454 370.236 339.246 370.34C345.064 376.401 353.168 380.267 362.207 380.267C371.246 380.267 379.35 376.505 385.168 370.34C384.96 370.34 384.753 370.236 384.545 370.027L378.831 365.742Z" fill="white"/>
<path d="M343.299 366.264C345.065 367.518 345.585 377.132 344.234 383.193C342.779 389.149 344.649 387.791 349.325 388C355.351 388.313 355.662 385.805 355.87 375.774C356.078 366.682 354.935 367.414 354.935 367.414L343.299 366.264Z" fill="#309B87"/>
<path d="M333.637 360.935C331.767 360.935 334.572 367.518 338 369.713C340.494 371.28 346.935 373.788 357.844 374.624C372.182 375.251 383.715 372.221 386.831 370.026C388.494 368.981 394 360.308 391.715 359.577C391.195 359.472 387.143 361.98 379.455 363.548C372.182 365.115 359.507 365.846 350.883 364.279C341.221 362.607 335.091 360.935 333.637 360.935Z" fill="#309B87"/>
</g>
</g>
<mask id="mask4_435_4695" style="mask-type:alpha" maskUnits="userSpaceOnUse" x="272" y="386" width="211" height="211">
<circle cx="377.5" cy="491.5" r="105.5" fill="#C4C4C4"/>
</mask>
<g mask="url(#mask4_435_4695)">
<circle cx="377.5" cy="491.5" r="105.5" fill="#6B6EF9"/>
<path d="M399.158 540.647C402.949 539.161 417.62 531.4 433.939 528.263C442.675 526.611 450.257 527.767 454.049 533.547C458.994 541.308 452.4 547.913 452.4 547.913C452.4 547.913 448.444 553.363 434.598 553.528C415.642 554.023 400.147 551.711 400.147 551.711L399.158 540.647Z" fill="white"/>
<path d="M361.411 539.822C359.763 543.62 349.873 565.252 340.147 578.793C335.037 586.059 321.521 592.003 315.092 583.417C309.653 575.986 317.07 566.738 327.29 553.528C338.829 538.501 352.84 532.721 352.84 532.721L361.411 539.822Z" fill="white"/>
<path d="M406.576 542.629C406.576 542.629 413.499 578.462 410.862 600.92C410.038 607.36 407.4 616.277 408.884 619.91C412.84 630.479 408.554 634.772 394.378 631.304C386.631 629.488 386.796 623.873 386.466 621.562C384.983 613.47 384.158 605.709 384.158 605.709L377.73 606.865C377.73 606.865 375.257 615.121 375.092 622.883C375.092 628.662 372.455 632.13 365.367 633.451C351.686 635.928 350.861 629.158 353.169 621.562C354.653 616.773 352.675 609.012 351.026 601.416C346.246 579.453 353.334 548.408 353.334 548.408" fill="white"/>
<path d="M349.708 570.866C349.544 572.848 349.214 577.967 349.214 577.967C349.214 578.463 357.456 576.976 357.95 576.811C361.906 575.49 365.697 573.839 369.324 571.692C372.785 569.545 376.741 566.903 378.72 563.27C379.709 561.454 381.027 557.986 380.368 556.005C380.533 556.335 380.368 557.326 380.533 557.656C380.698 559.142 381.357 560.628 382.016 561.949C385.643 568.224 393.225 572.683 400.313 572.848C408.555 573.178 410.698 572.353 410.698 572.353L410.203 566.903L382.346 553.858L372.291 554.023L349.708 570.866Z" fill="#E3E2E2"/>
<path d="M353.168 531.07C346.575 532.391 324.817 549.73 321.19 559.307C319.542 563.601 321.685 564.426 323.828 565.747C347.234 579.619 378.718 575.821 383.993 542.464C384.322 537.675 353.168 531.07 353.168 531.07Z" fill="#DC3F3E"/>
<path d="M349.378 531.896C347.236 533.877 346.741 534.372 347.071 537.84C347.236 541.143 352.016 547.253 374.433 548.409C379.214 548.739 380.697 545.767 383.994 542.299C384.159 542.134 384.324 541.969 384.324 541.803C384.488 540.978 383.335 540.647 382.51 540.647C374.433 540.482 366.521 539.492 358.609 537.675C355.312 536.849 352.016 536.024 349.378 533.877C349.049 533.712 348.389 533.547 348.554 533.877" fill="#7C1A26"/>
<path d="M435.587 528.098C438.883 532.721 438.224 565.252 407.235 569.05C376.246 572.683 375.422 538.501 379.707 535.694C383.993 532.886 435.587 528.098 435.587 528.098Z" fill="#DC3F3E"/>
<path d="M412.51 528.262C414.982 529.749 416.301 526.941 416.631 530.409C417.125 536.519 409.708 546.097 387.784 548.739C383.004 549.399 384.817 548.243 380.861 545.601C380.696 545.436 380.532 545.436 380.367 545.271C380.037 544.61 381.026 543.95 381.85 543.785C389.762 541.968 397.345 539.326 404.598 536.024C407.73 534.537 410.697 533.051 412.839 530.409C413.004 530.079 413.664 529.914 413.664 530.244" fill="#7C1A26"/>
<path d="M410.367 532.887C410.532 539.987 396.686 546.097 379.543 546.262C362.4 546.593 348.389 540.978 348.224 533.878C348.059 526.777 361.905 520.667 379.048 520.502C396.191 520.172 410.202 525.786 410.367 532.887Z" fill="#B41B3B"/>
<path d="M386.466 550.391C386.631 553.859 384.158 556.831 380.697 556.996C377.235 557.161 374.433 554.684 374.103 551.217C373.939 547.749 376.411 544.776 379.873 544.611C383.334 544.446 386.137 547.088 386.466 550.391Z" fill="#EAE565"/>
<path d="M380.697 549.235C380.697 549.565 380.532 549.895 380.202 549.895C379.872 549.895 379.543 549.73 379.543 549.4L379.378 545.767C379.378 545.437 379.543 545.106 379.872 545.106C380.202 545.106 380.532 545.272 380.532 545.602L380.697 549.235Z" fill="black"/>
<path d="M382.181 550.886C382.181 552.042 381.356 552.868 380.367 553.033C379.214 553.033 378.389 552.207 378.225 551.216C378.225 550.06 379.049 549.235 380.038 549.07C381.192 548.904 382.181 549.73 382.181 550.886Z" fill="black"/>
<path d="M327.289 451.807C327.289 451.807 328.443 409.863 337.344 407.386C346.245 405.074 362.729 427.367 362.729 427.367C362.729 427.367 355.971 434.303 346.905 440.908C337.839 447.678 327.289 451.807 327.289 451.807Z" fill="white"/>
<path d="M327.289 451.807C327.289 451.807 328.443 409.863 337.344 407.386C346.245 405.074 362.729 427.367 362.729 427.367C362.729 427.367 355.971 434.303 346.905 440.908C337.839 447.678 327.289 451.807 327.289 451.807Z" fill="white"/>
<path d="M334.873 444.871C335.203 434.963 336.686 423.734 341.466 422.413C345.587 421.257 351.192 425.551 356.137 430.34L334.873 444.871Z" fill="#CA1336"/>
<path d="M433.445 453.953C433.445 453.953 433.939 411.845 425.203 409.203C416.467 406.561 398.994 428.193 398.994 428.193C398.994 428.193 405.423 435.294 414.159 442.394C423.06 449.33 433.445 453.953 433.445 453.953Z" fill="white"/>
<path d="M433.445 453.953C433.445 453.953 433.939 411.845 425.203 409.203C416.467 406.561 398.994 428.193 398.994 428.193C398.994 428.193 405.423 435.294 414.159 442.394C423.06 449.33 433.445 453.953 433.445 453.953Z" fill="white"/>
<path d="M426.028 446.688C426.028 436.78 425.039 425.551 420.259 424.065C416.303 422.744 410.369 426.707 405.259 431.33L426.028 446.688Z" fill="#CA1336"/>
<path d="M443.17 485.658C442.51 519.18 421.741 539.491 378.554 538.666C340.807 537.84 315.587 516.703 316.246 483.016C316.905 449.495 345.916 422.743 380.862 423.404C415.972 424.229 443.829 451.972 443.17 485.658Z" fill="white"/>
<path d="M443.17 485.658C442.51 519.18 421.741 539.491 378.554 538.666C340.807 537.84 315.587 516.703 316.246 483.016C316.905 449.495 345.916 422.743 380.862 423.404C415.972 424.229 443.829 451.972 443.17 485.658Z" fill="white"/>
<path d="M403.281 462.375C403.116 467.494 398.995 471.622 393.72 471.457C388.61 471.292 384.489 467.164 384.654 461.88C384.819 456.76 388.94 452.632 394.215 452.797C399.16 452.962 403.281 457.256 403.281 462.375Z" fill="#050102"/>
<path d="M394.048 454.944L396.191 459.403L400.971 460.229L397.345 463.696L398.169 468.485L393.883 466.173L389.432 468.32L390.422 463.531L386.96 460.063L391.74 459.403L394.048 454.944Z" fill="white"/>
<path d="M427.676 477.732C427.676 480.704 424.05 482.851 419.764 482.851C415.478 482.686 412.017 480.374 412.181 477.402C412.181 474.429 415.808 472.118 420.094 472.283C424.379 472.448 427.841 474.925 427.676 477.732Z" fill="#F5B7C1"/>
<path d="M349.543 478.558C349.543 481.53 345.917 483.842 341.631 483.677C337.345 483.512 333.884 481.2 334.049 478.228C334.049 475.255 337.675 473.109 341.961 473.109C346.246 473.274 349.543 475.751 349.543 478.558Z" fill="#F5B7C1"/>
<path d="M406.907 487.64C407.072 498.209 399.654 505.144 381.687 505.64C363.72 505.97 356.137 498.209 355.808 487.64C358.775 488.301 362.401 488.466 367.016 487.805C374.269 486.649 378.225 481.861 379.049 476.081C380.039 481.861 389.104 487.64 396.357 488.301C400.643 488.796 403.94 488.466 406.907 487.64Z" fill="#CA1336"/>
<path d="M402.125 499.53C398.004 503.493 390.421 505.64 380.531 505.64C368.993 505.474 363.883 502.832 359.927 498.869C364.542 495.897 372.125 494.08 380.696 494.245C389.268 494.245 397.674 496.392 402.125 499.53Z" fill="#E2839E"/>
<path d="M406.083 487.475C406.247 497.878 398.995 504.649 381.192 505.144C363.555 505.474 356.137 497.878 355.808 487.475" stroke="#050102" stroke-width="1.5" stroke-miterlimit="10" stroke-linecap="round" stroke-linejoin="round"/>
<path d="M344.104 478.558C344.104 478.558 347.235 489.952 365.367 487.145C372.62 485.989 378.554 481.035 379.378 475.255C380.367 481.035 389.433 486.814 396.686 487.475C414.653 489.291 418.774 476.741 418.774 476.741" stroke="#050102" stroke-width="1.5" stroke-miterlimit="10" stroke-linecap="round" stroke-linejoin="round"/>
<path d="M385.314 471.788C385.314 473.769 382.677 475.42 379.545 475.255C376.413 475.09 373.94 473.439 373.94 471.292C373.94 469.311 376.578 467.659 379.71 467.824C382.842 467.99 385.479 469.641 385.314 471.788Z" fill="#CA1336"/>
<path d="M385.314 471.788C385.314 473.769 382.677 475.42 379.545 475.255C376.413 475.09 373.94 473.439 373.94 471.292C373.94 469.311 376.578 467.659 379.71 467.824C382.842 467.99 385.479 469.641 385.314 471.788Z" stroke="#050102" stroke-width="1.5" stroke-miterlimit="10" stroke-linecap="round" stroke-linejoin="round"/>
<path d="M362.071 456.761C366.027 457.917 370.313 463.861 371.302 466.008C367.841 463.201 361.742 462.045 357.291 462.871" stroke="#050102" stroke-width="1.5" stroke-miterlimit="10" stroke-linecap="round" stroke-linejoin="round"/>
<path d="M370.973 466.174C368.336 466.339 362.237 467.495 358.61 469.476" stroke="#050102" stroke-width="1.5" stroke-miterlimit="10" stroke-linecap="round" stroke-linejoin="round"/>
</g>
<mask id="mask5_435_4695" style="mask-type:alpha" maskUnits="userSpaceOnUse" x="330" y="106" width="179" height="179">
<circle cx="419.5" cy="195.5" r="89.5" fill="#C4C4C4"/>
</mask>
<g mask="url(#mask5_435_4695)">
<circle cx="419.5" cy="195.5" r="89.5" fill="#38D2DC"/>
<g clip-path="url(#clip5_435_4695)">
<path d="M398.54 242.024C398.54 242.024 394.169 251.423 394.169 251.707C394.169 251.992 399.07 286.167 399.07 286.167L414.436 308.666L418.94 309.521L425.696 308.666C425.696 308.666 446.759 263.242 446.759 262.957C446.626 262.672 443.712 248.717 443.712 248.717L398.54 242.024Z" fill="white"/>
<path d="M398.143 262.103C398.143 262.103 398.011 262.53 397.878 263.527C396.686 271.358 391.52 309.806 401.057 334.013C403.309 339.851 415.231 339.424 416.424 332.589C417.483 326.181 417.218 315.786 417.086 310.66" fill="white"/>
<path d="M394.831 298.271C392.976 299.126 391.122 300.55 387.015 298.271C371.119 289.585 397.215 242.452 397.215 242.452" fill="white"/>
<path d="M441.327 262.103C441.327 262.103 449.01 306.958 438.413 334.013C436.161 339.851 424.239 339.424 423.047 332.589C421.987 326.181 422.252 315.786 422.384 310.66" fill="white"/>
<path d="M444.638 298.271C446.493 299.126 448.347 300.55 452.454 298.271C468.35 289.585 442.254 242.452 442.254 242.452" fill="white"/>
<path d="M446.096 246.011C443.844 255.552 439.207 267.371 435.366 271.785C420.397 269.934 399.07 256.549 393.241 246.011" fill="#347BB3"/>
<path d="M445.831 245.157C443.712 254.271 438.678 268.368 434.836 272.64C420.662 270.789 399.335 256.264 393.771 246.296" fill="#327BC0"/>
<path d="M420 149.039C412.582 149.039 405.561 150.748 399.203 153.738C395.494 148.612 388.34 148.327 382.644 152.884L381.717 153.596C376.021 158.153 375.094 166.269 378.803 171.538C372.577 180.651 369 191.901 369 203.862C369 234.05 390.592 251.85 419.868 251.85C419.868 251.85 419.868 251.85 420 251.85C449.275 251.85 471 234.193 471 204.005C471 191.901 467.423 180.794 461.33 171.68C465.039 166.554 463.979 158.295 458.416 153.738L457.488 153.026C451.792 148.47 444.639 148.612 440.93 153.881C434.571 150.748 427.418 149.039 420 149.039Z" fill="white"/>
<path d="M396.289 158.58C394.831 156.729 392.58 155.447 390.195 155.447C385.824 155.447 382.247 159.292 382.247 163.991C382.247 165.842 382.777 167.551 383.704 168.975C387.413 164.845 391.52 161.286 396.289 158.58Z" fill="#95B7E1"/>
<path d="M443.712 158.58C445.169 156.729 447.289 155.447 449.805 155.447C454.177 155.447 457.621 159.292 457.621 163.849C457.621 165.7 457.091 167.409 456.164 168.833C452.72 164.845 448.481 161.286 443.712 158.58Z" fill="#95B7E1"/>
<path d="M424.24 198.451C424.24 198.024 423.975 197.597 423.71 197.597H416.292C416.027 197.597 415.762 198.024 415.762 198.451C415.762 198.736 415.894 199.021 415.894 199.163L419.603 204.432C419.736 204.574 419.868 204.717 420.001 204.717C420.133 204.717 420.266 204.574 420.398 204.432L424.107 199.163C424.24 198.878 424.24 198.736 424.24 198.451Z" fill="#070204"/>
<path d="M416.556 209.416C416.291 209.416 416.159 209.416 415.894 209.131C415.497 208.704 415.364 208.134 415.629 207.565L419.471 202.011C419.868 201.584 420.398 201.441 420.928 201.726C421.325 202.153 421.458 202.723 421.193 203.293L417.351 208.846C417.086 209.273 416.821 209.416 416.556 209.416Z" fill="#070204"/>
<path d="M423.577 209.416C423.312 209.416 422.915 209.273 422.783 208.988L418.941 203.435C418.544 203.008 418.676 202.296 419.206 201.869C419.603 201.441 420.266 201.584 420.663 202.153L424.505 207.707C424.902 208.134 424.77 208.846 424.24 209.273C423.975 209.416 423.71 209.416 423.577 209.416Z" fill="#070204"/>
<path d="M373.769 200.872C373.769 196.6 378.802 193.182 385.028 193.182C391.254 193.182 396.288 196.6 396.288 200.872C396.288 205.144 391.254 208.561 385.028 208.561C378.802 208.561 373.769 205.144 373.769 200.872Z" fill="#95B7E1"/>
<path d="M443.711 200.872C443.711 196.6 448.745 193.182 454.971 193.182C461.197 193.182 466.23 196.6 466.23 200.872C466.23 205.144 461.197 208.561 454.971 208.561C448.745 208.561 443.711 205.144 443.711 200.872Z" fill="#95B7E1"/>
<path d="M412.185 188.768C412.185 189.195 411.787 189.622 411.257 189.622H389.93C389.4 189.622 389.003 189.195 389.003 188.768V180.794C389.003 180.367 389.4 179.939 389.93 179.939H411.257C411.787 179.939 412.185 180.367 412.185 180.794V188.768Z" fill="#070204"/>
<path d="M407.151 192.47C407.151 195.461 404.899 197.739 402.25 197.739C399.468 197.739 397.349 195.318 397.349 192.47C397.349 189.48 399.601 187.202 402.25 187.202C404.899 187.202 407.151 189.48 407.151 192.47Z" fill="#070204"/>
<path d="M427.815 188.768C427.815 189.195 428.213 189.622 428.743 189.622H450.07C450.6 189.622 450.997 189.195 450.997 188.768V180.794C450.997 180.367 450.6 179.939 450.07 179.939H428.743C428.213 179.939 427.815 180.367 427.815 180.794V188.768Z" fill="#070204"/>
<path d="M432.85 192.47C432.85 195.461 435.102 197.739 437.751 197.739C440.533 197.739 442.652 195.318 442.652 192.47C442.652 189.48 440.4 187.202 437.751 187.202C435.102 187.202 432.85 189.48 432.85 192.47Z" fill="#070204"/>
<path d="M396.157 158.437C393.772 160.289 393.242 166.839 397.216 166.554C401.19 166.269 401.323 163.564 401.72 162.994C402.118 162.567 401.985 165.842 405.959 167.551C409.933 169.26 414.437 171.538 423.047 170.684C431.525 169.829 436.029 166.696 437.751 163.564C437.751 163.564 438.811 166.554 441.593 166.127C444.375 165.7 445.434 162.852 444.507 161.285C443.58 159.577 442.123 157.868 442.123 157.868L434.175 155.305L397.746 157.868L396.157 158.437Z" fill="#E3E2E2"/>
<path d="M396.819 125.259C398.011 126.113 398.938 128.392 400.528 128.961C401.853 129.531 401.985 128.107 401.853 127.11C401.72 126.113 401.72 125.117 401.72 124.262C401.853 121.129 402.647 116.288 405.032 117C407.416 117.712 407.681 119.705 406.621 126.825C405.562 133.945 409.138 138.787 410.595 139.783C410.595 139.783 414.04 144.91 409.006 142.347C408.079 141.919 406.754 140.638 406.092 139.783C404.767 138.075 401.588 140.353 398.144 138.787C394.699 137.22 396.819 133.518 398.276 134.515C398.938 134.942 399.203 135.939 401.985 136.081C403.84 136.224 403.972 135.654 403.84 135.227C403.707 135.084 403.707 134.942 403.575 134.657C403.31 134.088 403.045 133.803 403.045 133.803C403.045 133.803 403.177 133.803 403.045 133.803C402.382 132.664 398.408 132.236 396.156 130.1C393.507 127.68 394.832 123.835 396.819 125.259Z" fill="#D4C1AD"/>
<path d="M443.049 125.401C441.857 126.256 440.93 128.534 439.34 129.104C438.016 129.673 437.883 128.249 438.016 127.252C438.148 126.256 438.148 125.259 438.148 124.405C438.016 121.272 437.221 116.43 434.836 117.142C432.452 117.854 432.187 119.848 433.247 126.968C434.307 134.088 430.73 138.929 429.273 139.926C429.273 139.926 425.829 145.052 430.862 142.489C431.79 142.062 433.114 140.78 433.777 139.926C435.101 138.217 438.281 140.495 441.725 138.929C445.169 137.363 443.049 133.66 441.592 134.657C440.93 135.084 440.665 136.081 437.883 136.223C436.029 136.366 435.896 135.796 436.029 135.369C436.161 135.227 436.161 135.084 436.294 134.8C436.559 134.23 436.823 133.945 436.823 133.945C436.823 133.945 436.691 133.945 436.823 133.945C437.486 132.806 441.46 132.379 443.712 130.243C446.494 127.68 445.036 123.835 443.049 125.401Z" fill="#D4C1AD"/>
<path d="M442.123 125.259C440.93 126.113 440.003 128.392 438.414 128.961C436.956 129.531 436.956 128.107 437.089 127.11C437.221 126.113 437.221 125.117 437.221 124.262C437.089 121.129 436.294 116.288 433.91 117C431.525 117.712 431.26 119.705 432.32 126.825C433.38 133.945 429.803 138.787 428.346 139.783C428.346 139.783 424.902 144.91 429.936 142.347C430.863 141.919 432.188 140.638 432.85 139.783C434.175 138.075 437.354 140.353 440.798 138.787C444.242 137.22 442.123 133.518 440.666 134.515C440.003 134.942 439.738 135.939 436.956 136.081C435.102 136.224 434.969 135.654 435.102 135.227C435.234 135.084 435.234 134.942 435.367 134.657C435.632 134.088 435.897 133.803 435.897 133.803C435.897 133.803 435.764 133.803 435.897 133.803C436.559 132.664 440.533 132.236 442.785 130.1C445.567 127.537 444.11 123.693 442.123 125.259Z" fill="#D4C1AD"/>
<path d="M431.26 144.34C434.571 141.065 438.281 142.062 440.4 144.34C441.725 145.907 444.109 146.619 444.639 146.903C445.566 147.331 445.699 150.179 439.208 150.179C433.777 150.179 433.379 147.758 432.717 147.046C432.055 146.334 431.392 144.625 431.392 144.625" fill="#C97436"/>
<path d="M432.452 143.344C432.85 143.059 433.247 142.774 433.247 142.774C433.247 142.774 435.896 146.334 436.294 147.9C436.691 149.467 436.956 149.894 436.824 149.894C436.691 149.894 435.896 149.609 435.896 149.609C435.101 149.182 432.452 143.344 432.452 143.344Z" fill="#B66028"/>
<path d="M434.571 146.476C435.763 145.622 437.751 145.479 439.208 146.476C440.532 147.473 441.195 147.758 441.725 147.9C442.122 148.185 440.797 148.755 438.678 148.327C436.691 147.9 434.571 147.046 434.571 147.046V146.476Z" fill="#CA5554"/>
<path d="M407.151 144.34C403.839 141.065 400.13 142.062 398.011 144.34C396.686 145.907 394.302 146.619 393.772 146.903C392.845 147.331 392.712 150.179 399.203 150.179C404.634 150.179 405.032 147.758 405.694 147.046C406.356 146.334 407.019 144.625 407.019 144.625" fill="#C97436"/>
<path d="M406.621 143.913C406.621 143.771 406.091 143.344 405.959 143.344C405.826 143.344 405.694 143.628 405.694 143.628C405.031 144.483 404.501 145.479 403.839 146.334C403.309 147.188 402.647 148.47 402.912 149.467C403.309 149.324 403.707 149.324 403.972 149.324C404.104 149.324 404.237 149.324 404.237 149.182C404.369 149.182 404.369 149.039 404.369 148.897C405.031 147.615 405.826 146.476 406.621 145.195C406.753 144.91 407.018 144.625 407.018 144.34C407.018 144.198 406.621 143.913 406.621 143.913Z" fill="#B66028"/>
<path d="M404.899 146.476C403.707 145.622 401.72 145.479 400.263 146.476C398.938 147.473 398.276 147.758 397.746 147.9C397.349 148.185 398.673 148.755 400.793 148.327C402.78 147.9 404.899 147.046 404.899 147.046V146.476Z" fill="#CA5554"/>
<path d="M403.575 152.741C400.528 152.741 392.978 159.719 395.494 164.276C397.084 167.124 400.131 163.991 400.661 161.855C401.72 157.298 403.31 156.159 403.31 156.159L403.707 152.884" fill="#A76839"/>
<path d="M403.575 152.741C400.528 152.741 392.978 159.719 395.494 164.276C397.084 167.124 400.131 163.991 400.661 161.855C401.72 157.298 403.31 156.159 403.31 156.159L403.707 152.884" fill="#C97436"/>
<path d="M402.515 152.884C402.382 152.884 401.588 153.169 401.588 153.311C401.323 154.308 400.925 155.447 400.793 156.444C400.66 157.441 400.793 158.58 401.19 159.434C401.455 159.007 401.853 158.438 402.118 158.01C402.118 157.868 402.25 157.868 402.25 157.726C402.25 157.583 402.25 157.298 402.25 157.156C402.118 156.017 402.515 154.878 402.78 153.738C402.78 153.596 402.912 153.311 402.78 153.169" fill="#B66028"/>
<path d="M435.499 152.314C438.546 152.314 446.096 159.292 443.58 163.849C441.99 166.697 438.943 163.564 438.413 161.428C437.354 156.871 435.764 155.732 435.764 155.732L435.499 152.457" fill="#C97436"/>
<path d="M436.559 152.457C436.956 152.457 437.486 152.742 437.751 153.026C437.751 153.026 438.148 154.166 438.016 155.874C438.016 157.583 438.016 158.865 437.751 158.865L437.221 157.583L436.559 152.457Z" fill="#B66028"/>
<path d="M437.088 153.881C438.943 165.985 430.862 169.829 420.53 169.829C412.317 169.829 399.203 167.409 402.117 153.881C404.766 141.208 412.449 137.932 420.53 137.932C428.875 137.932 435.499 143.343 437.088 153.881Z" fill="#C97436"/>
<path d="M437.088 153.881C438.943 165.985 430.862 169.829 420.53 169.829C412.317 169.829 399.203 167.409 402.117 153.881C404.766 141.208 412.449 137.932 420.53 137.932C428.875 137.932 435.499 143.343 437.088 153.881Z" fill="#C97436"/>
<path d="M424.505 159.007C424.505 161.855 422.385 164.276 419.603 164.276C416.954 164.276 414.702 161.997 414.702 159.007C414.702 156.159 416.822 153.738 419.603 153.738C422.385 153.881 424.505 156.159 424.505 159.007Z" fill="#D4241F"/>
<path d="M421.06 157.726C421.06 159.149 420 160.289 418.675 160.289C417.351 160.289 416.291 159.149 416.291 157.726C416.291 156.302 417.351 155.162 418.675 155.162C420 155.305 421.06 156.444 421.06 157.726Z" fill="#EF8484"/>
<path d="M412.582 151.318C411.919 151.033 411.655 149.894 412.052 149.039C412.449 148.185 412.979 147.758 413.509 148.042C414.171 148.327 414.834 149.609 414.436 150.463C414.039 151.318 413.112 151.745 412.582 151.318Z" fill="#070204"/>
<path d="M426.889 151.318C427.419 150.891 427.551 149.751 427.022 148.897C426.492 148.043 425.962 147.758 425.432 148.043C424.902 148.47 424.372 149.751 424.902 150.606C425.432 151.46 426.359 151.745 426.889 151.318Z" fill="#070204"/>
<path d="M396.951 265.235C395.758 263.669 394.831 274.776 394.301 281.041C393.771 286.595 393.639 296.278 393.771 298.841L395.361 298.129C395.493 274.348 398.408 266.517 396.951 265.235Z" fill="#E3E2E2"/>
<path d="M441.989 265.235C443.181 263.669 444.109 274.776 444.639 281.041C445.168 286.595 445.566 296.278 445.301 298.698L443.844 297.986C443.976 274.348 440.664 266.517 441.989 265.235Z" fill="#E3E2E2"/>
</g>
</g>
<defs>
<linearGradient id="paint0_linear_435_4695" x1="160.59" y1="305.292" x2="160.59" y2="291.088" gradientUnits="userSpaceOnUse">
<stop stop-color="white" stop-opacity="0"/>
<stop offset="1" stop-color="white" stop-opacity="0.5"/>
</linearGradient>
<linearGradient id="paint1_linear_435_4695" x1="145.453" y1="297.959" x2="175.727" y2="297.959" gradientUnits="userSpaceOnUse">
<stop stop-color="white"/>
<stop offset="1" stop-color="#231F20"/>
</linearGradient>
<linearGradient id="paint2_linear_435_4695" x1="193.83" y1="319.041" x2="193.83" y2="282.125" gradientUnits="userSpaceOnUse">
<stop stop-color="white" stop-opacity="0"/>
<stop offset="1" stop-color="white" stop-opacity="0.5"/>
</linearGradient>
<linearGradient id="paint3_linear_435_4695" x1="174.303" y1="300.583" x2="213.357" y2="300.583" gradientUnits="userSpaceOnUse">
<stop stop-color="white"/>
<stop offset="1" stop-color="#231F20"/>
</linearGradient>
<linearGradient id="paint4_linear_435_4695" x1="127.193" y1="319.041" x2="127.193" y2="282.125" gradientUnits="userSpaceOnUse">
<stop stop-color="white" stop-opacity="0"/>
<stop offset="1" stop-color="white" stop-opacity="0.5"/>
</linearGradient>
<linearGradient id="paint5_linear_435_4695" x1="107.666" y1="300.583" x2="146.72" y2="300.583" gradientUnits="userSpaceOnUse">
<stop stop-color="white"/>
<stop offset="1" stop-color="#231F20"/>
</linearGradient>
<linearGradient id="paint6_linear_435_4695" x1="211.463" y1="296.101" x2="243.932" y2="296.101" gradientUnits="userSpaceOnUse">
<stop stop-color="white"/>
<stop offset="1" stop-color="#231F20"/>
</linearGradient>
<clipPath id="clip0_435_4695">
<rect width="290.929" height="369.961" fill="white" transform="translate(16.0352 131.617)"/>
</clipPath>
<clipPath id="clip1_435_4695">
<rect width="136.301" height="37.7979" fill="white" transform="translate(107.666 281.663)"/>
</clipPath>
<clipPath id="clip2_435_4695">
<rect width="120.183" height="168.47" fill="white" transform="translate(192 35.6184) rotate(-25.4358)"/>
</clipPath>
<clipPath id="clip3_435_4695">
<rect width="107.385" height="115.645" fill="white" transform="translate(146.912 453.537)"/>
</clipPath>
<clipPath id="clip4_435_4695">
<rect width="64" height="79" fill="white" transform="translate(330 309)"/>
</clipPath>
<clipPath id="clip5_435_4695">
<rect width="102" height="221" fill="white" transform="translate(369 117)"/>
</clipPath>
</defs>
</svg>
