<svg width="155" height="36" viewBox="0 0 155 36" fill="none" xmlns="http://www.w3.org/2000/svg">
<g clip-path="url(#clip0_413_1148)">
<path d="M59.6043 22.5016C59.5935 22.5429 59.5926 22.5862 59.6018 22.6279C59.6109 22.6695 59.6298 22.7085 59.6569 22.7416C59.684 22.7747 59.7185 22.8011 59.7578 22.8185C59.797 22.8359 59.8398 22.8439 59.8827 22.8419C60.5639 22.8419 61.9261 22.8419 62.5258 22.8419C62.6083 22.8506 62.6911 22.8277 62.7571 22.7779C62.8232 22.7281 62.8677 22.6552 62.8814 22.5739C63.2021 20.99 63.2267 19.3611 62.9542 17.7683C62.9281 17.62 62.8475 17.4866 62.728 17.3939C62.6085 17.3012 62.4586 17.2557 62.3074 17.2664H59.9984C59.6428 17.2664 59.5272 17.445 59.57 17.747C59.7457 18.6911 60.0541 20.843 59.5914 22.4889" fill="#DC3E3D"/>
<path d="M55.569 9.9006H52.836C52.7934 9.9006 52.7513 9.90898 52.712 9.92528C52.6728 9.94157 52.6371 9.96545 52.6072 9.99552C52.5774 10.0256 52.5538 10.0613 52.5379 10.1004C52.522 10.1396 52.5141 10.1816 52.5147 10.2238V28.3578C52.5141 28.4 52.522 28.4419 52.5379 28.4811C52.5538 28.5203 52.5774 28.556 52.6072 28.5861C52.6371 28.6161 52.6728 28.64 52.712 28.6563C52.7513 28.6726 52.7934 28.681 52.836 28.681H70.1039C70.1596 28.681 70.2153 28.681 70.2153 28.3578V11.7718C70.2158 11.7296 70.2079 11.6877 70.192 11.6485C70.1762 11.6093 70.1526 11.5736 70.1227 11.5435C70.0928 11.5135 70.0572 11.4896 70.0179 11.4733C69.9787 11.457 69.9365 11.4486 69.894 11.4486H56.777C56.5591 11.4344 56.3526 11.3465 56.192 11.1994C56.0314 11.0524 55.9264 10.8551 55.8946 10.6406V10.2153C55.8946 10.1296 55.8603 10.0474 55.7992 9.98676C55.7382 9.92614 55.6554 9.89209 55.569 9.89209V9.9006ZM66.8396 14.4936H65.8801C66.1104 14.4889 66.3347 14.5673 66.5112 14.7144C66.6877 14.8614 66.8044 15.0671 66.8396 15.2932V24.8705C66.8083 25.0757 66.7101 25.265 66.5599 25.4094C66.4098 25.5538 66.2161 25.6454 66.0086 25.67H56.7256C56.5166 25.6444 56.3217 25.5516 56.1709 25.4057C56.02 25.2597 55.9215 25.0688 55.8903 24.862V15.2932C55.9273 15.0671 56.0451 14.8619 56.2221 14.7151C56.3992 14.5683 56.6235 14.4896 56.8541 14.4936H66.8354H66.8396Z" fill="#DC3E3D"/>
<path d="M51.1914 7.9315H71.9078C71.9927 7.9304 72.0737 7.89644 72.1337 7.83687C72.1938 7.77729 72.228 7.6968 72.2291 7.61254V5.13741C72.2291 5.05242 72.1954 4.97084 72.1352 4.91035C72.0751 4.84986 71.9934 4.81531 71.9078 4.81419H67.6797C67.1828 4.81419 67.1656 4.48672 67.1871 4.2273L67.5298 0.353003C67.5303 0.31076 67.5224 0.268832 67.5065 0.229642C67.4907 0.190451 67.4671 0.15478 67.4372 0.12471C67.4073 0.09464 67.3717 0.0707649 67.3324 0.0544703C67.2932 0.0381758 67.251 0.0297814 67.2085 0.0297852H64.3855C64.2999 0.0309034 64.2181 0.0654496 64.158 0.125943C64.0979 0.186437 64.0642 0.268013 64.0642 0.353003L63.6358 4.45271C63.6102 4.56022 63.5482 4.65571 63.46 4.72309C63.3718 4.79048 63.263 4.82566 63.1517 4.82271H60.2816C60.1559 4.82526 60.034 4.77999 59.9408 4.69618C59.8476 4.61237 59.7902 4.49636 59.7804 4.37191L59.3906 0.353003C59.3906 0.267281 59.3563 0.185065 59.2952 0.124451C59.2342 0.0638363 59.1514 0.0297852 59.065 0.0297852H56.2463C56.1599 0.0297852 56.0771 0.0638363 56.0161 0.124451C55.955 0.185065 55.9207 0.267281 55.9207 0.353003L56.2292 4.23582C56.2506 4.49524 56.2292 4.82271 55.7365 4.82271H51.1914C51.1489 4.8227 51.1067 4.83108 51.0675 4.84738C51.0282 4.86367 50.9926 4.88755 50.9627 4.91762C50.9328 4.94769 50.9093 4.98336 50.8934 5.02255C50.8775 5.06174 50.8696 5.10367 50.8701 5.14591V7.64232C50.8701 7.72691 50.904 7.80803 50.9642 7.86785C51.0245 7.92766 51.1062 7.96128 51.1914 7.96128" fill="#DC3E3D"/>
<path d="M40.6021 4.41022C41.4246 5.16722 43.7164 6.62592 46.171 6.6642H48.0687C48.1543 6.66308 48.236 6.62853 48.2962 6.56804C48.3563 6.50755 48.39 6.42597 48.39 6.34098V3.71701C48.39 3.63202 48.3563 3.55044 48.2962 3.48995C48.236 3.42945 48.1543 3.39491 48.0687 3.39379H46.3081C44.8773 3.39379 44.0034 2.7984 42.9967 1.92232L42.7226 1.67141C42.6252 1.57423 42.4958 1.51514 42.3581 1.50498C42.2204 1.49483 42.0837 1.53429 41.9729 1.61612C41.9729 1.61612 40.7991 2.63679 40.3065 3.00678L39.9595 3.26621C39.922 3.29911 39.8922 3.33976 39.8722 3.38531C39.8523 3.43087 39.8426 3.48021 39.8439 3.52988C39.8441 3.62611 39.8808 3.71873 39.9467 3.7893C40.1523 4.00194 40.5849 4.41022 40.5849 4.41022" fill="#DC3E3D"/>
<path d="M73.655 31.1262C69.8553 32.0235 64.2307 32.1596 59.8227 32.1596C54.528 32.1596 51.1138 31.258 47.3441 29.6462L47.2155 29.5867C46.5344 29.2422 46.4745 29.2124 46.3845 28.9658C46.3476 28.8772 46.3312 28.7816 46.3364 28.686C46.3416 28.5903 46.3683 28.497 46.4145 28.4129L46.4744 28.3151L48.0937 25.185C48.1463 25.0634 48.1907 24.9383 48.2265 24.8108C48.2559 24.6703 48.2773 24.5283 48.2908 24.3855V10.734C48.2897 10.649 48.2549 10.5679 48.1939 10.5082C48.133 10.4485 48.0508 10.415 47.9652 10.415H39.1449C39.0593 10.415 38.9771 10.4485 38.9162 10.5082C38.8553 10.5679 38.8205 10.649 38.8193 10.734V13.1921C38.8193 13.2778 38.8536 13.36 38.9147 13.4207C38.9757 13.4813 39.0586 13.5153 39.1449 13.5153L43.7585 13.5536C44.0444 13.5489 44.3224 13.6463 44.5419 13.8283C44.7613 14.0102 44.9075 14.2644 44.9537 14.5445V24.1048C44.9453 24.2482 44.9238 24.3906 44.8895 24.5301C44.8467 24.6588 44.7907 24.7828 44.7224 24.9001L43.4887 27.2136C43.3913 27.4485 43.218 27.6445 42.996 27.7707C42.7398 27.8763 42.4568 27.9001 42.1864 27.8388C40.9955 27.6176 40.3743 27.4475 39.6889 27.3327C39.5994 27.3067 39.5043 27.3067 39.4148 27.3327C39.3759 27.3603 39.345 27.3977 39.3255 27.4411C39.3059 27.4844 39.2983 27.5321 39.3034 27.5794V30.131C39.3194 30.2275 39.3613 30.3178 39.4246 30.3927C39.4879 30.4675 39.5703 30.524 39.6632 30.5563C46.226 32.5339 52.2404 35.4385 59.5743 35.4385C66.3812 35.4385 71.8044 35.0133 73.7107 34.537C73.7878 34.537 73.835 34.4817 73.835 34.3668V31.241C73.8335 31.2208 73.8277 31.2011 73.8181 31.1832C73.8084 31.1653 73.7951 31.1496 73.7789 31.1372C73.7627 31.1247 73.7441 31.1158 73.7243 31.111C73.7044 31.1062 73.6837 31.1056 73.6636 31.1092" fill="#DC3E3D"/>
<path d="M22.5072 7.23828H9.07324C8.98837 7.23938 8.9073 7.27334 8.84728 7.33292C8.78727 7.3925 8.75306 7.47299 8.75195 7.55724V10.0707C8.75306 10.1549 8.78727 10.2354 8.84728 10.295C8.9073 10.3546 8.98837 10.3885 9.07324 10.3896H22.5072C22.5924 10.3896 22.6741 10.356 22.7344 10.2962C22.7946 10.2364 22.8285 10.1552 22.8285 10.0707V7.55724C22.8285 7.47265 22.7946 7.39152 22.7344 7.3317C22.6741 7.27188 22.5924 7.23828 22.5072 7.23828Z" fill="#DC3E3D"/>
<path d="M22.5072 13.3709H9.07324C8.8976 13.3709 8.75195 13.4517 8.75195 13.5538V27.1627C8.75195 27.2473 8.7858 27.3285 8.84605 27.3883C8.90631 27.4481 8.98803 27.4817 9.07324 27.4817H22.5072C22.5497 27.4823 22.592 27.4744 22.6314 27.4586C22.6709 27.4429 22.7068 27.4195 22.7371 27.3898C22.7674 27.3601 22.7915 27.3248 22.8079 27.2858C22.8243 27.2468 22.8327 27.205 22.8327 27.1627V13.6898C22.8327 13.6476 22.8243 13.6058 22.8079 13.5668C22.7915 13.5278 22.7674 13.4925 22.7371 13.4628C22.7068 13.4331 22.6709 13.4097 22.6314 13.3939C22.592 13.3782 22.5497 13.3703 22.5072 13.3709ZM19.5428 23.5521C19.5162 23.7543 19.4219 23.9418 19.2751 24.0845C19.1282 24.2272 18.9374 24.3168 18.7332 24.3389H12.8815C12.6662 24.3185 12.4642 24.2263 12.3086 24.0772C12.1529 23.9281 12.0529 23.731 12.0248 23.5181V17.3855C12.0326 17.146 12.1357 16.9193 12.3116 16.7551C12.4874 16.5909 12.7216 16.5026 12.9629 16.5095H18.6004C18.8211 16.5061 19.0359 16.5808 19.2062 16.7203C19.3766 16.8598 19.4913 17.0549 19.5299 17.2707L19.5428 23.5521Z" fill="#DC3E3D"/>
<path d="M31.0276 0.7229H2.75469H0.548543C0.120165 0.7229 0.00878906 0.995081 0.00878906 1.33531V34.5072C0.00991549 34.5922 0.0447133 34.6733 0.105647 34.733C0.166581 34.7927 0.248745 34.8262 0.334354 34.8261H3.1488C3.20021 34.8261 3.38012 34.8261 3.38012 34.5072V5.06927C3.41918 4.80582 3.54732 4.56339 3.74349 4.38178C3.93965 4.20017 4.19219 4.09017 4.45964 4.06986H26.9109C27.1743 4.09081 27.423 4.19841 27.6178 4.37559C27.8125 4.55277 27.9422 4.78941 27.9861 5.04801V26.6608C27.9861 27.8345 28.0204 29.6037 26.2427 31.224C25.8914 31.5685 23.7709 33.2186 23.7709 33.2186C23.7375 33.2447 23.7097 33.2771 23.689 33.314C23.6683 33.3508 23.6552 33.3914 23.6504 33.4333C23.6456 33.4753 23.6493 33.5177 23.6611 33.5582C23.673 33.5988 23.6928 33.6365 23.7195 33.6694L25.116 35.8809C25.1462 35.9186 25.1846 35.9489 25.2284 35.9696C25.2723 35.9902 25.3203 36.0006 25.3688 35.9999C25.4415 35.9996 25.5122 35.9757 25.5701 35.9319C25.5701 35.9319 27.712 34.4094 28.5345 33.6481C29.2199 33.0272 31.2547 30.9944 31.3446 26.7926V1.04186C31.3446 0.957267 31.3108 0.876137 31.2505 0.81632C31.1903 0.756503 31.1086 0.7229 31.0234 0.7229" fill="#DC3E3D"/>
<path d="M111.879 29.7698C110.804 27.4223 108.281 22.859 104.168 19.882C100.57 17.2751 98.2909 17.0114 98.0338 16.8838C97.8496 16.7903 97.8368 16.6116 97.8411 16.3224L97.931 11.5508C97.9693 11.4038 98.0524 11.2722 98.169 11.174C98.2856 11.0758 98.4299 11.0158 98.5822 11.0022H111.896C111.992 11.0011 112.084 10.9625 112.151 10.8948C112.218 10.8271 112.256 10.7358 112.256 10.6407V8.18258C112.255 8.08817 112.217 7.99795 112.149 7.93119C112.082 7.86444 111.991 7.82645 111.896 7.82534H98.6721C98.4845 7.81737 98.3064 7.74091 98.172 7.61064C98.0376 7.48036 97.9564 7.30543 97.9439 7.11937L97.7768 0.633845C97.7768 0.539101 97.7389 0.448239 97.6714 0.381244C97.6039 0.31425 97.5124 0.276611 97.417 0.276611H94.6711C94.576 0.277716 94.4851 0.315707 94.4179 0.382464C94.3506 0.449221 94.3124 0.539444 94.3112 0.633845V7.22569C94.2819 7.38177 94.2027 7.52433 94.0855 7.63231C93.9682 7.74029 93.8191 7.80797 93.6601 7.82534H79.952C79.8562 7.82534 79.7642 7.86283 79.696 7.9297C79.6279 7.99658 79.589 8.08744 79.5879 8.18258V10.6407C79.5879 10.6882 79.5973 10.7352 79.6156 10.779C79.6339 10.8229 79.6607 10.8627 79.6945 10.8963C79.7284 10.9299 79.7685 10.9565 79.8127 10.9747C79.8568 10.9928 79.9042 11.0022 79.952 11.0022H93.6944C93.8525 11.022 94 11.0918 94.115 11.2013C94.2299 11.3109 94.3063 11.4543 94.3327 11.6103V15.9907C94.3332 16.0384 94.3242 16.0856 94.3061 16.1297C94.288 16.1739 94.2612 16.2139 94.2273 16.2476C94.1934 16.2813 94.153 16.3079 94.1086 16.3259C94.0641 16.3438 94.0165 16.3528 93.9685 16.3522C93.9685 16.3522 91.5096 16.3139 90.6786 16.3947C88.8666 16.5776 86.1635 17.2453 84.0302 19.1803C81.6869 21.3067 80.7616 23.1312 80.1748 25.7126C79.8675 26.9673 79.8482 28.2745 80.118 29.5377C80.3879 30.8008 80.9402 31.9876 81.7341 33.0105C83.6446 35.4431 89.6805 37.3228 93.3003 33.9291C97.0486 30.4163 97.8411 24.3858 97.8411 20.1925C97.8411 20.0096 97.991 19.9501 98.2095 20.0224C100.596 20.8219 104.554 23.9775 106.807 27.8263C108.371 30.2844 109.519 32.9041 109.806 33.4017C109.838 33.482 109.891 33.5527 109.959 33.6071C110.027 33.6614 110.107 33.6975 110.193 33.7121C110.279 33.7266 110.368 33.7189 110.45 33.6899C110.532 33.6609 110.605 33.6115 110.662 33.5463C111.057 33.2316 112.487 32.1471 112.487 32.1471C112.736 31.9217 112.796 31.7644 112.573 31.3519C112.517 31.2541 111.905 29.8846 111.853 29.7698H111.879ZM91.5525 31.1222C89.8775 33.053 86.5576 33.2146 84.6984 31.5135C82.8393 29.8123 82.3509 24.3645 86.6861 20.8559C89.5134 18.5679 94.1399 19.2952 94.1399 19.2952C94.3369 19.3292 94.3541 19.461 94.3498 19.6439C94.3498 21.1876 94.3883 27.8773 91.5739 31.1265" fill="#DC3E3D"/>
<path d="M154.859 32.8402C153.861 31.8281 151.076 29.4763 149.243 26.5758C149.194 26.4966 149.168 26.4053 149.168 26.3122C149.168 26.219 149.194 26.1277 149.243 26.0485C151.239 22.3315 153.364 17.6237 153.467 8.36958V5.63927C153.466 5.55429 153.431 5.47317 153.37 5.41347C153.309 5.35377 153.227 5.32031 153.141 5.32031H141.194C141.108 5.32031 141.026 5.35377 140.965 5.41347C140.904 5.47317 140.869 5.55429 140.868 5.63927V8.13567C140.868 8.17791 140.877 8.21975 140.893 8.25873C140.91 8.29771 140.934 8.33305 140.964 8.36273C140.994 8.3924 141.03 8.41581 141.07 8.43159C141.109 8.44737 141.151 8.45519 141.194 8.45463H149.813C150.13 8.45463 150.19 8.65026 150.168 8.97773C150.168 8.97773 150.168 9.42852 150.168 9.49231C150.168 10.3982 150.168 17.5131 147.358 22.9652C147.345 23.0051 147.321 23.0402 147.288 23.066C147.254 23.0918 147.214 23.107 147.172 23.1098C147.13 23.1125 147.088 23.1026 147.052 23.0814C147.015 23.0602 146.986 23.0286 146.968 22.9907C145.028 19.5162 144.591 16.6115 144.205 12.4012C144.205 12.2651 144.15 11.9972 143.867 11.9972H141.215C140.933 11.9972 140.885 12.1588 140.894 12.2396C141.601 20.2349 143.062 22.5442 144.921 26.04C144.965 26.114 144.988 26.1985 144.988 26.2845C144.988 26.3706 144.965 26.455 144.921 26.5291C143.325 28.8723 141.391 30.9701 139.18 32.7552C139.143 32.7872 139.113 32.8263 139.091 32.8701C139.07 32.914 139.057 32.9617 139.054 33.0104C139.052 33.0592 139.059 33.108 139.075 33.154C139.092 33.2 139.117 33.2423 139.15 33.2783L140.838 34.8816C140.912 34.9548 141.012 34.9959 141.117 34.9959C141.221 34.9959 141.321 34.9548 141.395 34.8816C143.487 33.2311 145.347 31.3102 146.926 29.1701C146.94 29.1531 146.957 29.1395 146.977 29.1301C146.997 29.1208 147.019 29.1159 147.041 29.1159C147.063 29.1159 147.085 29.1208 147.105 29.1301C147.125 29.1395 147.143 29.1531 147.157 29.1701C148.788 31.2626 150.633 33.1822 152.662 34.8986C152.755 34.9841 152.877 35.0315 153.004 35.0315C153.131 35.0315 153.254 34.9841 153.347 34.8986C153.347 34.8986 154.739 33.644 154.923 33.4569C154.964 33.4206 154.997 33.376 155.02 33.3262C155.042 33.2763 155.054 33.2223 155.054 33.1677C155.054 33.1131 155.042 33.059 155.02 33.0092C154.997 32.9593 154.964 32.9148 154.923 32.8785" fill="#DC3E3D"/>
<path d="M138.876 23.08C138.876 23.08 137.227 20.1881 136.22 19.0781C136.053 18.9122 135.852 18.7844 135.63 18.7036C135.408 18.6228 135.171 18.591 134.935 18.6103C133.557 18.7279 132.195 18.9932 130.874 19.4013V15.9991C130.893 15.8168 130.978 15.6474 131.112 15.5218C131.247 15.3961 131.422 15.3225 131.607 15.3144H138.062C138.147 15.3133 138.228 15.2793 138.288 15.2197C138.348 15.1602 138.382 15.0797 138.384 14.9954V12.499C138.384 12.4144 138.35 12.3333 138.289 12.2735C138.229 12.2137 138.148 12.1801 138.062 12.1801H131.637C131.452 12.1843 131.272 12.1192 131.133 11.9979C130.994 11.8766 130.906 11.7078 130.887 11.5251V8.77355C130.882 8.73197 130.886 8.68988 130.898 8.64985C130.911 8.60983 130.931 8.57273 130.958 8.54085C130.986 8.50897 131.019 8.48299 131.057 8.46449C131.095 8.446 131.136 8.43539 131.178 8.43333H136.165C136.251 8.43333 136.334 8.39928 136.395 8.33867C136.456 8.27805 136.49 8.19584 136.49 8.11012V5.61798C136.49 5.53226 136.456 5.45004 136.395 5.38943C136.334 5.32881 136.251 5.29476 136.165 5.29476H131.183C131.137 5.29763 131.092 5.29051 131.049 5.2739C131.007 5.2573 130.969 5.23161 130.938 5.19869C130.907 5.16577 130.883 5.12644 130.869 5.0835C130.855 5.04055 130.851 4.99506 130.857 4.95028V0.484838C130.857 0.399849 130.823 0.318273 130.763 0.257779C130.703 0.197286 130.621 0.162739 130.536 0.161621H127.76C127.58 0.161621 127.434 0.306216 127.434 0.693222L127.353 11.4783C127.346 11.6606 127.272 11.8341 127.146 11.967C127.02 12.0998 126.85 12.183 126.667 12.2013H119.663C119.621 12.2007 119.579 12.2086 119.539 12.2244C119.5 12.2401 119.464 12.2636 119.434 12.2932C119.403 12.3229 119.379 12.3582 119.363 12.3972C119.346 12.4362 119.338 12.478 119.338 12.5203V15.0167C119.339 15.1017 119.374 15.1828 119.435 15.2425C119.496 15.3022 119.578 15.3356 119.663 15.3356H126.757C126.91 15.3595 127.051 15.4322 127.159 15.5427C127.266 15.6532 127.334 15.7956 127.353 15.948V20.8728C124.658 22.2204 122.14 23.8915 119.856 25.8486C119.76 25.9388 119.694 26.0561 119.668 26.1846C119.641 26.3131 119.654 26.4466 119.706 26.5673C119.955 27.1882 120.349 28.3535 120.606 28.9744C120.636 29.0297 120.678 29.0777 120.73 29.1148C120.781 29.152 120.84 29.1773 120.902 29.1891C120.964 29.2009 121.029 29.1989 121.09 29.183C121.151 29.1672 121.208 29.1381 121.257 29.0977C123.07 27.2494 125.121 25.6478 127.357 24.3346V31.373C127.358 31.4412 127.346 31.509 127.32 31.5723C127.294 31.6355 127.255 31.6929 127.206 31.741C127.158 31.789 127.099 31.8268 127.036 31.852C126.972 31.8772 126.903 31.8893 126.835 31.8876C126.295 31.9258 124.543 31.9684 124.543 31.9684C124.456 31.9684 124.374 32.0024 124.312 32.063C124.251 32.1236 124.217 32.2059 124.217 32.2916L123.583 34.6646C123.583 34.7069 123.59 34.7488 123.606 34.788C123.622 34.8272 123.646 34.8629 123.676 34.8929C123.706 34.923 123.741 34.9469 123.78 34.9632C123.82 34.9795 123.862 34.9879 123.904 34.9879H128.103C128.882 34.9581 129.623 34.6413 130.18 34.099C130.806 33.5206 130.866 32.5723 130.866 32.0194V22.6887C131.735 22.2442 132.653 21.903 133.603 21.6723C133.772 21.6116 133.955 21.6031 134.128 21.6479C134.302 21.6927 134.458 21.7887 134.575 21.9232C135.368 22.8929 136.717 25.4913 136.717 25.4913C136.792 25.5786 136.897 25.6358 137.011 25.6522C137.125 25.6686 137.242 25.6432 137.338 25.5806C137.338 25.5806 138.803 23.8795 138.825 23.8795C138.882 23.829 138.929 23.7676 138.962 23.6989C138.995 23.6301 139.014 23.5555 139.018 23.4793C139.022 23.4032 139.01 23.3271 138.983 23.2556C138.957 23.1841 138.916 23.1186 138.863 23.063" fill="#DC3E3D"/>
</g>
<defs>
<clipPath id="clip0_413_1148">
<rect width="155" height="36" fill="white"/>
</clipPath>
</defs>
</svg>
