<svg width="155" height="36" viewBox="0 0 155 36" fill="none" xmlns="http://www.w3.org/2000/svg">
<g clip-path="url(#clip0_19_562)">
<path d="M59.6045 22.5016C59.5937 22.5429 59.5929 22.5862 59.602 22.6279C59.6112 22.6695 59.63 22.7085 59.6571 22.7416C59.6842 22.7747 59.7188 22.8011 59.758 22.8185C59.7972 22.8359 59.8401 22.8439 59.883 22.8419C60.5641 22.8419 61.9263 22.8419 62.5261 22.8419C62.6086 22.8506 62.6913 22.8277 62.7574 22.7779C62.8235 22.7281 62.8679 22.6552 62.8816 22.5739C63.2023 20.99 63.227 19.3611 62.9544 17.7683C62.9283 17.62 62.8477 17.4866 62.7282 17.3939C62.6087 17.3012 62.4589 17.2557 62.3076 17.2664H59.9986C59.6431 17.2664 59.5274 17.445 59.5703 17.747C59.7459 18.6911 60.0543 20.843 59.5917 22.4889" fill="white"/>
<path d="M55.5693 9.9006H52.8362C52.7937 9.9006 52.7515 9.90898 52.7123 9.92528C52.673 9.94157 52.6374 9.96545 52.6075 9.99552C52.5776 10.0256 52.554 10.0613 52.5381 10.1004C52.5222 10.1396 52.5144 10.1816 52.5149 10.2238V28.3578C52.5144 28.4 52.5222 28.4419 52.5381 28.4811C52.554 28.5203 52.5776 28.556 52.6075 28.5861C52.6374 28.6161 52.673 28.64 52.7123 28.6563C52.7515 28.6726 52.7937 28.681 52.8362 28.681H70.1041C70.1598 28.681 70.2155 28.681 70.2155 28.3578V11.7718C70.2161 11.7296 70.2082 11.6877 70.1923 11.6485C70.1764 11.6093 70.1528 11.5736 70.1229 11.5435C70.093 11.5135 70.0574 11.4896 70.0182 11.4733C69.9789 11.457 69.9368 11.4486 69.8942 11.4486H56.7773C56.5593 11.4344 56.3528 11.3465 56.1922 11.1994C56.0316 11.0524 55.9267 10.8551 55.8948 10.6406V10.2153C55.8948 10.1296 55.8605 10.0474 55.7995 9.98676C55.7384 9.92614 55.6556 9.89209 55.5693 9.89209V9.9006ZM66.8399 14.4936H65.8803C66.1107 14.4889 66.335 14.5673 66.5114 14.7144C66.6879 14.8614 66.8046 15.0671 66.8399 15.2932V24.8705C66.8086 25.0757 66.7103 25.265 66.5602 25.4094C66.4101 25.5538 66.2164 25.6454 66.0088 25.67H56.7259C56.5168 25.6444 56.322 25.5516 56.1711 25.4057C56.0203 25.2597 55.9217 25.0688 55.8905 24.862V15.2932C55.9276 15.0671 56.0454 14.8619 56.2224 14.7151C56.3994 14.5683 56.6238 14.4896 56.8544 14.4936H66.8356H66.8399Z" fill="white"/>
<path d="M51.1912 7.9315H71.9075C71.9924 7.9304 72.0735 7.89644 72.1335 7.83687C72.1935 7.77729 72.2277 7.6968 72.2288 7.61254V5.13741C72.2288 5.05242 72.1951 4.97084 72.135 4.91035C72.0749 4.84986 71.9931 4.81531 71.9075 4.81419H67.6794C67.1825 4.81419 67.1654 4.48672 67.1868 4.2273L67.5295 0.353003C67.5301 0.31076 67.5222 0.268832 67.5063 0.229642C67.4904 0.190451 67.4668 0.15478 67.4369 0.12471C67.407 0.09464 67.3714 0.0707649 67.3322 0.0544703C67.2929 0.0381758 67.2508 0.0297814 67.2082 0.0297852H64.3852C64.2996 0.0309034 64.2179 0.0654496 64.1578 0.125943C64.0976 0.186437 64.0639 0.268013 64.0639 0.353003L63.6356 4.45271C63.61 4.56022 63.5479 4.65571 63.4597 4.72309C63.3716 4.79048 63.2627 4.82566 63.1515 4.82271H60.2814C60.1557 4.82526 60.0337 4.77999 59.9405 4.69618C59.8474 4.61237 59.79 4.49636 59.7802 4.37191L59.3903 0.353003C59.3903 0.267281 59.356 0.185065 59.295 0.124451C59.2339 0.0638363 59.1511 0.0297852 59.0648 0.0297852H56.246C56.1597 0.0297852 56.0769 0.0638363 56.0158 0.124451C55.9548 0.185065 55.9205 0.267281 55.9205 0.353003L56.2289 4.23582C56.2503 4.49524 56.2289 4.82271 55.7363 4.82271H51.1912C51.1486 4.8227 51.1065 4.83108 51.0672 4.84738C51.028 4.86367 50.9924 4.88755 50.9625 4.91762C50.9326 4.94769 50.909 4.98336 50.8931 5.02255C50.8772 5.06174 50.8693 5.10367 50.8699 5.14591V7.64232C50.8699 7.72691 50.9037 7.80803 50.964 7.86785C51.0243 7.92766 51.106 7.96128 51.1912 7.96128" fill="white"/>
<path d="M40.6016 4.41022C41.4241 5.16722 43.7159 6.62592 46.1705 6.6642H48.0682C48.1538 6.66308 48.2355 6.62853 48.2957 6.56804C48.3558 6.50755 48.3895 6.42597 48.3895 6.34098V3.71701C48.3895 3.63202 48.3558 3.55044 48.2957 3.48995C48.2355 3.42945 48.1538 3.39491 48.0682 3.39379H46.3076C44.8768 3.39379 44.0029 2.7984 42.9962 1.92232L42.7221 1.67141C42.6247 1.57423 42.4953 1.51514 42.3576 1.50498C42.2199 1.49483 42.0832 1.53429 41.9724 1.61612C41.9724 1.61612 40.7987 2.63679 40.306 3.00678L39.959 3.26621C39.9215 3.29911 39.8917 3.33976 39.8718 3.38531C39.8518 3.43087 39.8421 3.48021 39.8434 3.52988C39.8436 3.62611 39.8803 3.71873 39.9462 3.7893C40.1518 4.00194 40.5845 4.41022 40.5845 4.41022" fill="white"/>
<path d="M73.6553 31.1262C69.8556 32.0235 64.231 32.1596 59.823 32.1596C54.5282 32.1596 51.114 31.258 47.3443 29.6462L47.2158 29.5867C46.5347 29.2422 46.4747 29.2124 46.3847 28.9658C46.3479 28.8772 46.3314 28.7816 46.3366 28.686C46.3418 28.5903 46.3685 28.497 46.4147 28.4129L46.4747 28.3151L48.094 25.185C48.1466 25.0634 48.1909 24.9383 48.2268 24.8108C48.2561 24.6703 48.2776 24.5283 48.291 24.3855V10.734C48.2899 10.649 48.2551 10.5679 48.1942 10.5082C48.1332 10.4485 48.0511 10.415 47.9655 10.415H39.1452C39.0595 10.415 38.9774 10.4485 38.9164 10.5082C38.8555 10.5679 38.8207 10.649 38.8196 10.734V13.1921C38.8196 13.2778 38.8539 13.36 38.9149 13.4207C38.976 13.4813 39.0588 13.5153 39.1452 13.5153L43.7588 13.5536C44.0446 13.5489 44.3227 13.6463 44.5421 13.8283C44.7615 14.0102 44.9077 14.2644 44.954 14.5445V24.1048C44.9456 24.2482 44.9241 24.3906 44.8897 24.5301C44.8469 24.6588 44.7909 24.7828 44.7226 24.9001L43.4889 27.2136C43.3915 27.4485 43.2182 27.6445 42.9963 27.7707C42.74 27.8763 42.4571 27.9001 42.1866 27.8388C40.9957 27.6176 40.3746 27.4475 39.6892 27.3327C39.5997 27.3067 39.5045 27.3067 39.415 27.3327C39.3761 27.3603 39.3453 27.3977 39.3257 27.4411C39.3061 27.4844 39.2985 27.5321 39.3036 27.5794V30.131C39.3197 30.2275 39.3615 30.3178 39.4248 30.3927C39.4881 30.4675 39.5706 30.524 39.6635 30.5563C46.2262 32.5339 52.2407 35.4385 59.5745 35.4385C66.3814 35.4385 71.8047 35.0133 73.711 34.537C73.7881 34.537 73.8352 34.4817 73.8352 34.3668V31.241C73.8337 31.2208 73.828 31.2011 73.8183 31.1832C73.8087 31.1653 73.7953 31.1496 73.7791 31.1372C73.763 31.1247 73.7444 31.1158 73.7245 31.111C73.7046 31.1062 73.684 31.1056 73.6638 31.1092" fill="white"/>
<path d="M22.5069 7.23828H9.07299C8.98813 7.23938 8.90705 7.27334 8.84704 7.33292C8.78702 7.3925 8.75282 7.47299 8.75171 7.55724V10.0707C8.75282 10.1549 8.78702 10.2354 8.84704 10.295C8.90705 10.3546 8.98813 10.3885 9.07299 10.3896H22.5069C22.5921 10.3896 22.6739 10.356 22.7341 10.2962C22.7944 10.2364 22.8282 10.1552 22.8282 10.0707V7.55724C22.8282 7.47265 22.7944 7.39152 22.7341 7.3317C22.6739 7.27188 22.5921 7.23828 22.5069 7.23828Z" fill="white"/>
<path d="M22.5069 13.3709H9.07299C8.89736 13.3709 8.75171 13.4517 8.75171 13.5538V27.1627C8.75171 27.2473 8.78556 27.3285 8.84581 27.3883C8.90606 27.4481 8.98778 27.4817 9.07299 27.4817H22.5069C22.5495 27.4823 22.5917 27.4744 22.6312 27.4586C22.6707 27.4429 22.7066 27.4195 22.7369 27.3898C22.7672 27.3601 22.7912 27.3248 22.8076 27.2858C22.824 27.2468 22.8325 27.205 22.8325 27.1627V13.6898C22.8325 13.6476 22.824 13.6058 22.8076 13.5668C22.7912 13.5278 22.7672 13.4925 22.7369 13.4628C22.7066 13.4331 22.6707 13.4097 22.6312 13.3939C22.5917 13.3782 22.5495 13.3703 22.5069 13.3709ZM19.5425 23.5521C19.5159 23.7543 19.4216 23.9418 19.2748 24.0845C19.128 24.2272 18.9372 24.3168 18.7329 24.3389H12.8813C12.666 24.3185 12.464 24.2263 12.3083 24.0772C12.1527 23.9281 12.0526 23.731 12.0245 23.5181V17.3855C12.0324 17.146 12.1355 16.9193 12.3113 16.7551C12.4872 16.5909 12.7214 16.5026 12.9627 16.5095H18.6001C18.8209 16.5061 19.0357 16.5808 19.206 16.7203C19.3763 16.8598 19.4911 17.0549 19.5297 17.2707L19.5425 23.5521Z" fill="white"/>
<path d="M31.0274 0.7229H2.75445H0.548299C0.119921 0.7229 0.00854492 0.995081 0.00854492 1.33531V34.5072C0.00967135 34.5922 0.0444692 34.6733 0.105403 34.733C0.166337 34.7927 0.248501 34.8262 0.33411 34.8261H3.14856C3.19996 34.8261 3.37988 34.8261 3.37988 34.5072V5.06927C3.41894 4.80582 3.54708 4.56339 3.74324 4.38178C3.93941 4.20017 4.19195 4.09017 4.45939 4.06986H26.9107C27.174 4.09081 27.4228 4.19841 27.6175 4.37559C27.8123 4.55277 27.9419 4.78941 27.9859 5.04801V26.6608C27.9859 27.8345 28.0202 29.6037 26.2424 31.224C25.8911 31.5685 23.7707 33.2186 23.7707 33.2186C23.7373 33.2447 23.7094 33.2771 23.6887 33.314C23.668 33.3508 23.6549 33.3914 23.6502 33.4333C23.6454 33.4753 23.649 33.5177 23.6609 33.5582C23.6727 33.5988 23.6926 33.6365 23.7193 33.6694L25.1158 35.8809C25.1459 35.9186 25.1844 35.9489 25.2282 35.9696C25.272 35.9902 25.32 36.0006 25.3685 35.9999C25.4413 35.9996 25.512 35.9757 25.5699 35.9319C25.5699 35.9319 27.7118 34.4094 28.5342 33.6481C29.2196 33.0272 31.2544 30.9944 31.3444 26.7926V1.04186C31.3444 0.957267 31.3105 0.876137 31.2503 0.81632C31.19 0.756503 31.1083 0.7229 31.0231 0.7229" fill="white"/>
<path d="M111.88 29.7698C110.804 27.4223 108.281 22.859 104.169 19.882C100.57 17.2751 98.2914 17.0114 98.0343 16.8838C97.8501 16.7903 97.8373 16.6116 97.8416 16.3224L97.9315 11.5508C97.9698 11.4038 98.0529 11.2722 98.1695 11.174C98.2861 11.0758 98.4304 11.0158 98.5827 11.0022H111.897C111.992 11.0011 112.084 10.9625 112.151 10.8948C112.219 10.8271 112.256 10.7358 112.256 10.6407V8.18258C112.255 8.08817 112.217 7.99795 112.15 7.93119C112.083 7.86444 111.992 7.82645 111.897 7.82534H98.6726C98.485 7.81737 98.3069 7.74091 98.1725 7.61064C98.0381 7.48036 97.9569 7.30543 97.9444 7.11937L97.7773 0.633845C97.7773 0.539101 97.7394 0.448239 97.6719 0.381244C97.6044 0.31425 97.5129 0.276611 97.4175 0.276611H94.6716C94.5765 0.277716 94.4856 0.315707 94.4184 0.382464C94.3511 0.449221 94.3128 0.539444 94.3117 0.633845V7.22569C94.2824 7.38177 94.2032 7.52433 94.0859 7.63231C93.9687 7.74029 93.8196 7.80797 93.6606 7.82534H79.9525C79.8567 7.82534 79.7647 7.86283 79.6965 7.9297C79.6284 7.99658 79.5895 8.08744 79.5884 8.18258V10.6407C79.5884 10.6882 79.5978 10.7352 79.6161 10.779C79.6344 10.8229 79.6612 10.8627 79.695 10.8963C79.7288 10.9299 79.769 10.9565 79.8132 10.9747C79.8573 10.9928 79.9047 11.0022 79.9525 11.0022H93.6949C93.853 11.022 94.0005 11.0918 94.1154 11.2013C94.2304 11.3109 94.3068 11.4543 94.3331 11.6103V15.9907C94.3337 16.0384 94.3247 16.0856 94.3066 16.1297C94.2885 16.1739 94.2617 16.2139 94.2278 16.2476C94.1938 16.2813 94.1535 16.3079 94.109 16.3259C94.0646 16.3438 94.017 16.3528 93.969 16.3522C93.969 16.3522 91.5101 16.3139 90.6791 16.3947C88.867 16.5776 86.164 17.2453 84.0307 19.1803C81.6874 21.3067 80.7621 23.1312 80.1753 25.7126C79.868 26.9673 79.8486 28.2745 80.1185 29.5377C80.3884 30.8008 80.9407 31.9876 81.7345 33.0105C83.6451 35.4431 89.681 37.3228 93.3008 33.9291C97.0491 30.4163 97.8416 24.3858 97.8416 20.1925C97.8416 20.0096 97.9915 19.9501 98.21 20.0224C100.596 20.8219 104.554 23.9775 106.808 27.8263C108.371 30.2844 109.519 32.9041 109.806 33.4017C109.839 33.482 109.891 33.5527 109.959 33.6071C110.027 33.6614 110.108 33.6975 110.194 33.7121C110.28 33.7266 110.368 33.7189 110.45 33.6899C110.532 33.6609 110.606 33.6115 110.663 33.5463C111.057 33.2316 112.488 32.1471 112.488 32.1471C112.736 31.9217 112.796 31.7644 112.573 31.3519C112.518 31.2541 111.905 29.8846 111.854 29.7698H111.88ZM91.553 31.1222C89.878 33.053 86.5581 33.2146 84.6989 31.5135C82.8398 29.8123 82.3514 24.3645 86.6866 20.8559C89.5139 18.5679 94.1404 19.2952 94.1404 19.2952C94.3374 19.3292 94.3546 19.461 94.3503 19.6439C94.3503 21.1876 94.3888 27.8773 91.5744 31.1265" fill="white"/>
<path d="M154.859 32.8402C153.86 31.8281 151.076 29.4763 149.243 26.5758C149.193 26.4966 149.167 26.4053 149.167 26.3122C149.167 26.219 149.193 26.1277 149.243 26.0485C151.239 22.3315 153.364 17.6237 153.466 8.36958V5.63927C153.465 5.55429 153.43 5.47317 153.369 5.41347C153.309 5.35377 153.226 5.32031 153.141 5.32031H141.193C141.108 5.32031 141.026 5.35377 140.965 5.41347C140.904 5.47317 140.869 5.55429 140.868 5.63927V8.13567C140.868 8.17791 140.876 8.21975 140.893 8.25873C140.909 8.29771 140.933 8.33305 140.963 8.36273C140.994 8.3924 141.03 8.41581 141.069 8.43159C141.109 8.44737 141.151 8.45519 141.193 8.45463H149.812C150.129 8.45463 150.189 8.65026 150.168 8.97773C150.168 8.97773 150.168 9.42852 150.168 9.49231C150.168 10.3982 150.168 17.5131 147.358 22.9652C147.345 23.0051 147.32 23.0402 147.287 23.066C147.254 23.0918 147.214 23.107 147.172 23.1098C147.129 23.1125 147.088 23.1026 147.051 23.0814C147.015 23.0602 146.986 23.0286 146.968 22.9907C145.027 19.5162 144.59 16.6115 144.205 12.4012C144.205 12.2651 144.149 11.9972 143.866 11.9972H141.215C140.932 11.9972 140.885 12.1588 140.893 12.2396C141.6 20.2349 143.061 22.5442 144.92 26.04C144.964 26.114 144.988 26.1985 144.988 26.2845C144.988 26.3706 144.964 26.455 144.92 26.5291C143.324 28.8723 141.39 30.9701 139.18 32.7552C139.143 32.7872 139.113 32.8263 139.091 32.8701C139.069 32.914 139.057 32.9617 139.054 33.0104C139.051 33.0592 139.058 33.108 139.075 33.154C139.091 33.2 139.117 33.2423 139.15 33.2783L140.838 34.8816C140.912 34.9548 141.012 34.9959 141.116 34.9959C141.221 34.9959 141.321 34.9548 141.395 34.8816C143.486 33.2311 145.346 31.3102 146.925 29.1701C146.939 29.1531 146.957 29.1395 146.977 29.1301C146.997 29.1208 147.019 29.1159 147.041 29.1159C147.063 29.1159 147.085 29.1208 147.105 29.1301C147.125 29.1395 147.142 29.1531 147.156 29.1701C148.788 31.2626 150.632 33.1822 152.661 34.8986C152.754 34.9841 152.877 35.0315 153.004 35.0315C153.131 35.0315 153.253 34.9841 153.346 34.8986C153.346 34.8986 154.739 33.644 154.923 33.4569C154.964 33.4206 154.997 33.376 155.019 33.3262C155.042 33.2763 155.054 33.2223 155.054 33.1677C155.054 33.1131 155.042 33.059 155.019 33.0092C154.997 32.9593 154.964 32.9148 154.923 32.8785" fill="white"/>
<path d="M138.876 23.08C138.876 23.08 137.227 20.1881 136.22 19.0781C136.053 18.9122 135.851 18.7844 135.629 18.7036C135.407 18.6228 135.17 18.591 134.935 18.6103C133.556 18.7279 132.195 18.9932 130.874 19.4013V15.9991C130.893 15.8168 130.978 15.6474 131.112 15.5218C131.247 15.3961 131.422 15.3225 131.606 15.3144H138.062C138.147 15.3133 138.228 15.2793 138.288 15.2197C138.348 15.1602 138.382 15.0797 138.383 14.9954V12.499C138.383 12.4144 138.349 12.3333 138.289 12.2735C138.229 12.2137 138.147 12.1801 138.062 12.1801H131.636C131.451 12.1843 131.272 12.1192 131.133 11.9979C130.994 11.8766 130.906 11.7078 130.887 11.5251V8.77355C130.882 8.73197 130.886 8.68988 130.898 8.64985C130.91 8.60983 130.931 8.57273 130.958 8.54085C130.986 8.50897 131.019 8.48299 131.057 8.46449C131.095 8.446 131.136 8.43539 131.178 8.43333H136.164C136.251 8.43333 136.334 8.39928 136.395 8.33867C136.456 8.27805 136.49 8.19584 136.49 8.11012V5.61798C136.49 5.53226 136.456 5.45004 136.395 5.38943C136.334 5.32881 136.251 5.29476 136.164 5.29476H131.182C131.137 5.29763 131.091 5.29051 131.049 5.2739C131.007 5.2573 130.969 5.23161 130.938 5.19869C130.907 5.16577 130.883 5.12644 130.869 5.0835C130.855 5.04055 130.851 4.99506 130.857 4.95028V0.484838C130.857 0.399849 130.823 0.318273 130.763 0.257779C130.703 0.197286 130.621 0.162739 130.535 0.161621H127.76C127.58 0.161621 127.434 0.306216 127.434 0.693222L127.353 11.4783C127.345 11.6606 127.272 11.8341 127.146 11.967C127.02 12.0998 126.85 12.183 126.667 12.2013H119.663C119.621 12.2007 119.578 12.2086 119.539 12.2244C119.499 12.2401 119.464 12.2636 119.433 12.2932C119.403 12.3229 119.379 12.3582 119.363 12.3972C119.346 12.4362 119.338 12.478 119.338 12.5203V15.0167C119.339 15.1017 119.374 15.1828 119.435 15.2425C119.495 15.3022 119.578 15.3356 119.663 15.3356H126.757C126.91 15.3595 127.051 15.4322 127.158 15.5427C127.266 15.6532 127.334 15.7956 127.353 15.948V20.8728C124.658 22.2204 122.14 23.8915 119.856 25.8486C119.76 25.9388 119.694 26.0561 119.667 26.1846C119.641 26.3131 119.654 26.4466 119.706 26.5673C119.955 27.1882 120.349 28.3535 120.606 28.9744C120.636 29.0297 120.678 29.0777 120.729 29.1148C120.781 29.152 120.84 29.1773 120.902 29.1891C120.964 29.2009 121.028 29.1989 121.09 29.183C121.151 29.1672 121.208 29.1381 121.257 29.0977C123.069 27.2494 125.121 25.6478 127.357 24.3346V31.373C127.358 31.4412 127.345 31.509 127.319 31.5723C127.294 31.6355 127.255 31.6929 127.206 31.741C127.157 31.789 127.099 31.8268 127.035 31.852C126.971 31.8772 126.903 31.8893 126.834 31.8876C126.295 31.9258 124.542 31.9684 124.542 31.9684C124.456 31.9684 124.373 32.0024 124.312 32.063C124.251 32.1236 124.217 32.2059 124.217 32.2916L123.583 34.6646C123.582 34.7069 123.59 34.7488 123.606 34.788C123.622 34.8272 123.646 34.8629 123.675 34.8929C123.705 34.923 123.741 34.9469 123.78 34.9632C123.819 34.9795 123.862 34.9879 123.904 34.9879H128.102C128.882 34.9581 129.623 34.6413 130.18 34.099C130.805 33.5206 130.865 32.5723 130.865 32.0194V22.6887C131.734 22.2442 132.653 21.903 133.603 21.6723C133.771 21.6116 133.954 21.6031 134.128 21.6479C134.302 21.6927 134.458 21.7887 134.575 21.9232C135.368 22.8929 136.717 25.4913 136.717 25.4913C136.792 25.5786 136.896 25.6358 137.011 25.6522C137.125 25.6686 137.241 25.6432 137.338 25.5806C137.338 25.5806 138.803 23.8795 138.825 23.8795C138.882 23.829 138.929 23.7676 138.962 23.6989C138.995 23.6301 139.014 23.5555 139.018 23.4793C139.021 23.4032 139.009 23.3271 138.983 23.2556C138.956 23.1841 138.916 23.1186 138.863 23.063" fill="white"/>
</g>
<defs>
<clipPath id="clip0_19_562">
<rect width="155" height="36" fill="white"/>
</clipPath>
</defs>
</svg>
